<svg xmlns="http://www.w3.org/2000/svg" width="84" height="60" fill="none"><g fill="#FAF9F6"><path d="M83.034 13.372C82.484 6.271 76.723.61 69.652 0l-56.58.03C6.312.77 1.04 5.961 0 12.652v34.696C.67 53.939 6.951 59.68 13.532 60h55.96c7.03-.45 13.092-6.301 13.542-13.382.68-10.822-.54-22.364 0-33.256zm-6.001 32.606c-.33 3.78-2.98 6.86-6.641 7.78-19.163.411-38.447.351-57.62.03-3.68-.88-6.36-3.9-6.761-7.66V13.862c.44-4.21 3.83-7.55 8.071-7.821l54.44-.06c4.61.3 8.02 3.39 8.51 8.031v31.966"/><path d="M57.46 27.435c-7.722-4.891-15.153-10.342-23.034-14.903-.41-.08-.81-.07-1.22 0-1.12.19-2.26 1.34-2.39 2.47.09 10.172-.16 20.384.13 30.526.78 1.86 2.87 2.59 4.63 1.47L57.56 32.505c1.75-1.3 1.7-3.83-.1-5.07M36.816 38.926V21.094l13.292 8.842-13.292 9.002z"/></g></svg>