<svg xmlns="http://www.w3.org/2000/svg" width="400" height="89" fill="none"><path fill="#fff" d="M34.03 2.98C30.68 1.01 26.8 0 22.47 0s-8.29 1-11.65 2.97c-3.37 1.98-6.04 4.75-7.95 8.24C.97 14.69 0 18.76 0 23.28s.97 8.81 2.87 12.35c1.91 3.561 4.58 6.371 7.95 8.371s7.29 3.01 11.66 3.01 8.22-1.01 11.56-3.01 6.001-4.81 7.891-8.37c1.88-3.54 2.84-7.7 2.84-12.35s-.95-8.59-2.84-12.07c-1.89-3.49-4.54-6.27-7.89-8.24zm-11.56-.55c3.87 0 7.34.9 10.31 2.66 2.96 1.77 5.311 4.24 6.981 7.34 1.67 3.12 2.52 6.77 2.52 10.87s-.85 7.91-2.52 11.09c-1.67 3.17-4.01 5.681-6.98 7.471s-6.43 2.71-10.3 2.75c-3.87-.04-7.36-.97-10.37-2.76s-5.38-4.3-7.07-7.47c-1.69-3.18-2.55-6.91-2.55-11.09s.86-7.75 2.55-10.86 4.06-5.58 7.07-7.34c3.01-1.77 6.5-2.66 10.37-2.66zm53.292 26.95c0-3.73-1.1-6.63-3.26-8.63-2.15-1.99-4.97-3-8.38-3-2.57 0-4.81.61-6.64 1.82-1.09.72-2.01 1.53-2.76 2.44v-3.18h-6.6v2.42h3.02c.53 0 .81.1.9.2.06.07.2.29.2.91v20.081c0 .62-.14.84-.2.91-.09.09-.37.2-.9.2h-3.02v2.42h10.03v-2.42h-3.42v-14.53c0-1.76.41-3.32 1.23-4.62s1.95-2.33 3.38-3.05c1.44-.73 3.06-1.1 4.8-1.1 2.69 0 4.91.78 6.62 2.33 1.68 1.53 2.54 3.82 2.54 6.82v13.05c0 .62-.14.84-.2.91-.09.09-.37.2-.9.2h-3.02v2.42h10.03v-2.42h-3.42v-14.15zm26.391-10.12c-1.891-1.04-4.1-1.57-6.57-1.57s-4.89.64-6.89 1.91c-2 1.26-3.58 3.02-4.71 5.24-1.12 2.2-1.711 4.75-1.751 7.59 0 2.84.58 5.39 1.72 7.571 1.15 2.19 2.76 3.93 4.77 5.17 2.02 1.24 4.33 1.87 6.85 1.87s4.83-.44 6.681-1.3c1.88-.87 3.31-2.03 4.27-3.43l.35-.52-1.96-1.54-.4.62c-.69 1.07-1.79 1.95-3.27 2.64-1.51.7-3.43 1.07-5.67 1.11-2.1-.04-4.02-.61-5.7-1.7-1.69-1.09-3-2.57-3.92-4.39-.92-1.83-1.34-3.87-1.26-6.07l.03-.75 23.55.06v-1.75c0-2.39-.55-4.54-1.65-6.39a11.7 11.7 0 0 0-4.5-4.36zm-17.11 10.02c.52-2.57 1.68-4.7 3.43-6.35 1.91-1.79 4.31-2.72 7.12-2.76 2.03 0 3.83.43 5.35 1.28 1.51.85 2.72 2.02 3.58 3.49.76 1.3 1.17 2.77 1.23 4.4zm63.901-18.78c0 .98.52 1.67 1.43 1.89s1.65-.08 2.09-.84c.31-.49.38-1.13.21-1.89-.14-.67-.53-1.49-1.17-2.5-1.46-2.26-3.67-4.04-6.57-5.29-2.86-1.23-6.02-1.86-9.391-1.86-2.95 0-5.81.57-8.5 1.7s-5.1 2.74-7.18 4.8-3.75 4.54-4.96 7.37c-1.21 2.84-1.83 6.01-1.83 9.42 0 4.53.96 8.63 2.87 12.19 1.91 3.581 4.58 6.421 7.95 8.461s7.29 3.07 11.66 3.07c3.371 0 6.501-.63 9.301-1.86 2.8-1.24 5.24-3.01 7.24-5.27l.45-.51-1.91-1.63-.44.5c-1.75 1.99-3.89 3.57-6.37 4.71-2.47 1.13-5.25 1.68-8.271 1.65-3.87-.04-7.36-.99-10.37-2.82s-5.39-4.36-7.08-7.54-2.55-6.87-2.55-10.96c0-3.06.55-5.91 1.63-8.45s2.58-4.76 4.45-6.59a20.9 20.9 0 0 1 6.42-4.3c2.38-1.02 4.9-1.53 7.5-1.53 2.941 0 5.691.53 8.171 1.56 2.44 1.02 4.3 2.46 5.55 4.3.28.38.3.53.3.52-.04.16-.11.3-.22.44-.27.33-.4.75-.4 1.24zm35.691 18.88c0-3.73-1.1-6.63-3.26-8.63-2.151-1.99-4.971-3-8.381-3-2.26 0-4.41.55-6.38 1.64-1.22.67-2.23 1.47-3.03 2.39V1.09h-6.6v2.42h3.02c.53 0 .81.1.9.2.06.07.2.29.2.91v37.821c0 .62-.14.84-.2.91-.09.09-.37.2-.9.2h-3.02v2.42h10.03v-2.42h-3.42v-14.47c0-1.81.41-3.38 1.23-4.68s1.94-2.33 3.35-3.05c1.42-.73 3.04-1.1 4.83-1.1 2.69 0 4.91.78 6.62 2.33 1.681 1.53 2.541 3.82 2.541 6.82v13.05c0 .62-.14.84-.2.91-.09.09-.37.2-.9.2h-3.021v2.42h10.031v-2.42h-3.42v-14.15zm14.73-10.55h-6.6v2.42h3.02c.53 0 .81.1.9.2.06.07.2.29.2.91v20.081c0 .62-.14.84-.2.91-.09.09-.37.2-.9.2h-4.41v2.42h12.75v-2.42h-4.75v-24.71z"/><path fill="#00243A" d="M197.935 10.92c.83 0 1.52-.3 2.05-.89.51-.57.78-1.29.78-2.13s-.27-1.5-.8-2.03-1.21-.8-2.03-.8-1.56.26-2.13.78c-.59.53-.89 1.22-.89 2.05s.29 1.58.86 2.15 1.3.86 2.15.86z"/><path fill="#fff" d="M216.186 1.09h-6.601v2.42h3.02c.53 0 .81.1.9.2.06.07.2.29.2.91v37.821c0 .62-.14.84-.2.91-.09.09-.37.2-.9.2h-5.24v2.42h14.781v-2.42h-5.96zm37.13 42.441c-.53 0-.81-.1-.9-.2-.06-.07-.2-.29-.2-.91V1.08h-6.6V3.5h3.02c.53 0 .81.1.9.2.06.07.2.29.2.91v19.01c-.97-1.44-2.19-2.65-3.65-3.63-2.22-1.48-4.86-2.24-7.85-2.24-2.69 0-5.12.63-7.22 1.87-2.11 1.24-3.77 2.99-4.94 5.21-1.17 2.2-1.76 4.76-1.76 7.6s.59 5.401 1.76 7.601c1.17 2.21 2.84 3.96 4.94 5.21 2.1 1.24 4.53 1.87 7.22 1.87 2.99 0 5.64-.75 7.85-2.24 1.46-.98 2.68-2.19 3.65-3.63v4.73h6.6v-2.42h-3.02zm-15.08 1.08c-2.23-.04-4.23-.58-5.93-1.61-1.71-1.03-3.06-2.47-4.04-4.27-.98-1.81-1.47-3.93-1.47-6.3s.5-4.49 1.47-6.3 2.33-3.26 4.04-4.31c1.7-1.05 3.69-1.58 5.92-1.58s4.28.53 5.99 1.58 3.07 2.5 4.04 4.31c.98 1.82 1.47 3.94 1.47 6.3s-.5 4.49-1.47 6.3-2.33 3.24-4.04 4.27c-1.7 1.03-3.72 1.57-5.99 1.61zm-130.143 11.59c4.08 0 5.97 1.71 5.97 4.22 0 1.91-.9 3.09-2.79 3.76v.05c2.15.48 3.21 1.75 3.21 3.83 0 2.79-2.21 4.56-6 4.56h-6.801v-16.41h6.411zm-2.5 6.64h2.08c1.78 0 2.54-.58 2.54-1.8s-.74-1.75-2.4-1.75h-2.21v3.55zm0 6.66h2.17c1.87 0 2.61-.58 2.61-1.82 0-1.31-.76-1.91-2.68-1.91h-2.1zm21.25 3.111h-3.99v-6.2l-5.63-10.21h4.43l1.43 2.97a43 43 0 0 1 1.75 4.13h.05a39 39 0 0 1 1.73-4.13l1.43-2.97h4.43l-5.63 10.21zm17.951-15.571h6.42v14.75h13.34v-14.75h6.42v31.151h-6.42v-10.67h-13.34v10.67h-6.42zm67.941 0h6.42v25.511h14.121v5.63h-20.531v-31.15zm67.792 16.671c-1.56-1.47-3.71-4.26-3.71-4.26s.46 3.44.46 5.68v13.06h-6v-31.42h.64l15.72 14.75c1.51 1.42 3.67 4.26 3.67 4.26s-.41-3.53-.41-5.68v-13.06h6v31.42h-.64l-15.72-14.75zm57.831-11.04h-8.89v-5.63h24.201v5.63h-8.89v25.51h-6.421zm20.821-5.631h6.42v14.75h13.34v-14.75h6.421v31.151h-6.421v-10.67h-13.34v10.67h-6.42zm34.401 0H400v31.151h-6.42z"/><path fill="#00B8F1" d="M191.455 88.572c8.726 0 15.8-7.145 15.8-15.96s-7.074-15.96-15.8-15.96-15.801 7.145-15.801 15.96 7.074 15.96 15.801 15.96"/><path fill="#FFD600" d="m236.586 88.182 15.18-31.98 14.861 31.98z"/><path fill="#FF2A58" d="m301.228 88.182 15.17-31.98 14.87 31.98z"/></svg>