<svg width="217" height="116" viewBox="0 0 217 116" fill="none" xmlns="http://www.w3.org/2000/svg">
<g id="Layer-31">
<path id="Vector" opacity="0.3" d="M110.599 0.0400913C109.687 0.0400913 108.775 0.07016 107.863 0.0801826V5.9434H94.0921V0.721628C93.1901 0.801809 92.2479 0.841898 91.3559 0.932101V5.93338H77.5849V2.93662C76.6327 3.12705 75.7808 3.4177 74.8487 3.61816V5.92336H65.6981C62.9319 6.75523 60.3059 7.66729 57.8304 8.65953H58.3415V22.4306H44.5705V15.7154C43.6584 16.3168 42.7664 16.8981 41.8343 17.5596V22.4406H35.5C34.3675 23.3627 33.255 24.1845 32.1224 25.1768H41.8343V38.9478H28.0633V29.0254C27.1512 29.8974 26.2291 30.7293 25.3271 31.6313V38.9478H18.7022C17.9304 39.8598 17.1386 40.7418 16.397 41.684H25.3371V55.455H11.5661V48.359C10.6139 49.7722 9.69185 51.1854 8.8299 52.6386V55.465H7.28642C6.78529 56.3771 6.24407 57.2791 5.79306 58.2012H8.8299V71.9722H0.731649C0.521175 72.8843 0.50113 73.7963 0.350791 74.7084H8.81988V88.4794H0C0.180407 89.4617 0.551243 90.3036 0.81183 91.2156H8.80986V103.914C10.4937 105.368 12.3178 106.66 14.3223 107.723H25.3171V111.361C26.2391 111.531 27.1111 111.802 28.0532 111.912V107.723H41.8243V111.311C42.7965 111.02 43.7085 110.679 44.5604 110.289V107.723H48.5795C49.5216 106.921 50.1831 105.939 50.9348 104.987H44.5604V91.2156H56.2769C56.3971 90.2635 56.5174 89.3715 56.5775 88.4794H44.5604V74.7084H58.3315V78.8979L61.0677 78.6373V74.6984H74.8387V77.4345L77.5749 77.174V74.6884H91.3459V75.9713L94.0821 75.7608V74.6884H106.019L137.159 71.9522H127.107V58.1812H140.878V71.6114L143.614 71.4009V58.1812H157.385V71.9522H152.975C153.075 72.1226 154.238 74.1972 154.518 74.6884H157.385V79.7297C158.347 81.4235 158.858 82.3456 160.121 84.5606V74.6783H173.892V88.4494H162.346C162.857 89.3414 162.817 89.2913 163.328 90.2033C163.519 90.5441 163.779 90.8448 163.97 91.1855H173.892V104.957H173.251C174.333 106.25 175.466 107.422 176.628 108.545V107.693H190.399V115.861C191.301 115.971 192.203 116.022 193.135 115.991V107.693H206.906V110.299C208.66 108.745 210.164 106.961 211.437 104.957H209.643V91.1855H216.267C216.408 90.2735 216.568 89.3815 216.658 88.4494H209.643V74.6783H216.017C215.867 73.7663 215.826 72.8442 215.636 71.9422H209.653V58.1711H210.725C209.653 55.9461 208.34 53.6309 206.916 51.2455V55.435H193.145V41.6639H200.412C199.72 40.7519 199.139 39.8398 198.397 38.9278H193.135V32.9844C192.213 31.9821 191.371 30.9798 190.399 29.9876V38.9278H176.628V25.1567H185.097C184.055 24.2346 183.063 23.3126 181.98 22.4205H176.638V18.4015C175.746 17.76 174.824 17.1386 173.902 16.5172V22.4205H160.131V8.90007C157.645 7.78756 155.11 6.79532 152.474 5.90331H143.624V3.33752C143.113 3.22728 142.652 3.0168 142.13 2.90655C141.719 2.82637 141.298 2.80633 140.888 2.73617V5.90331H127.117V0.811835C126.204 0.721632 125.292 0.67152 124.38 0.601362V5.90331H110.609V0L110.599 0.0400913ZM61.0777 8.67957H74.8487V22.4506H61.0777V8.67957ZM77.5849 8.67957H91.3559V22.4506H77.5849V8.67957ZM94.0921 8.67957H107.863V22.4506H94.0921V8.67957ZM110.599 8.67957H124.37V22.4506H110.599V8.67957ZM127.107 8.67957H140.878V22.4506H127.107V8.67957ZM143.614 8.67957H157.385V22.4506H143.614V8.67957ZM44.5705 25.1868H58.3415V38.9578H44.5705V25.1868ZM61.0777 25.1868H74.8487V38.9578H61.0777V25.1868ZM77.5849 25.1868H91.3559V38.9578H77.5849V25.1868ZM94.0921 25.1868H107.863V38.9578H94.0921V25.1868ZM110.599 25.1868H124.37V38.9578H110.599V25.1868ZM127.107 25.1868H140.878V38.9578H127.107V25.1868ZM143.614 25.1868H157.385V38.9578H143.614V25.1868ZM160.131 25.1868H173.902V38.9578H160.131V25.1868ZM28.0532 41.694H41.8243V55.465H28.0532V41.694ZM44.5705 41.694H58.3415V55.465H44.5705V41.694ZM61.0777 41.694H74.8487V55.465H61.0777V41.694ZM77.5849 41.694H91.3559V55.465H77.5849V41.694ZM94.0921 41.694H107.863V55.465H94.0921V41.694ZM110.599 41.694H124.37V55.465H110.599V41.694ZM127.107 41.694H140.878V55.465H127.107V41.694ZM143.614 41.694H157.385V55.465H143.614V41.694ZM160.131 41.694H173.902V55.465H160.131V41.694ZM176.638 41.694H190.409V55.465H176.638V41.694ZM11.546 58.2012H25.3171V71.9722H11.546V58.2012ZM28.0532 58.2012H41.8243V71.9722H28.0532V58.2012ZM44.5705 58.2012H58.3415V71.9722H44.5705V58.2012ZM61.0777 58.2012H74.8487V71.9722H61.0777V58.2012ZM77.5849 58.2012H91.3559V71.9722H77.5849V58.2012ZM94.0921 58.2012H107.863V71.9722H94.0921V58.2012ZM110.599 58.2012H124.37V71.9722H110.599V58.2012ZM160.131 58.2012H173.902V71.9722H160.131V58.2012ZM176.638 58.2012H190.409V71.9722H176.638V58.2012ZM193.145 58.2012H206.916V71.9722H193.145V58.2012ZM11.546 74.7084H25.3171V88.4794H11.546V74.7084ZM28.0532 74.7084H41.8243V88.4794H28.0532V74.7084ZM176.638 74.7084H190.409V88.4794H176.638V74.7084ZM193.145 74.7084H206.916V88.4794H193.145V74.7084ZM11.546 91.2256H25.3171V104.997H11.546V91.2256ZM28.0532 91.2256H41.8243V104.997H28.0532V91.2256ZM176.638 91.2256H190.409V104.997H176.638V91.2256ZM193.145 91.2256H206.916V104.997H193.145V91.2256Z" fill="#00B8F1"/>
</g>
</svg>
