<svg width="85" height="62" viewBox="0 0 85 62" fill="none" xmlns="http://www.w3.org/2000/svg">
<path id="Vector" d="M5.57308 18.7611C-2.49802 27.9251 6.45539 38.2721 6.45539 38.2721C6.45539 38.2721 -1.02417 41.661 0.118821 51.4265C1.55257 63.6585 14.2357 61.914 14.2357 61.914C11.2178 53.7827 11.4484 45.8119 11.4484 45.8119C11.4484 45.8119 17.8752 42.804 22.5876 38.2621C27.2899 33.7303 30.2677 27.6644 30.2677 27.6644C30.2677 27.6644 35.6217 34.9535 45.1265 38.2621C55.1427 41.7512 63.1737 40.518 63.3742 40.518C65.9309 45.2905 65.9309 50.3237 65.9309 50.3237C65.9309 50.3237 79.6067 48.0978 83.0055 38.2621C87.4472 25.3784 79.5966 13.9084 72.2274 10.7402C64.076 7.24101 56.035 10.8906 56.035 10.8906C56.035 10.8906 52.5258 -0.569409 38.8 0.0221377C22.5976 0.723973 20.9533 14.9111 20.9533 14.9111C20.9533 14.9111 11.2279 12.3444 5.58311 18.7411L5.57308 18.7611Z" fill="#19292E"/>
</svg>
