<svg width="70" height="56" viewBox="0 0 70 56" fill="none" xmlns="http://www.w3.org/2000/svg">
<g id="Group">
<path id="Vector" d="M27.1484 22.4992C27.1484 22.4992 31.09 33.7736 36.4221 39.566C44.8955 48.7696 56.2 49.1998 56.2 49.1998L53.649 55.2022C53.649 55.2022 60.5817 55.2622 65.0235 50.1702C70.4957 43.8877 71.8062 32.7332 67.1843 26.4007C61.9523 19.2579 53.5989 18.9778 53.5989 18.9778C53.5989 18.9778 51.3681 11.7549 43.735 5.39237C34.5114 -2.29069 15.954 -1.94055 6.63027 7.58324C2.87878 11.4148 -0.332504 18.6676 0.0276392 22.5092C0.817953 31.0826 6.63027 32.3631 6.63027 32.3631C6.63027 32.3631 10.2817 32.3331 17.4146 29.2619C23.9372 26.4507 27.1584 22.5092 27.1584 22.5092L27.1484 22.4992Z" fill="#00B8F1"/>
<path id="Vector_2" d="M52.8887 19.708L65.1936 12.8752" stroke="#00B8F1" stroke-width="2" stroke-linecap="round" stroke-linejoin="round"/>
<path id="Vector_3" d="M52.8887 18.8276L55.6298 9.15379" stroke="#00B8F1" stroke-width="2" stroke-linecap="round" stroke-linejoin="round"/>
</g>
</svg>
