<svg width="57" height="46" viewBox="0 0 57 46" fill="none" xmlns="http://www.w3.org/2000/svg">
<g id="Vector">
<path d="M9.53588 2.61964C9.53588 2.61964 29.4589 -2.16351 41.7511 4.77812C58.8468 14.4457 59.617 39.6586 48.9968 38.7465C46.2708 38.5135 49.1995 34.085 46.4836 27.6095C44.0008 21.6914 39.3798 16.5738 39.3798 16.5738C39.3798 16.5738 47.6389 26.3327 47.8618 33.3148C48.2165 44.7559 39.4001 43.9857 39.4001 43.9857C39.4001 43.9857 39.015 37.6622 37.4747 32.7575C35.9344 27.8527 31.5363 21.7522 31.5363 21.7522C31.5363 21.7522 36.5728 29.4741 37.9307 34.9261C39.2988 40.4389 39.7244 44.614 35.1034 44.8572C28.7495 45.1916 21.3215 28.1263 21.3215 28.1263C21.3215 28.1263 9.75882 30.3254 1.01338 19.9383" fill="#F2F2F2"/>
<path d="M9.53588 2.61964C9.53588 2.61964 29.4589 -2.16351 41.7511 4.77812C58.8468 14.4457 59.617 39.6586 48.9968 38.7465C46.2708 38.5135 49.1995 34.085 46.4836 27.6095C44.0008 21.6914 39.3798 16.5738 39.3798 16.5738C39.3798 16.5738 47.6389 26.3327 47.8618 33.3148C48.2165 44.7559 39.4001 43.9857 39.4001 43.9857C39.4001 43.9857 39.015 37.6622 37.4747 32.7575C35.9344 27.8527 31.5363 21.7522 31.5363 21.7522C31.5363 21.7522 36.5728 29.4741 37.9307 34.9261C39.2988 40.4389 39.7244 44.614 35.1034 44.8572C28.7495 45.1916 21.3215 28.1263 21.3215 28.1263C21.3215 28.1263 9.75882 30.3254 1.01338 19.9383" stroke="#19292E" stroke-width="2" stroke-linecap="round" stroke-linejoin="round"/>
</g>
</svg>
