<svg width="142" height="93" viewBox="0 0 142 93" fill="none" xmlns="http://www.w3.org/2000/svg">
<g id="Layer-35">
<path id="Vector" opacity="0.3" d="M22.0325 0L13.2602 15.0911L33.5386 15.1812L24.8164 0.130187L22.0225 0H22.0325ZM56.9313 1.83257L49.2105 15.0911L69.4889 15.1812L61.8983 2.09292L56.9213 1.83257H56.9313ZM88.9461 8.59202L85.1508 15.0911L104.258 15.1812C98.8099 12.5776 93.7128 10.3745 88.9461 8.59202ZM4.40785 23.1223L0.00168474 30.753C0.0417408 31.3639 -0.0483844 32.0148 0.0417417 32.5856C0.542442 35.74 1.5839 38.3136 2.83565 40.5668L14.5721 40.6068L4.40785 23.1123V23.1223ZM40.3481 23.1223L30.224 40.5267L50.5023 40.6168L40.3381 23.1223H40.3481ZM76.2984 23.1223L66.1743 40.5267L86.4526 40.6168L76.2884 23.1223H76.2984ZM112.239 23.1223L102.115 40.5267L122.393 40.6168L112.229 23.1223H112.239ZM23.3844 50.0801L16.5348 61.8165L16.2745 67.4444L33.5486 67.5745L23.3844 50.0801ZM59.3247 50.0801L49.2005 67.4444L69.4789 67.5745L59.3147 50.0801H59.3247ZM95.265 50.0801L85.1408 67.4444L105.419 67.5745L95.255 50.0801H95.265ZM131.215 50.0801L121.091 67.4444L141.369 67.5745L131.205 50.0801H131.215ZM40.3481 75.5057L30.224 92.8699L50.5023 93.0001L40.3381 75.5057H40.3481ZM76.2984 75.5057L66.1743 92.8699L86.4526 93.0001L76.2884 75.5057H76.2984ZM112.239 75.5057L102.115 92.8199C108.293 91.6082 114.272 90.1361 119.559 88.1533L112.229 75.5057H112.239Z" fill="white"/>
</g>
</svg>
