<svg width="65" height="58" viewBox="0 0 65 58" fill="none" xmlns="http://www.w3.org/2000/svg">
<path id="Vector" d="M1.00208 34.703C1.00208 34.703 15.6289 0.350048 21.4395 1.01126C25.9778 1.53221 26.8594 7.45306 25.4569 11.6808C23.6035 17.2911 20.4777 24.8349 26.0179 26.7784C31.558 28.722 52.1658 7.87382 57.756 13.1335C63.3863 18.4332 42.8086 32.9397 42.8086 32.9397C42.8086 32.9397 48.1684 29.5936 51.8352 26.0271C55.8826 22.1099 57.7059 18.5834 57.7059 18.5834C57.7059 18.5834 67.1933 24.915 57.235 33.8414C47.8579 42.2468 46.5054 41.5154 46.5054 41.5154C46.5054 41.5154 48.499 40.7941 53.5483 36.8669C59.9901 31.8477 61.6431 28.1009 61.6431 28.1009C61.6431 28.1009 68.3053 37.2677 58.1167 46.5446C41.4662 61.7024 16.5405 55.9118 16.5405 55.9118" stroke="#19292E" stroke-width="2" stroke-linecap="round" stroke-linejoin="round"/>
</svg>
