<svg width="291" height="181" viewBox="0 0 291 181" fill="none" xmlns="http://www.w3.org/2000/svg">
<g id="Layer-4">
<path id="Vector" d="M92.4728 139.686C92.4728 139.686 93.6529 162.578 75.2712 174.179C58.9397 184.49 16.6859 186.961 3.97478 153.508C-8.73637 120.055 9.64528 49.7282 50.449 27.3162C91.2527 4.89418 136.337 -2.89653 171.89 0.933813C208.293 4.86417 261.358 29.3164 277.74 60.4292C294.131 91.542 295.581 128.235 277.74 146.187C260.188 163.839 237.746 162.468 224.365 155.778C210.983 149.087 195.682 133.636 195.682 133.636C195.682 133.636 182.921 151.497 148.418 153.838C108.534 156.548 92.4728 139.686 92.4728 139.686Z" fill="#00B8F1"/>
</g>
</svg>
