<svg width="157" height="108" viewBox="0 0 157 108" fill="none" xmlns="http://www.w3.org/2000/svg">
<g id="Layer-31">
<path id="Vector" opacity="0.3" d="M133.054 0.150036L137.985 4.7312L136.365 14.1836L145.087 9.66245L153.869 14.0736L152.159 4.64118L157 0L133.054 0.150036ZM95.7443 0.380094L94.784 11.0428L96.8645 9.97253L105.677 14.3836L103.966 4.95126L108.808 0.310076L95.7343 0.390098L95.7443 0.380094ZM116.76 29.7275L106.957 31.1779L114.069 37.7996L112.479 47.252L121.201 42.7308L129.983 47.142L128.273 37.7096L135.294 30.9979L125.472 29.6675L121.061 21.0953L116.76 29.7275ZM21.4054 28.2472L20.3552 30.3377L10.5527 31.7881L17.6645 38.4097L16.0741 47.8621L24.7963 43.341L33.5785 47.7521L31.8681 38.3197L38.8899 31.608L29.0674 30.2777L28.0271 28.2372C26.3367 28.0671 24.6563 27.9371 23.0859 28.0071C22.4957 28.0371 21.9756 28.1771 21.4054 28.2372V28.2472ZM64.2563 47.5621L70.0978 44.5213L64.8264 44.1912L64.2663 47.5621H64.2563ZM81.8007 47.452L81.3806 45.2215L76.7995 44.9614L81.7908 47.452H81.8007ZM141.026 62.4858L131.263 63.9362L138.405 70.5579L136.785 80.0103L145.507 75.4891L149.588 77.5497C150.718 72.9085 151.748 68.0472 152.569 62.8159L149.818 62.4258L145.367 53.8537L141.026 62.4858ZM92.8435 62.7959L83.0811 64.2463L90.1929 70.868L88.6025 80.3203L97.2847 75.7992L106.097 80.2103L104.386 70.7779L111.408 64.0662L101.586 62.7359L97.1346 54.1637L92.8335 62.7959H92.8435ZM44.6613 63.096L34.8588 64.5464L42.0007 71.168L40.3802 80.6304L49.1024 76.1093L57.9147 80.5204L56.1742 71.088L63.196 64.3763L53.4135 63.046L48.9624 54.4738L44.6613 63.106V63.096ZM0.200063 55.8742L0 76.8595L0.880228 76.4194L9.69246 80.8305L7.98203 71.3981L15.0038 64.6864L5.18132 63.3561L0.730196 54.7839L0.190051 55.8842L0.200063 55.8742ZM117.18 95.5542L107.377 97.0046L114.489 103.626L114.099 105.977C119.42 105.407 124.622 104.797 128.733 103.866L128.693 103.536L135.714 96.8245L125.892 95.4942L121.481 86.922L117.18 95.5542ZM68.9575 95.8643L59.195 97.3147L66.3068 103.936L65.6366 107.787C70.828 107.837 76.0293 107.897 81.2006 107.837L80.4804 103.846L87.5422 97.1346L77.7197 95.8043L73.2686 87.2321L68.9675 95.8643H68.9575ZM20.7753 96.1644L10.9728 97.6147L18.0846 104.236L17.7645 106.217C21.7355 106.437 27.9171 106.567 32.7783 106.777L32.2882 104.146L39.31 97.4347L29.4875 96.1044L25.0764 87.5322L20.7753 96.1644Z" fill="white"/>
</g>
</svg>
