<svg width="96" height="101" viewBox="0 0 96 101" fill="none" xmlns="http://www.w3.org/2000/svg">
<g id="Group">
<path id="Vector" d="M85.8521 24.0468C87.2505 23.9462 88.6691 24.0971 89.987 24.5499C95.2789 26.3407 97.4017 32.1054 94.7054 37.4375C92.0092 42.7697 85.5 45.6671 80.2081 43.8763C80.0169 43.8059 79.9063 43.6651 79.7151 43.5846C79.8358 46.0796 79.4032 48.7759 77.7935 51.623C73.2964 59.581 63.4169 64.8628 55.7306 63.4141C48.0443 61.9653 45.4386 54.3696 49.9357 46.4116C54.4328 38.4537 64.3123 33.1718 71.9986 34.6206C72.8739 34.7815 73.6787 35.0733 74.4132 35.3852C74.4534 33.9264 74.7351 32.4374 75.4896 30.9484C77.5118 26.9443 81.6669 24.3487 85.842 24.0468H85.8521Z" fill="#F2F2F2"/>
<path id="Vector_2" d="M36.1426 0.0219494C39.3117 -0.229566 42.4104 1.69201 43.8289 5.19311C45.7203 9.8713 43.9597 15.5757 39.8751 17.95C39.7141 18.0405 39.5532 18.0506 39.3922 18.1311C41.0522 19.449 42.5411 21.1996 43.4667 23.8254C46.0221 31.1093 43.8692 40.3148 38.6678 44.3994C33.4765 48.484 27.1987 45.8883 24.6433 38.6145C22.0879 31.3306 24.2409 22.1251 29.4422 18.0506C30.1163 17.5174 30.8105 17.3967 31.5046 17.0848C30.5086 16.2296 29.6133 15.2034 29.0499 13.805C27.1585 9.12682 28.9291 3.3822 33.0037 1.00789C34.0198 0.414314 35.0762 0.122556 36.1325 0.03201L36.1426 0.0219494Z" fill="#F2F2F2"/>
<path id="Vector_3" d="M4.41134 68.9776C5.61861 68.5148 6.96673 69.0883 7.4094 70.2955C7.86213 71.5028 7.23838 72.8811 6.0311 73.3439C4.82383 73.8067 3.50588 73.1729 3.06321 71.9555C2.61048 70.7483 3.20406 69.4303 4.41134 68.9675V68.9776Z" fill="#19292E"/>
<path id="Vector_4" d="M18.4458 68.4343C19.6531 67.9715 21.0013 68.545 21.4439 69.7522C21.8966 70.9595 21.2729 72.3378 20.0656 72.8006C18.8583 73.2634 17.5404 72.6296 17.0877 71.4122C16.6349 70.205 17.2285 68.887 18.4358 68.4242L18.4458 68.4343Z" fill="#19292E"/>
<path id="Vector_5" d="M2.57018 62.1462C2.57018 62.1462 6.33285 62.3173 12.832 57.4781C17.309 54.138 19.5726 49.1076 19.5726 49.1076C19.5726 49.1076 26.1523 62.0154 36.0721 68.6756C45.5592 75.054 58.4972 74.8327 58.4972 74.8327C58.4972 74.8327 59.8554 48.9266 31.2731 42.2966C10.5784 37.4977 2.58024 62.1362 2.58024 62.1362L2.57018 62.1462Z" fill="#F2F2F2"/>
<path id="Vector_6" d="M3.92843 84.0885C-2.99329 69.9131 2.80164 52.7094 16.8765 45.6569C30.9513 38.6044 47.9738 44.3792 54.8956 58.5546C61.8173 72.7301 56.0224 89.9337 41.9475 96.9862C27.8727 104.039 10.8501 98.2639 3.92843 84.0885Z" stroke="#19292E" stroke-width="2" stroke-linecap="round" stroke-linejoin="round"/>
<path id="Vector_7" d="M29.8245 77.2172C30.3477 75.6578 29.5328 73.9777 27.9834 73.4546C26.4441 72.9314 24.764 73.7765 24.2409 75.3359C23.7177 76.8953 24.5326 78.5754 26.082 79.0986C27.6212 79.6217 29.3014 78.7766 29.8245 77.2172Z" fill="#FF3A74"/>
<path id="Vector_8" d="M20.9107 80.5572C20.9107 80.5572 20.0153 83.0824 17.5706 84.4507C14.8744 85.9698 12.4095 85.2455 12.4095 85.2455" stroke="#19292E" stroke-width="2" stroke-linecap="round" stroke-linejoin="round"/>
<path id="Vector_9" d="M11.4941 71.724L8.76768 79.7121L12.8724 78.706" stroke="#19292E" stroke-width="2" stroke-linecap="round" stroke-linejoin="round"/>
<path id="Vector_10" d="M33.9997 56.6532C33.215 55.7478 31.8467 55.6471 30.9413 56.4218L25.3174 61.271C24.4119 62.0558 24.3113 63.424 25.086 64.3295C25.8707 65.2349 27.239 65.3355 28.1444 64.5609L33.7683 59.7116C34.6738 58.9269 34.7744 57.5587 33.9997 56.6532Z" stroke="#FF3A74" stroke-width="2" stroke-linecap="round" stroke-linejoin="round"/>
</g>
</svg>
