<svg width="95" height="71" viewBox="0 0 95 71" fill="none" xmlns="http://www.w3.org/2000/svg">
<path id="Vector" d="M77.5984 0.000590663C80.6478 -0.0296011 83.7273 1.09756 86.0722 3.40219C90.7721 8.01146 90.8425 15.5795 86.2332 20.2794C82.5599 24.0231 74.3981 26.6498 69.1649 26.5794C71.862 29.7495 74.1767 32.9599 75.5856 34.9022C78.796 39.3203 84.6029 38.2636 89.8462 43.4163C99.8195 53.2286 94.1435 67.2376 82.8316 69.9951C71.8419 72.6821 62.2711 62.8296 62.2711 62.8296L67.142 52.0914C67.142 52.0914 60.047 51.3567 54.703 48.3677C49.3591 45.3788 50.0233 35.7677 50.0233 35.7677C50.0233 35.7677 42.4552 36.5426 38.1781 35.335C33.9009 34.1273 30.1773 27.5757 30.1773 27.5757C30.1773 27.5757 29.8653 32.2554 26.0209 35.184C22.2369 38.0623 18.1408 37.2471 18.1408 37.2471C18.1408 37.2471 15.957 42.2489 15.5645 45.4492C14.387 55.0401 20.5964 65.0537 20.5964 65.0537C20.5964 65.0537 19.7611 67.5193 15.5645 68.0225C9.85824 68.717 4.09162 63.2321 2.29018 56.0163C-0.849756 43.4264 3.37709 32.8089 8.50968 28.6022C10.3514 27.0926 12.2434 26.6398 14.0146 26.4989C9.04307 24.6068 3.5683 21.2254 1.65616 17.9848C-1.68506 12.3088 0.186827 5.00235 5.85281 1.66114C11.5289 -1.68008 18.8353 0.191805 22.1765 5.85779C24.4107 9.64182 25.0145 16.2538 24.3503 21.3059C29.5835 16.0525 39.577 10.145 55.5282 16.1934C58.7588 17.4212 61.476 19.3233 63.9618 21.4267C63.6096 15.811 65.8941 6.92456 69.195 3.56321C71.5097 1.21832 74.549 0.0307824 77.5984 0.000590663Z" fill="#FF3A74"/>
</svg>
