<svg width="103" height="83" viewBox="0 0 103 83" fill="none" xmlns="http://www.w3.org/2000/svg">
<g id="Layer-33">
<path id="Vector" opacity="0.29" d="M35.3169 2.48329C37.1293 2.48329 38.7214 1.63216 39.8128 0.350456L30.6306 0C31.7121 1.47195 33.3543 2.48329 35.3169 2.48329ZM68.8213 2.48329C69.9528 2.48329 70.9541 2.08276 71.8553 1.54204L65.4668 1.30173C66.4381 1.99265 67.5396 2.48329 68.8213 2.48329ZM79.1049 18.6748C79.1049 21.9591 81.7384 24.6227 85.0128 24.6227C88.2971 24.6227 90.9607 21.9491 90.9607 18.6748C90.9607 15.3904 88.2871 12.7669 85.0128 12.7669C81.7284 12.7669 79.1049 15.4004 79.1049 18.6748ZM45.6005 18.6748C45.6005 21.9591 48.234 24.6227 51.5083 24.6227C54.7927 24.6227 57.4562 21.9491 57.4562 18.6748C57.4562 15.3904 54.7827 12.7669 51.5083 12.7669C48.224 12.7669 45.6005 15.4004 45.6005 18.6748ZM12.1061 18.6748C12.1061 21.9591 14.7796 24.6227 18.0539 24.6227C21.3383 24.6227 24.0018 21.9491 24.0018 18.6748C24.0018 15.3904 21.3283 12.7669 18.0539 12.7669C14.7796 12.7669 12.1061 15.4004 12.1061 18.6748ZM62.9034 40.8242C62.9034 44.1085 65.537 46.772 68.8113 46.772C72.0956 46.772 74.7592 44.0985 74.7592 40.8242C74.7592 37.5498 72.0856 34.9163 68.8113 34.9163C65.537 34.9163 62.9034 37.5498 62.9034 40.8242ZM29.409 40.8242C29.409 44.1085 32.0425 46.772 35.3169 46.772C38.6012 46.772 41.2647 44.0985 41.2647 40.8242C41.2647 37.5498 38.5912 34.9163 35.3169 34.9163C32.0425 34.9163 29.409 37.5498 29.409 40.8242ZM96.3678 40.8242C96.3678 43.7981 98.6008 46.1913 101.455 46.6218L101.024 35.1867C98.3905 35.7875 96.3779 38.0004 96.3779 40.8242H96.3678ZM3.27435 36.6086C2.54338 39.7027 2.11281 43.2574 1.66221 46.742C1.7323 46.742 1.79238 46.7821 1.86247 46.7821C5.14683 46.7821 7.77031 44.1085 7.77031 40.8342C7.77031 38.2207 6.05804 36.1079 3.71493 35.3169C3.61479 35.7074 3.37448 36.2381 3.28436 36.6186L3.27435 36.6086ZM79.1049 62.9735C79.1049 66.2579 81.7384 68.9214 85.0128 68.9214C88.2971 68.9214 90.9607 66.2479 90.9607 62.9735C90.9607 59.6892 88.2871 57.0256 85.0128 57.0256C81.7284 57.0256 79.1049 59.6992 79.1049 62.9735ZM45.6005 62.9735C45.6005 66.2579 48.234 68.9214 51.5083 68.9214C54.7827 68.9214 57.4562 66.2479 57.4562 62.9735C57.4562 59.6992 54.7827 57.0256 51.5083 57.0256C48.224 57.0256 45.6005 59.6992 45.6005 62.9735ZM12.1061 62.9735C12.1061 66.2579 14.7796 68.9214 18.0539 68.9214C21.3283 68.9214 24.0018 66.2479 24.0018 62.9735C24.0018 59.6992 21.3283 57.0256 18.0539 57.0256C14.7696 57.0256 12.1061 59.6992 12.1061 62.9735ZM96.7984 83.0001H102.907L102.746 79.2952C102.596 79.2852 102.466 79.2151 102.316 79.2151C99.7824 79.2151 97.6495 80.7671 96.7984 83.0001ZM63.334 83.0001H74.3286C73.4775 80.7771 71.3447 79.2151 68.8113 79.2151C66.2779 79.2151 64.1852 80.7671 63.334 83.0001ZM29.8396 83.0001H40.8342C39.983 80.7771 37.8502 79.2151 35.3169 79.2151C32.7835 79.2151 30.6907 80.7671 29.8396 83.0001ZM0 79.5756C0.0200266 80.1463 0 83.0001 0 83.0001H7.32972C6.47859 80.7771 4.38582 79.2151 1.85246 79.2151C1.20159 79.2151 0.590784 79.3753 0 79.5655V79.5756Z" fill="#F2F2F2"/>
</g>
</svg>
