<svg width="161" height="114" viewBox="0 0 161 114" fill="none" xmlns="http://www.w3.org/2000/svg">
<g id="Layer-19">
<path id="Vector" d="M18.0076 21.7644C31.2198 10.497 48.3316 5.0136 65.5435 8.5021C68.4406 9.09354 78.6054 10.517 87.8279 15.9302C93.1609 16.5617 99.757 13.8652 105.21 11.3591C112.418 8.04097 114.333 2.71799 127.595 0.352225C145.238 -2.79545 161.097 15.6295 150.621 36.6106C147.614 42.6353 138.702 54.4742 127.595 58.0228C136.316 58.6444 149.859 60.7595 155.403 67.0749C168.625 82.1417 155.403 102.571 146.711 106.17C118.312 117.919 85.9132 106.1 85.9132 106.1C85.9132 106.1 60.4511 118.159 38.2169 112.295C16.7345 106.621 5.81791 92.7676 2.37952 79.2045C-4.397 52.5094 4.07365 33.6534 18.0177 21.7544L18.0076 21.7644Z" fill="#E6E6E6"/>
</g>
</svg>
