<svg width="154" height="127" viewBox="0 0 154 127" fill="none" xmlns="http://www.w3.org/2000/svg">
<path id="Vector" opacity="0.31" d="M106.598 0C110.566 1.11228 114.364 2.55523 117.982 4.36895C118.272 5.19063 118.513 6.04238 118.513 6.96427C118.513 11.4034 114.885 14.9807 110.446 14.9807C106.007 14.9807 102.43 11.4034 102.43 6.96427C102.43 3.9481 104.153 1.38283 106.608 0H106.598ZM69.9632 0.621282C71.8972 2.0943 73.2299 4.3389 73.2299 6.96427C73.2299 11.4034 69.6526 14.9807 65.2135 14.9807C60.7744 14.9807 57.147 11.4034 57.147 6.96427C57.147 6.65363 57.3073 6.40312 57.3374 6.10251C61.2755 3.78777 65.5342 2.05421 69.9632 0.631297V0.621282ZM132.341 28.8591C136.78 28.8591 140.407 32.4464 140.407 36.8755C140.407 41.3046 136.78 44.8919 132.341 44.8919C127.902 44.8919 124.325 41.3046 124.325 36.8755C124.325 32.4464 127.912 28.8591 132.341 28.8591ZM87.1083 28.8591C91.5474 28.8591 95.1248 32.4464 95.1248 36.8755C95.1248 41.3046 91.5374 44.8919 87.1083 44.8919C82.6793 44.8919 79.0418 41.3046 79.0418 36.8755C79.0418 32.4464 82.6693 28.8591 87.1083 28.8591ZM41.8256 28.8591C46.2647 28.8591 49.842 32.4464 49.842 36.8755C49.842 41.3046 46.2647 44.8919 41.8256 44.8919C37.3865 44.8919 33.7591 41.3046 33.7591 36.8755C33.7591 32.4464 37.3865 28.8591 41.8256 28.8591ZM110.436 58.7703C114.875 58.7703 118.503 62.3978 118.503 66.8368C118.503 71.2759 114.875 74.8533 110.436 74.8533C105.997 74.8533 102.42 71.2659 102.42 66.8368C102.42 62.4078 105.997 58.7703 110.436 58.7703ZM65.2135 58.7703C69.6526 58.7703 73.2299 62.3978 73.2299 66.8368C73.2299 71.2759 69.6526 74.8533 65.2135 74.8533C60.7744 74.8533 57.147 71.2659 57.147 66.8368C57.147 62.3978 60.7744 58.7703 65.2135 58.7703ZM19.9308 58.7703C24.3699 58.7703 27.9472 62.3978 27.9472 66.8368C27.9472 71.2759 24.3599 74.8533 19.9308 74.8533C15.5017 74.8533 11.8643 71.2659 11.8643 66.8368C11.8643 62.4078 15.4917 58.7703 19.9308 58.7703ZM153.274 59.2513C153.304 59.9828 153.464 60.6742 153.464 61.4157C153.464 65.424 152.783 69.5624 151.731 73.6608C149.356 72.268 147.702 69.7929 147.702 66.8469C147.702 63.2796 150.057 60.3135 153.274 59.2613V59.2513ZM132.341 88.7317C136.78 88.7317 140.407 92.309 140.407 96.7481C140.407 101.187 136.78 104.764 132.341 104.764C127.902 104.764 124.325 101.187 124.325 96.7481C124.325 92.309 127.912 88.7317 132.341 88.7317ZM87.1083 88.7317C91.5474 88.7317 95.1248 92.309 95.1248 96.7481C95.1248 101.187 91.5374 104.764 87.1083 104.764C82.6793 104.764 79.0418 101.187 79.0418 96.7481C79.0418 92.309 82.6693 88.7317 87.1083 88.7317ZM41.8256 88.7317C46.2647 88.7317 49.842 92.309 49.842 96.7481C49.842 101.187 46.2647 104.764 41.8256 104.764C37.3865 104.764 33.7591 101.187 33.7591 96.7481C33.7591 92.309 37.3865 88.7317 41.8256 88.7317ZM0 89.5534C2.6855 90.846 4.55933 93.5716 4.55933 96.7581C4.55933 97.1289 4.41905 97.4495 4.36895 97.8102C4.1986 97.5497 3.89798 97.2892 3.74767 97.0387C2.18447 94.5135 1.02209 91.9984 0 89.5534ZM110.436 118.653C112.22 118.653 113.803 119.354 115.146 120.336C111.388 121.87 107.29 123.122 102.951 124.134C104.023 120.968 106.909 118.663 110.436 118.663V118.653ZM65.2135 118.653C69.6526 118.653 73.2299 122.24 73.2299 126.669C73.2299 126.79 73.1898 126.89 73.1798 127C70.5244 126.97 67.9191 126.97 65.1634 126.81C62.4779 126.649 59.8826 126.238 57.2873 125.848C57.7182 121.819 61.065 118.643 65.2135 118.643V118.653Z" fill="white"/>
</svg>
