<svg width="59" height="48" viewBox="0 0 59 48" fill="none" xmlns="http://www.w3.org/2000/svg">
<g id="Group">
<path id="Vector" d="M57.6935 24.2262C57.6935 24.2262 52.3147 15.9973 44.156 10.0163C35.4756 3.654 25.8719 -1.56432 23.7143 2.35945C20.3826 8.43076 36.9507 19.61 36.9507 19.61C36.9507 19.61 34.4018 23.3832 33.5388 27.297C32.6757 31.2107 33.7395 36.0076 33.7395 36.0076" stroke="#19292E" stroke-width="2" stroke-linecap="round" stroke-linejoin="round"/>
<path id="Vector_2" d="M31.7525 15.8468C31.7525 15.8468 8.84208 9.63501 4.86814 14.5723C0.904224 19.5097 25.7715 25.5509 25.7715 25.5509C25.7715 25.5509 1.84753 23.7847 1.02464 29.1936C0.201757 34.6026 24.2662 34.7933 24.2662 34.7933C24.2662 34.7933 3.04172 35.2148 4.23591 41.266C5.13908 45.8822 22.0986 46.9259 33.7495 46.9961C40.0115 47.0262 53.559 44.4873 53.559 44.4873" stroke="#19292E" stroke-width="2" stroke-linecap="round" stroke-linejoin="round"/>
</g>
</svg>
