<svg width="179" height="59" viewBox="0 0 179 59" fill="none" xmlns="http://www.w3.org/2000/svg">
<g id="Group">
<path id="Vector" d="M35.1298 57.9992L1.00085 29.7753" stroke="#FF2A58" stroke-width="2" stroke-linecap="round" stroke-linejoin="round"/>
<path id="Vector_2" d="M8.59746 1.86156C8.27719 2.42204 8.19712 3.12264 8.59746 3.74317L37.482 27.0629C37.482 27.133 39.1534 29.9554 39.8239 31.9371C40.5946 34.199 41.055 37.1415 41.115 40.7746C41.1951 45.6187 40.4745 49.1417 39.3235 51.5537C39.0733 52.0742 38.8331 52.4645 38.6029 52.7848C38.4928 52.9349 38.4628 53.015 38.4628 53.005C38.0925 53.3452 37.8323 53.8156 37.8423 54.3561C37.8623 55.387 38.7731 56.2077 39.8239 56.1977L166.792 54.1759C173.547 54.0658 179.052 49.2718 178.952 43.2667L178.802 33.8887C178.752 30.666 177.15 26.9929 174.298 24.6309L139.028 0.760624C138.207 0.270208 137.637 0 137.036 0L10.2589 0.900758C9.50823 0.900758 8.91773 1.30109 8.59746 1.86156Z" fill="#E6E6E6"/>
<path id="Vector_3" d="M31.4868 36.9414L13.1313 22.0688" stroke="#FF2A58" stroke-width="2" stroke-linecap="round" stroke-linejoin="round"/>
<path id="Vector_4" d="M31.4868 44.8682L13.6317 30.3959" stroke="#FF2A58" stroke-width="2" stroke-linecap="round" stroke-linejoin="round"/>
<path id="Vector_5" d="M5.05449 3.60315C8.46738 6.3655 7.08621 29.8554 4.45397 32.0773" stroke="#FF2A58" stroke-width="2" stroke-linecap="round" stroke-linejoin="round"/>
</g>
</svg>
