<svg width="51" height="47" viewBox="0 0 51 47" fill="none" xmlns="http://www.w3.org/2000/svg">
<path id="Vector" d="M3.30805 13.7142C3.30805 13.7142 29.3313 -1.17202 32.499 1.27393C34.9751 3.18858 33.4714 6.42646 31.9076 7.92009C28.0983 11.5589 19.7881 14.5161 24.1287 18.8567C25.5521 20.2802 29.6521 20.21 35.356 18.8066C40.9195 17.4332 46.1823 14.9472 46.9843 17.8141C47.6559 20.2 43.9569 23.2173 38.8946 25.4528C34.0628 27.5879 28.5294 28.0891 28.5294 28.0891C28.5294 28.0891 32.7095 28.9212 40.3682 27.2371C44.4481 26.3449 47.8263 24.4302 49.2398 25.152C50.9138 26.0041 50.4126 32.1189 41.5009 34.5749C32.5893 37.0209 28.9404 35.6275 28.9404 35.6275C28.9404 35.6275 32.4088 37.5121 38.0225 37.091C43.0948 36.7101 45.9116 35.5874 46.9542 37.091C48.127 38.8052 46.7537 43.6169 36.6792 44.87C15.1468 47.5364 1.00244 33.3519 1.00244 33.3519" stroke="#19292E" stroke-width="2" stroke-linecap="round" stroke-linejoin="round"/>
</svg>
