<svg width="55" height="56" viewBox="0 0 55 56" fill="none" xmlns="http://www.w3.org/2000/svg">
<path id="Vector" d="M26.5216 54.9984C26.5216 54.9984 7.02104 39.0434 3.38533 30.6402C-0.260391 22.237 0.30049 11.7305 4.89771 10.0378C5.23824 9.90763 5.36844 16.7684 8.80384 22.3772C12.2492 27.986 15.4943 30.4799 15.4943 30.4799C15.4943 30.4799 12.5497 28.607 8.80384 21.8464C5.35843 15.6366 3.6858 9.2466 6.95093 5.58085C10.186 1.95516 13.4011 13.2429 16.0853 17.5296C18.7595 21.8163 22.6556 25.8927 22.6556 25.8927C22.6556 25.8927 17.9883 22.1468 14.4026 14.0241C11.6082 7.68414 11.5181 5.09008 14.4126 1.96517C17.6477 -1.53032 20.6124 5.1001 24.859 11.9709C29.3761 19.2824 36.3571 29.909 40.7139 28.9074C44.1693 28.1162 43.0977 22.0467 44.8304 16.3377C46.5631 10.6288 49.4576 7.94455 51.9816 9.61718C54.5156 11.2898 53.7344 25.1415 52.7128 32.2928C51.6811 39.444 50.2889 44.7123 50.2889 44.7123" stroke="#19292E" stroke-width="2" stroke-linecap="round" stroke-linejoin="round"/>
</svg>
