<svg width="183" height="56" viewBox="0 0 183 56" fill="none" xmlns="http://www.w3.org/2000/svg">
<g id="Group">
<path id="Vector" d="M7.89972 1.8068C7.57851 2.34884 7.48817 3.04146 7.89972 3.65376L37.5914 26.4596C37.5914 26.5198 39.3079 29.2902 40.0005 31.2275C40.7935 33.4358 41.2652 36.3166 41.3255 39.87C41.4058 44.5978 40.673 48.0508 39.4785 50.4097C39.2175 50.9216 38.9666 51.303 38.7357 51.6041C38.6153 51.7547 38.5852 51.825 38.5852 51.825C38.2037 52.1562 37.9427 52.618 37.9528 53.15C37.9728 54.1638 38.9064 54.9668 39.9905 54.9467L170.491 52.9693C177.438 52.8589 183.099 48.1712 182.998 42.2992L182.838 33.1347C182.778 29.9828 181.141 26.3893 178.21 24.0806L141.954 0.7428C141.111 0.271025 140.529 0 139.916 0L9.60613 0.883328C8.84326 0.883328 8.22093 1.2748 7.89972 1.82688V1.8068Z" fill="#00B8F1"/>
<path id="Vector_2" d="M5.61118 3.67373C8.03028 7.97993 6.76551 23.6088 3.07161 28.0655" stroke="#00B8F1" stroke-width="2" stroke-linecap="round" stroke-linejoin="round"/>
<path id="Vector_3" d="M36.0858 54.9467L1.00378 27.3429" stroke="#00B8F1" stroke-width="2" stroke-linecap="round" stroke-linejoin="round"/>
<path id="Vector_4" d="M32.4923 33.4257L9.8873 15.9901" stroke="#00B8F1" stroke-width="2" stroke-linecap="round" stroke-linejoin="round"/>
<path id="Vector_5" d="M32.4923 41.1447L9.8873 23.7091" stroke="#00B8F1" stroke-width="2" stroke-linecap="round" stroke-linejoin="round"/>
</g>
</svg>
