<svg width="40" height="44" viewBox="0 0 40 44" fill="none" xmlns="http://www.w3.org/2000/svg">
<path id="Vector" d="M19.4624 0.562677C19.0103 0.964586 18.7189 1.55739 18.7189 2.21049V7.57598C16.3677 7.71665 14.2476 8.22908 12.3788 9.08314C10.1683 10.0879 8.32956 11.5448 6.83245 13.273C5.83772 14.4285 4.99371 15.7046 4.28032 17.051C3.32579 18.8495 2.5923 20.7887 2.01958 22.7882C1.25596 25.4609 0.783717 28.2441 0.482286 30.9771C0.0803774 34.6345 0 38.2114 0 41.3162C0 41.9693 0.291374 42.5621 0.743521 42.964C1.13538 43.3157 1.64782 43.5267 2.22054 43.5267C2.79326 43.5267 3.30569 43.3056 3.69755 42.954C4.1497 42.5521 4.43104 41.9592 4.43104 41.3061C4.43104 37.8397 4.54157 33.8407 5.0741 29.9321C5.59658 26.0336 6.5511 22.2456 8.1286 19.2414C9.17356 17.2318 10.4798 15.574 12.0974 14.3582C13.0218 13.6649 14.0567 13.1022 15.2424 12.6903C16.5988 12.2281 18.1663 11.9568 19.9949 11.9568C22.3461 11.9568 24.2652 12.3888 25.8628 13.1123C27.4604 13.8357 28.7766 14.8606 29.902 16.1567C30.6455 17.0208 31.3087 18.0156 31.8914 19.1108C32.6651 20.5677 33.2881 22.2155 33.7804 23.9839C34.4436 26.335 34.8656 28.8771 35.1368 31.4393C35.4986 34.8555 35.5689 38.2818 35.5689 41.3061C35.5689 41.9592 35.8502 42.5521 36.3024 42.954C36.6942 43.3056 37.2167 43.5267 37.7794 43.5267C38.3421 43.5267 38.8645 43.3157 39.2564 42.964C39.7086 42.5621 39.9999 41.9693 39.9999 41.3162C39.9999 37.7593 39.8995 33.5694 39.3468 29.3594C38.7942 25.1494 37.7894 20.8992 35.8804 17.2017C34.6043 14.74 32.8962 12.5195 30.6355 10.8214C29.3393 9.85681 27.8724 9.06304 26.2346 8.51041C25.2599 8.17884 24.225 7.92764 23.1298 7.76688V2.22055C23.1298 1.56745 22.8384 0.974628 22.3863 0.572719C21.9944 0.221049 21.472 0 20.9093 0C20.3466 0 19.8241 0.211002 19.4323 0.572719L19.4624 0.562677Z" fill="#00243A"/>
</svg>
