<svg width="156" height="122" viewBox="0 0 156 122" fill="none" xmlns="http://www.w3.org/2000/svg">
<g id="Layer-7">
<path id="Vector" opacity="0.3" d="M63.7936 0C61.5547 1.22487 59.9784 3.5441 59.9784 6.28499C59.9784 10.2909 63.2113 13.5639 67.2172 13.5639C71.2231 13.5639 74.456 10.2909 74.456 6.28499C74.456 4.73885 73.8837 3.38345 73.0705 2.20878C70.1488 1.18471 67.0365 0.501995 63.7936 0ZM32.4992 2.6907C27.9109 4.12641 23.6741 6.38539 19.7987 9.27688C20.9433 11.7768 23.4131 13.5639 26.3447 13.5639C30.3506 13.5639 33.5835 10.2909 33.5835 6.28499C33.5835 4.94969 33.1317 3.76497 32.4992 2.6907ZM5.24083 26.0937C3.12241 29.8788 1.35539 33.9148 0 38.232C1.32527 39.6476 3.15253 40.5713 5.24083 40.5713C9.24676 40.5713 12.4796 37.3384 12.4796 33.3325C12.4796 29.3266 9.24676 26.0937 5.24083 26.0937ZM46.1133 26.0937C42.1074 26.0937 38.8745 29.3266 38.8745 33.3325C38.8745 37.3384 42.1074 40.5713 46.1133 40.5713C50.1192 40.5713 53.3521 37.3384 53.3521 33.3325C53.3521 29.3266 50.1192 26.0937 46.1133 26.0937ZM86.9858 26.0937C82.9799 26.0937 79.747 29.3266 79.747 33.3325C79.747 37.3384 82.9799 40.5713 86.9858 40.5713C90.9917 40.5713 94.2246 37.3384 94.2246 33.3325C94.2246 29.3266 90.9917 26.0937 86.9858 26.0937ZM26.3447 53.091C22.3388 53.091 19.1059 56.3239 19.1059 60.3298C19.1059 64.3357 22.3388 67.6087 26.3447 67.6087C30.3506 67.6087 33.5835 64.3357 33.5835 60.3298C33.5835 56.3239 30.3506 53.091 26.3447 53.091ZM67.2172 53.091C63.2113 53.091 59.9784 56.3239 59.9784 60.3298C59.9784 64.3357 63.2113 67.6087 67.2172 67.6087C71.2231 67.6087 74.456 64.3357 74.456 60.3298C74.456 56.3239 71.2231 53.091 67.2172 53.091ZM105.801 53.573C102.929 54.5468 100.811 57.1472 100.811 60.3298C100.811 63.0305 102.377 65.3197 104.586 66.5746C105.118 63.9944 105.7 59.9985 105.801 53.573ZM5.24083 80.1386C3.63445 80.1386 2.2389 80.7711 1.03411 81.6546C3.44369 86.0822 6.83718 89.4456 10.5218 92.2266C11.7065 90.9415 12.4696 89.2648 12.4696 87.3673C12.4696 83.3614 9.23672 80.1285 5.23079 80.1285L5.24083 80.1386ZM46.1133 80.1386C42.1074 80.1386 38.8745 83.3714 38.8745 87.3773C38.8745 91.3833 42.1074 94.6161 46.1133 94.6161C50.1192 94.6161 53.3521 91.3833 53.3521 87.3773C53.3521 83.3714 50.1192 80.1386 46.1133 80.1386ZM86.9858 80.1386C82.9799 80.1386 79.747 83.3714 79.747 87.3773C79.747 91.3833 82.9799 94.6161 86.9858 94.6161C90.9917 94.6161 94.2246 91.3833 94.2246 87.3773C94.2246 83.3714 90.9917 80.1386 86.9858 80.1386ZM127.858 80.1386C123.852 80.1386 120.619 83.3714 120.619 87.3773C120.619 91.3833 123.852 94.6161 127.858 94.6161C131.864 94.6161 135.097 91.3833 135.097 87.3773C135.097 83.3714 131.864 80.1386 127.858 80.1386ZM67.2172 107.146C63.2113 107.146 59.9784 110.379 59.9784 114.385C59.9784 118.391 63.2113 121.664 67.2172 121.664C71.2231 121.664 74.456 118.391 74.456 114.385C74.456 110.379 71.2231 107.146 67.2172 107.146ZM108.1 107.146C104.094 107.146 100.821 110.379 100.821 114.385C100.821 118.391 104.094 121.664 108.1 121.664C112.106 121.664 115.338 118.391 115.338 114.385C115.338 110.379 112.106 107.146 108.1 107.146ZM148.972 107.146C144.966 107.146 141.693 110.379 141.693 114.385C141.693 116.473 142.607 118.34 144.033 119.676C149.454 117.537 153.922 115.399 156 113.391C155.498 109.887 152.627 107.146 148.982 107.146H148.972Z" fill="white"/>
</g>
</svg>
