<svg width="7" height="27" viewBox="0 0 7 27" fill="none" xmlns="http://www.w3.org/2000/svg">
<path id="Vector" d="M3.38134 0C3.37118 4.02105 3.32042 7.72732 3.16811 10.9868C3.00564 14.6931 2.70102 17.8206 2.23393 20.1154C1.91915 21.6385 1.51298 22.7961 1.11696 23.446C0.893572 23.8217 0.680337 24.0146 0.548333 24.0958C0.507717 24.1161 0.477254 24.1365 0.436637 24.1466C0.304633 24.0248 0.162467 23.9232 0 23.842C0.152312 23.9232 0.304633 24.0248 0.436637 24.1466C0.76157 24.4411 1.01542 24.8371 1.11696 25.294L1.3099 26.1165C1.38097 26.411 1.39113 26.7156 1.34036 26.9999C1.8176 26.8476 2.25423 26.5937 2.60963 26.279C3.06656 25.883 3.42196 25.4057 3.73674 24.8777C4.34599 23.8115 4.76231 22.5219 5.09739 20.9785C5.32078 19.9529 5.50355 18.8157 5.64571 17.5667C6.19403 12.977 6.33621 6.92515 6.35651 0.0101641C5.9605 0.36556 5.44264 0.578795 4.86385 0.578795C4.28506 0.578795 3.7672 0.355396 3.37119 0H3.38134Z" fill="white"/>
</svg>
