<svg width="102" height="75" viewBox="0 0 102 75" fill="none" xmlns="http://www.w3.org/2000/svg">
<g id="Group">
<path id="Vector" d="M1.47729 25.9683C2.05012 25.9683 2.56265 26.1793 2.95458 26.5411V6.39165C1.95967 6.88408 0.964761 7.37651 0 7.88904V26.5411C0.391934 26.1894 0.914514 25.9683 1.47729 25.9683Z" fill="white"/>
<path id="Vector_2" d="M92.3757 17.2853C92.2752 17.9888 92.2049 18.7827 92.1044 19.647C92.0542 20.1092 91.9939 20.5916 91.9336 21.0941C90.2955 19.5264 88.5067 18.3003 86.6475 17.4159C83.9642 16.1396 81.1504 15.5467 78.447 15.5467C75.8944 15.5467 73.4423 16.0793 71.3017 17.0743C69.1612 18.0692 67.3221 19.5364 66.0458 21.4358C65.1916 22.692 64.5987 24.1391 64.3474 25.7169C64.2469 26.34 64.1967 26.953 64.1967 27.556C64.1967 28.8021 64.4178 29.988 64.8298 31.0733C65.2418 32.1587 65.8448 33.1335 66.5985 33.9877C68.0959 35.6962 70.146 36.8921 72.4675 37.5855C74.0151 38.0478 75.6834 38.289 77.4119 38.289C78.8088 38.289 80.2459 38.1382 81.683 37.8166C83.7834 37.3543 85.5722 36.6207 87.0896 35.6761C88.6071 34.7415 89.8332 33.6058 90.8181 32.3597C91.9939 30.8824 92.8179 29.2745 93.4209 27.6665C94.9987 30.199 96.2147 33.023 97.0789 36.0278C98.2346 40.0476 98.7773 44.3991 98.7773 48.831C98.7773 54.7602 97.8126 60.8201 96.084 66.3474C95.3102 68.8397 94.3756 71.2315 93.3204 73.4525C94.255 73.8243 95.1092 74.3469 95.863 75.0001C97.0388 72.5681 98.0638 69.9552 98.908 67.2318C100.717 61.4231 101.732 55.0919 101.732 48.841C101.732 44.178 101.169 39.5552 99.923 35.2238C98.7472 31.1336 96.9584 27.3047 94.4661 23.9783C94.7877 22.4106 94.9585 20.9333 95.0992 19.6972C95.1796 18.9234 95.2499 18.24 95.3303 17.7074C96.0036 12.8333 96.3152 8.42156 96.3152 4.43187C96.3152 3.19577 96.275 2.00992 96.2147 0.854214C95.2097 0.552726 94.2148 0.261289 93.2099 0C93.3003 1.40694 93.3506 2.88423 93.3506 4.44192C93.3506 8.28086 93.0491 12.5519 92.3958 17.3155L92.3757 17.2853ZM89.8533 28.4102C89.2001 29.6764 88.3459 30.8523 87.2404 31.8673C85.7531 33.224 83.7833 34.3093 81.0398 34.9223C79.8137 35.1937 78.5877 35.3243 77.4119 35.3243C75.7738 35.3243 74.2161 35.0731 72.8494 34.6008C71.4826 34.1284 70.3068 33.4551 69.3923 32.6109C68.7793 32.0482 68.2869 31.4251 67.9251 30.7317C67.4326 29.8071 67.1613 28.7619 67.1613 27.556C67.1613 27.1239 67.2015 26.6716 67.2719 26.1892C67.4628 25.0436 67.8849 24.0085 68.508 23.0839C69.131 22.1594 69.9551 21.3453 70.95 20.662C72.9398 19.2952 75.5929 18.5013 78.457 18.5013C80.7182 18.5013 83.1 18.9937 85.3812 20.0891C87.4816 21.0941 89.4915 22.5915 91.2603 24.6818C90.9286 25.948 90.4864 27.2143 89.8633 28.4102H89.8533Z" fill="white"/>
</g>
</svg>
