<svg width="165" height="114" viewBox="0 0 165 114" fill="none" xmlns="http://www.w3.org/2000/svg">
<g id="Group">
<path id="Vector" opacity="0.3" d="M42.5535 18.6163C47.742 18.6163 51.947 14.4113 51.947 9.22281C51.947 6.80419 51.0237 4.60636 49.5284 2.94042C44.3801 4.37553 38.77 6.62354 33.2102 10.116C33.6618 14.883 37.6761 18.6063 42.5636 18.6063L42.5535 18.6163Z" fill="white"/>
<path id="Vector_2" opacity="0.3" d="M75.3777 26.383C80.4281 25.1966 83.5604 20.1406 82.374 15.0902C81.1876 10.0398 76.1316 6.90746 71.0812 8.09388C66.0308 9.2803 62.8985 14.3362 64.0849 19.3867C65.2713 24.4371 70.3273 27.5694 75.3777 26.383Z" fill="white"/>
<path id="Vector_3" opacity="0.3" d="M70.0123 46.4755C72.0101 41.6877 69.7484 36.1869 64.9607 34.189C60.1729 32.1912 54.6721 34.4528 52.6742 39.2406C50.6764 44.0284 52.938 49.5292 57.7258 51.5271C62.5136 53.5249 68.0144 51.2632 70.0123 46.4755Z" fill="white"/>
<path id="Vector_4" opacity="0.3" d="M10.8949 75.4712C16.0162 74.6427 19.4962 69.8194 18.6676 64.6981C17.8391 59.5768 13.0158 56.0969 7.89447 56.9254C2.77318 57.754 -0.706777 62.5773 0.121775 67.6986C0.950326 72.8198 5.77363 76.2998 10.8949 75.4712Z" fill="white"/>
<path id="Vector_5" opacity="0.3" d="M32.4173 58.3606C37.4677 57.1741 40.6001 52.1182 39.4137 47.0678C38.2273 42.0174 33.1713 38.885 28.1209 40.0714C23.0705 41.2579 19.9381 46.3138 21.1246 51.3642C22.311 56.4146 27.3669 59.547 32.4173 58.3606Z" fill="white"/>
<path id="Vector_6" opacity="0.3" d="M51.3047 81.0591C56.4926 81.0591 60.6982 76.8535 60.6982 71.6656C60.6982 66.4777 56.4926 62.2721 51.3047 62.2721C46.1168 62.2721 41.9112 66.4777 41.9112 71.6656C41.9112 76.8535 46.1168 81.0591 51.3047 81.0591Z" fill="white"/>
<path id="Vector_7" opacity="0.3" d="M162.22 80.3191C164.193 75.521 161.902 70.032 157.104 68.0593C152.306 66.0865 146.817 68.377 144.844 73.1751C142.872 77.9733 145.162 83.4622 149.96 85.435C154.758 87.4077 160.247 85.1173 162.22 80.3191Z" fill="white"/>
<path id="Vector_8" opacity="0.3" d="M77.8794 85.6756C72.6909 85.6756 68.4859 89.8806 68.4859 95.0691C68.4859 96.153 68.6766 97.1867 69.0178 98.1601C69.339 97.3874 69.5296 96.7551 69.6501 96.3336L87.2127 96.1229C87.2528 95.7817 87.2729 95.4304 87.2729 95.0691C87.2729 89.8806 83.0679 85.6756 77.8794 85.6756Z" fill="white"/>
<path id="Vector_9" opacity="0.3" d="M106.431 89.9205C111.619 89.9205 115.825 85.7149 115.825 80.527C115.825 75.3392 111.619 71.1335 106.431 71.1335C101.244 71.1335 97.0379 75.3392 97.0379 80.527C97.0379 85.7149 101.244 89.9205 106.431 89.9205Z" fill="white"/>
<path id="Vector_10" opacity="0.3" d="M83.3089 70.9028C88.4968 70.9028 92.7024 66.6972 92.7024 61.5093C92.7024 56.3214 88.4968 52.1158 83.3089 52.1158C78.121 52.1158 73.9154 56.3214 73.9154 61.5093C73.9154 66.6972 78.121 70.9028 83.3089 70.9028Z" fill="white"/>
<path id="Vector_11" opacity="0.3" d="M107.207 38.0888C109.404 33.3889 107.375 27.7982 102.675 25.6016C97.9749 23.405 92.3841 25.4343 90.1875 30.1342C87.9909 34.8341 90.0203 40.4248 94.7202 42.6214C99.4201 44.818 105.011 42.7887 107.207 38.0888Z" fill="white"/>
<path id="Vector_12" opacity="0.3" d="M110.978 13.9096C115.745 13.9096 119.669 10.3569 120.281 5.76055C113.818 2.93046 107.887 1.56559 103.28 0.933336C103.12 0.612191 102.939 0.301074 102.738 0C101.996 1.3448 101.574 2.88028 101.574 4.52615C101.574 9.71465 105.779 13.9196 110.968 13.9196L110.978 13.9096Z" fill="white"/>
<path id="Vector_13" opacity="0.3" d="M127.506 23.2428C127.506 28.4313 131.711 32.6363 136.9 32.6363C141.366 32.6363 145.089 29.5151 146.053 25.3503C142.299 20.8844 138.385 17.2012 134.471 14.1804C130.467 15.2543 127.506 18.8973 127.506 23.2428Z" fill="white"/>
<path id="Vector_14" opacity="0.3" d="M127.534 66.0666C132.655 65.2381 136.135 60.4148 135.307 55.2935C134.478 50.1722 129.655 46.6922 124.534 47.5208C119.412 48.3493 115.932 53.1726 116.761 58.2939C117.589 63.4152 122.413 66.8952 127.534 66.0666Z" fill="white"/>
<path id="Vector_15" opacity="0.3" d="M149.354 54.3237C149.354 59.5122 153.559 63.7172 158.748 63.7172C161.156 63.7172 163.334 62.804 165 61.3187C163.565 55.7087 161.297 50.1689 158.668 44.9302C153.519 44.9704 149.354 49.1553 149.354 54.3237Z" fill="white"/>
<path id="Vector_16" opacity="0.3" d="M139.158 90.4124C139.158 85.2239 134.953 81.0189 129.765 81.0189C124.576 81.0189 120.371 85.2239 120.371 90.4124C120.371 92.3694 120.973 94.1959 121.997 95.7012L126.102 95.6511C126.102 95.6511 128.48 97.0059 133.086 99.294C135.967 98.2001 139.148 94.5672 139.148 90.4124H139.158Z" fill="white"/>
<path id="Vector_17" opacity="0.3" d="M47.4413 99.8862C42.2528 99.8862 38.0478 104.091 38.0478 109.28C38.0478 110.745 38.399 112.13 38.9912 113.374C46.5481 113.966 52.3287 112.792 56.7043 110.795C56.7846 110.303 56.8348 109.802 56.8348 109.28C56.8348 104.091 52.6298 99.8862 47.4413 99.8862Z" fill="white"/>
<path id="Vector_18" opacity="0.3" d="M28.1724 97.2568C33.3603 97.2568 37.5659 93.0511 37.5659 87.8633C37.5659 82.6754 33.3603 78.4698 28.1724 78.4698C22.9845 78.4698 18.7789 82.6754 18.7789 87.8633C18.7789 93.0511 22.9845 97.2568 28.1724 97.2568Z" fill="white"/>
<path id="Vector_19" opacity="0.3" d="M26.3862 26.625C26.3862 23.4136 24.7704 20.5835 22.3217 18.8874C18.3074 22.9619 14.5239 27.9297 11.182 33.9913C12.7777 35.2558 14.7948 36.0185 16.9927 36.0185C22.1812 36.0185 26.3862 31.8135 26.3862 26.625Z" fill="white"/>
</g>
</svg>
