<svg width="82" height="50" viewBox="0 0 82 50" fill="none" xmlns="http://www.w3.org/2000/svg">
<path id="Vector" d="M17.2565 23.4811C17.2565 23.4811 15.6237 14.6456 29.2776 9.73705C42.9315 4.82845 51.236 8.66518 51.236 8.66518L63.6177 1.00175L80.9981 27.0073L64.4391 32.2364C64.4391 32.2364 58.0579 38.858 50.2943 43.416C42.5308 47.984 33.6352 50.4784 30.4797 47.0223C27.3241 43.5663 34.0559 38.6577 34.0559 38.6577C34.0559 38.6577 26.0619 42.0937 24.1285 38.1067C22.1952 34.1197 30.0489 30.243 30.0489 30.243C30.0489 30.243 3.63266 44.6382 1.30859 39.8498C-1.01548 35.0614 9.90364 26.1257 34.8373 17.0398" stroke="#19292E" stroke-width="2" stroke-linecap="round" stroke-linejoin="round"/>
</svg>
