<svg width="166" height="118" viewBox="0 0 166 118" fill="none" xmlns="http://www.w3.org/2000/svg">
<path id="Vector" d="M164.478 73.3838C162.628 62.6332 158.248 51.5627 152.707 42.1722C136.457 14.6108 114.115 7.51039 101.595 5.7803C99.9147 2.38012 96.0045 0 91.4343 0C86.864 0 83.3339 2.18011 81.5338 5.33028H81.3837C79.5937 2.18011 75.8435 0 71.4832 0C67.123 0 63.2428 2.25011 61.4927 5.49027C46.802 6.50033 16.6304 13.3307 3.25971 53.9328C-7.56085 86.7745 10.0401 114.136 34.2313 117.486C60.6827 121.146 67.183 104.165 68.0731 100.855L124.336 100.315C124.336 100.315 174.269 130.407 164.478 73.3938V73.3838Z" fill="#FF3A74"/>
</svg>
