<svg width="18" height="18" viewBox="0 0 18 18" fill="none" xmlns="http://www.w3.org/2000/svg">
<path id="Vector" d="M14.9002 2.2216C14.1356 1.54996 13.2469 1.01263 12.2859 0.630313C11.7796 0.433987 11.2423 0.268662 10.6947 0.165332C10.147 0.0620018 9.57868 0 9.00003 0C4.02986 0 0 4.02988 0 9.00005C0 9.62003 0.0619904 10.2297 0.185986 10.8083C1.02296 14.9105 4.64984 17.9898 9.00003 17.9898C13.3502 17.9898 16.9771 14.9105 17.8141 10.8083C17.9381 10.2193 18.0001 9.62003 18.0001 9.00005C18.0001 8.65906 17.9794 8.3284 17.9484 7.99775C17.7417 6.17914 16.9875 4.52586 15.8612 3.19291C15.5615 2.84159 15.2515 2.51092 14.9105 2.21126L14.9002 2.2216Z" fill="#00243A"/>
</svg>
