<svg width="346" height="153" viewBox="0 0 346 153" fill="none" xmlns="http://www.w3.org/2000/svg">
<g id="Group">
<path id="Vector" d="M345.714 88.4572C347.985 76.2942 335.982 75.6941 335.982 75.6941C335.982 75.6941 339.273 62.0107 333.721 58.1098C328.17 54.1988 316.957 58.93 316.957 58.93C316.957 58.93 323.129 48.9576 313.877 42.1659C304.624 35.3742 294.742 46.2769 294.742 46.2769C294.742 46.2769 296.692 37.1247 290.111 33.3137C283.529 29.5128 276.227 35.7843 276.227 35.7843C276.227 35.7843 276.738 23.4413 266.865 19.4303C256.993 15.4194 246.5 23.1312 246.5 23.1312C246.5 23.1312 248.351 15.7294 240.019 11.7185C231.687 7.70749 218.113 11.7185 218.113 11.7185C218.113 11.7185 216.883 4.92681 204.85 2.15613C192.817 -0.624549 182.325 9.25787 182.325 9.25787C182.325 9.25787 180.784 4.31666 173.992 3.39643C167.201 2.46621 160.419 9.25787 160.419 9.25787C160.419 9.25787 160.109 0.305681 146.536 0.00560732C132.962 -0.304468 128.951 12.3486 128.951 12.3486C128.951 12.3486 123.4 9.56794 112.597 10.8082C101.795 12.0385 99.6343 20.0605 99.6343 20.0605C99.6343 20.0605 94.393 14.1991 87.2913 16.9798C80.1996 19.7604 80.4996 27.1622 80.4996 27.1622C80.4996 27.1622 73.4079 19.7604 61.9851 25.0017C50.5723 30.243 57.0439 43.5162 57.0439 43.5162C36.0588 35.8043 42.5404 52.7685 42.5404 52.7685C32.3579 53.3886 38.2193 66.962 38.2193 66.962C38.2193 66.962 27.7268 57.7097 20.0149 64.8014C12.303 71.9032 24.9561 83.626 24.9561 83.626C11.6829 82.0857 11.3828 92.8783 11.3828 92.8783C6.44157 93.1884 2.76067 94.1286 0 95.4389C22.3054 128.537 90.3721 152.623 170.882 152.623C256.953 152.623 328.79 125.106 345.724 88.4672L345.714 88.4572Z" fill="#FFE5CF"/>
<path id="Vector_2" d="M262.584 141.15C263.414 139.74 264.195 138.329 264.855 136.889C267.125 124.726 255.122 124.126 255.122 124.126C255.122 124.126 258.413 110.442 252.862 106.542C247.31 102.631 236.098 107.362 236.098 107.362C236.098 107.362 242.269 97.3893 233.017 90.5976C223.765 83.806 213.882 94.7086 213.882 94.7086C213.882 94.7086 215.833 85.5564 209.251 81.7455C202.67 77.9446 195.368 84.2161 195.368 84.2161C195.368 84.2161 195.878 71.8731 186.005 67.8621C176.133 63.8511 165.64 71.563 165.64 71.563C165.64 71.563 167.491 64.1612 159.159 60.1502C150.827 56.1392 137.254 60.1502 137.254 60.1502C137.254 60.1502 136.023 53.3586 123.99 50.5879C111.957 47.8072 101.465 57.6896 101.465 57.6896C101.465 57.6896 99.9244 52.7484 93.1328 51.8282C86.3411 50.898 79.5594 57.6896 79.5594 57.6896C79.5594 57.6896 79.2494 48.7374 65.6761 48.4374C52.1027 48.1273 48.0918 60.7804 48.0918 60.7804C48.0918 60.7804 44.1808 58.8399 36.5689 58.9299C36.4289 62.7608 38.2394 66.9619 38.2394 66.9619C38.2394 66.9619 31.8778 59.11 23.1257 61.9807C20.1449 62.9609 17.6043 65.1714 16.7441 68.1922C14.3635 76.5342 24.9761 83.626 24.9761 83.626C11.7129 82.0856 11.4028 92.8782 11.4028 92.8782C6.4616 93.1883 2.7807 94.1285 0.0200244 95.4388C22.3255 128.537 90.3921 152.623 170.902 152.623C204.44 152.623 235.798 148.432 262.614 141.16L262.584 141.15Z" fill="#FFE5CF"/>
<path id="Vector_3" d="M178.481 45.3965C178.975 42.365 176.917 39.5073 173.886 39.0135C170.854 38.5198 167.997 40.5771 167.503 43.6086C167.009 46.6401 169.067 49.4979 172.098 49.9916C175.13 50.4853 177.987 48.428 178.481 45.3965Z" fill="#FBD1A5"/>
<path id="Vector_4" d="M257.953 38.9452C261.025 38.9452 263.514 36.4553 263.514 33.3838C263.514 30.3124 261.025 27.8225 257.953 27.8225C254.882 27.8225 252.392 30.3124 252.392 33.3838C252.392 36.4553 254.882 38.9452 257.953 38.9452Z" fill="#FBD1A5"/>
<path id="Vector_5" d="M170.872 96.1991C173.943 96.1991 176.433 93.7092 176.433 90.6378C176.433 87.5663 173.943 85.0764 170.872 85.0764C167.8 85.0764 165.31 87.5663 165.31 90.6378C165.31 93.7092 167.8 96.1991 170.872 96.1991Z" fill="#EDB892"/>
<path id="Vector_6" d="M75.2811 114.914C75.9501 111.917 74.0623 108.944 71.0646 108.275C68.0668 107.606 65.0944 109.494 64.4254 112.492C63.7565 115.49 65.6443 118.462 68.642 119.131C71.6397 119.8 74.6122 117.912 75.2811 114.914Z" fill="#EDB892"/>
<path id="Vector_7" d="M281.357 88.2108C282.238 85.2683 280.566 82.1691 277.624 81.2885C274.681 80.408 271.582 82.0795 270.702 85.022C269.821 87.9646 271.493 91.0638 274.435 91.9443C277.378 92.8249 280.477 91.1533 281.357 88.2108Z" fill="#EDB892"/>
<path id="Vector_8" d="M135.293 137.959C138.365 137.959 140.855 135.469 140.855 132.398C140.855 129.327 138.365 126.837 135.293 126.837C132.222 126.837 129.732 129.327 129.732 132.398C129.732 135.469 132.222 137.959 135.293 137.959Z" fill="#EDB892"/>
<path id="Vector_9" d="M42.8903 92.4582C45.9617 92.4582 48.4516 89.9683 48.4516 86.8969C48.4516 83.8254 45.9617 81.3355 42.8903 81.3355C39.8188 81.3355 37.3289 83.8254 37.3289 86.8969C37.3289 89.9683 39.8188 92.4582 42.8903 92.4582Z" fill="#EDB892"/>
<path id="Vector_10" d="M200.099 143.521C203.171 143.521 205.66 141.031 205.66 137.959C205.66 134.888 203.171 132.398 200.099 132.398C197.028 132.398 194.538 134.888 194.538 137.959C194.538 141.031 197.028 143.521 200.099 143.521Z" fill="#EDB892"/>
<path id="Vector_11" d="M242.439 132.398C245.51 132.398 248 129.908 248 126.837C248 123.765 245.51 121.275 242.439 121.275C239.368 121.275 236.878 123.765 236.878 126.837C236.878 129.908 239.368 132.398 242.439 132.398Z" fill="#EDB892"/>
<path id="Vector_12" d="M140.984 40.1082C141.435 36.2176 138.647 32.6982 134.756 32.2473C130.865 31.7965 127.346 34.5849 126.895 38.4756C126.444 42.3662 129.233 45.8856 133.123 46.3365C137.014 46.7873 140.533 43.9988 140.984 40.1082Z" fill="#C69C6D"/>
<path id="Vector_13" d="M247.77 79.7193C249.658 76.2875 248.406 71.9753 244.974 70.0879C241.542 68.2004 237.23 69.4524 235.342 72.8842C233.455 76.3161 234.707 80.6283 238.139 82.5157C241.571 84.4032 245.883 83.1512 247.77 79.7193Z" fill="#C69C6D"/>
<path id="Vector_14" d="M225.145 126.286C225.175 128.327 222.264 128.337 218.643 126.316C215.022 124.296 212.062 121.005 212.022 118.975C211.992 116.934 214.902 116.924 218.523 118.945C222.144 120.965 225.105 124.256 225.145 126.286Z" fill="#243754"/>
<path id="Vector_15" d="M277.017 111.793C277.047 113.833 274.137 113.843 270.516 111.823C266.895 109.802 263.934 106.512 263.894 104.481C263.864 102.441 266.775 102.431 270.396 104.451C274.017 106.472 276.977 109.762 277.017 111.793Z" fill="#243754"/>
<path id="Vector_16" d="M64.2858 73.9537C64.3158 75.9942 61.4051 76.0042 57.7842 73.9837C54.1634 71.9632 51.2026 68.6724 51.1626 66.6419C51.1326 64.6014 54.0433 64.5914 57.6642 66.6119C61.2851 68.6324 64.2458 71.9232 64.2858 73.9537Z" fill="#243754"/>
<path id="Vector_17" d="M200.479 65.9717C202.49 66.2618 202.04 69.1425 199.469 72.3933C196.898 75.6441 193.177 78.0447 191.167 77.7546C189.156 77.4645 189.607 74.5838 192.177 71.333C194.748 68.0823 198.469 65.6817 200.479 65.9717Z" fill="#243754"/>
<path id="Vector_18" d="M196.308 22.7512C198.318 23.0413 197.868 25.922 195.297 29.1728C192.727 32.4236 189.006 34.8242 186.995 34.5341C184.985 34.244 185.435 31.3633 188.006 28.1125C190.576 24.8617 194.297 22.4612 196.308 22.7512Z" fill="#243754"/>
<path id="Vector_19" d="M106.376 27.4924C108.387 27.7824 107.936 30.6632 105.366 33.9139C102.795 37.1647 99.0743 39.5653 97.0638 39.2753C95.0534 38.9852 95.5035 36.1045 98.0741 32.8537C100.645 29.6029 104.366 27.2023 106.376 27.4924Z" fill="#243754"/>
<path id="Vector_20" d="M146.626 81.4355C146.656 83.476 143.745 83.486 140.124 81.4655C136.503 79.4451 133.543 76.1542 133.503 74.1237C133.473 72.0832 136.383 72.0732 140.004 74.0937C143.625 76.1142 146.586 79.405 146.626 81.4355Z" fill="#243754"/>
<path id="Vector_21" d="M316.177 83.286C318.188 83.5761 317.738 86.4568 315.167 89.7076C312.596 92.9584 308.876 95.359 306.865 95.0689C304.855 94.7788 305.305 91.8981 307.875 88.6473C310.446 85.3965 314.167 82.996 316.177 83.286Z" fill="#243754"/>
<path id="Vector_22" d="M283.479 55.5593C285.49 55.8494 285.04 58.7301 282.469 61.9808C279.899 65.2316 276.178 67.6322 274.167 67.3422C272.157 67.0521 272.607 64.1714 275.177 60.9206C277.748 57.6698 281.469 55.2692 283.479 55.5593Z" fill="#243754"/>
<path id="Vector_23" d="M101.025 116.474C103.055 116.644 102.775 119.545 100.395 122.946C98.0139 126.346 94.4431 128.957 92.4126 128.777C90.3821 128.607 90.6621 125.706 93.0427 122.305C95.4233 118.905 98.9942 116.294 101.025 116.474Z" fill="#243754"/>
<path id="Vector_24" d="M179.196 129.124C181.722 126.13 181.344 121.656 178.35 119.13C175.357 116.604 170.883 116.983 168.357 119.976C165.831 122.97 166.21 127.444 169.203 129.97C172.196 132.496 176.67 132.117 179.196 129.124Z" fill="#C69C6D"/>
<path id="Vector_25" d="M217.668 53.4307C221.552 52.9249 224.291 49.3663 223.785 45.4825C223.279 41.5986 219.721 38.8602 215.837 39.366C211.953 39.8718 209.214 43.4303 209.72 47.3141C210.226 51.198 213.785 53.9365 217.668 53.4307Z" fill="#C69C6D"/>
<path id="Vector_26" d="M120.128 102.316C122.664 99.3316 122.3 94.8561 119.315 92.3203C116.33 89.7844 111.855 90.1484 109.319 93.1333C106.783 96.1182 107.147 100.594 110.132 103.13C113.117 105.665 117.592 105.301 120.128 102.316Z" fill="#C69C6D"/>
</g>
</svg>
