<svg width="285" height="37" viewBox="0 0 285 37" fill="none" xmlns="http://www.w3.org/2000/svg">
<g id="holanathi 01" clip-path="url(#clip0_38_815)">
<path id="Vector" d="M0 0.942023H7.16584V17.4184H22.0588V0.942023H29.2246V35.7389H22.0588V23.8126H7.16584V35.7389H0V0.942023Z" fill="#00243A"/>
<path id="Vector_2" d="M75.8679 0.942023H83.0337V29.445H98.7986V35.7389H75.8679V0.942023Z" fill="#00243A"/>
<path id="Vector_3" d="M151.575 19.5631C149.831 17.9295 147.426 14.8026 147.426 14.8026C147.426 14.8026 147.937 18.6411 147.937 21.1466V35.7288H141.232V0.631278H141.944L159.502 17.1077C161.196 18.6912 163.602 21.8682 163.602 21.8682C163.602 21.8682 163.14 17.9295 163.14 15.5242V0.941965H169.845V36.0496H169.124L151.565 19.5731L151.575 19.5631Z" fill="#00243A"/>
<path id="Vector_4" d="M216.158 7.23593H206.226V0.942023H233.246V7.23593H223.314V35.7389H216.148V7.23593H216.158Z" fill="#00243A"/>
<path id="Vector_5" d="M239.409 0.942023H246.575V17.4184H261.468V0.942023H268.634V35.7389H261.468V23.8126H246.575V35.7389H239.409V0.942023Z" fill="#00243A"/>
<path id="Vector_6" d="M277.834 0.942023H285V35.7389H277.834V0.942023Z" fill="#00243A"/>
<path id="Vector_7" d="M52.105 36.17C61.8523 36.17 69.754 28.1875 69.754 18.3405C69.754 8.49363 61.8523 0.511139 52.105 0.511139C42.3578 0.511139 34.456 8.49363 34.456 18.3405C34.456 28.1875 42.3578 36.17 52.105 36.17Z" fill="#00B8F1"/>
<path id="Vector_8" d="M102.497 35.739L119.454 0L136.051 35.739H102.497Z" fill="#FFD600"/>
<path id="Vector_9" d="M174.686 35.739L191.643 0L208.24 35.739H174.686Z" fill="#FF2A58"/>
</g>
<defs>
<clipPath id="clip0_38_815">
<rect width="284.37" height="36.09" fill="white" transform="scale(1.00222)"/>
</clipPath>
</defs>
</svg>
