<svg width="187" height="24" viewBox="0 0 187 24" fill="none" xmlns="http://www.w3.org/2000/svg">
<g id="holanathi 02" clip-path="url(#clip0_38_826)">
<path id="Vector" d="M0 0.612368H4.69734V11.4223H14.4734V0.612368H19.1708V23.4467H14.4734V15.6178H4.69734V23.4467H0V0.612368Z" fill="#00243A"/>
<path id="Vector_2" d="M49.7834 0.612359H54.4808V19.3114H64.829V23.4366H49.7834V0.602322V0.612359Z" fill="#00243A"/>
<path id="Vector_3" d="M99.4573 12.8373C98.3131 11.7633 96.7372 9.71578 96.7372 9.71578C96.7372 9.71578 97.0685 12.2351 97.0685 13.8812V23.4465H92.6722V0.411431H93.144L104.667 11.2213C105.771 12.2652 107.356 14.3429 107.356 14.3429C107.356 14.3429 107.055 11.7533 107.055 10.1775V0.612172H111.452V23.6472H110.98L99.4573 12.8373Z" fill="#00243A"/>
<path id="Vector_4" d="M141.834 4.74765H135.32V0.622415H153.055V4.74765H146.541V23.4467H141.844V4.74765H141.834Z" fill="#00243A"/>
<path id="Vector_5" d="M157.09 0.612368H161.787V11.4223H171.563V0.612368H176.261V23.4467H171.563V15.6178H161.787V23.4467H157.09V0.612368Z" fill="#00243A"/>
<path id="Vector_6" d="M182.303 0.612368H187V23.4467H182.303V0.612368Z" fill="#00243A"/>
<path id="Vector_7" d="M34.1858 23.7377C40.5827 23.7377 45.7685 18.498 45.7685 12.0345C45.7685 5.57101 40.5827 0.331301 34.1858 0.331301C27.7888 0.331301 22.603 5.57101 22.603 12.0345C22.603 18.498 27.7888 23.7377 34.1858 23.7377Z" fill="#00B8F1"/>
<path id="Vector_8" d="M67.2581 23.4466L78.3791 0L89.2694 23.4466H67.2581Z" fill="#FFD600"/>
<path id="Vector_9" d="M114.623 23.4466L125.744 0L136.635 23.4466H114.623Z" fill="#FF2A58"/>
</g>
<defs>
<clipPath id="clip0_38_826">
<rect width="186.31" height="23.64" fill="white" transform="scale(1.00371)"/>
</clipPath>
</defs>
</svg>
