<svg width="76" height="90" viewBox="0 0 76 90" fill="none" xmlns="http://www.w3.org/2000/svg">
<g id="Vector">
<path d="M1.00597 67.7375C1.00597 67.7375 0.895322 55.8171 14.1838 33.3143C33.8398 0.0277402 69.8223 -4.88125 70.2247 6.60658C70.4057 11.8978 63.8772 11.767 50.4781 18.879C42.8329 22.933 34.041 32.3787 34.041 32.3787C34.041 32.3787 47.3697 19.4424 56.4634 17.008C73.0614 12.5517 72.659 25.649 72.659 25.649C72.659 25.649 64.3701 27.6911 58.2439 30.9201C52.1077 34.1492 45.4383 41.4724 45.4383 41.4724C45.4383 41.4724 54.1196 32.9018 61.0103 29.7935C67.9915 26.6449 73.4235 25.0756 74.862 31.1414C76.8337 39.4807 56.0107 53.4733 56.0107 53.4733C56.0107 53.4733 55.3669 67.5162 49.4923 76.3785C43.6176 85.2409 32.5321 88.9125 32.5321 88.9125" fill="#00B8F1"/>
<path d="M1.00597 67.7375C1.00597 67.7375 0.895322 55.8171 14.1838 33.3143C33.8398 0.0277402 69.8223 -4.88125 70.2247 6.60658C70.4057 11.8978 63.8772 11.767 50.4781 18.879C42.8329 22.933 34.041 32.3787 34.041 32.3787C34.041 32.3787 47.3697 19.4424 56.4634 17.008C73.0614 12.5517 72.659 25.649 72.659 25.649C72.659 25.649 64.3701 27.6911 58.2439 30.9201C52.1077 34.1492 45.4383 41.4724 45.4383 41.4724C45.4383 41.4724 54.1196 32.9018 61.0103 29.7935C67.9915 26.6449 73.4235 25.0756 74.862 31.1414C76.8337 39.4807 56.0107 53.4733 56.0107 53.4733C56.0107 53.4733 55.3669 67.5162 49.4923 76.3785C43.6176 85.2409 32.5321 88.9125 32.5321 88.9125" stroke="#19292E" stroke-width="2" stroke-linecap="round" stroke-linejoin="round"/>
</g>
</svg>
