<svg width="105" height="107" viewBox="0 0 105 107" fill="none" xmlns="http://www.w3.org/2000/svg">
<g id="Group">
<path id="Vector" d="M38.3546 37.8382C10.4635 66.293 -7.07041 94.335 2.75339 103.968C13.7448 114.738 40.267 95.5026 68.1581 67.0479C96.0492 38.5931 108.661 5.7196 103.759 0.918426C99.0085 -3.73177 66.2457 9.3834 38.3546 37.8382Z" fill="#FAF9F6"/>
<path id="Vector_2" d="M8.00746 75.2511C7.36327 76.318 6.74929 77.3749 6.16549 78.4116L8.1987 80.4046L2.31047 86.4136C1.3744 88.7991 0.71007 91.0135 0.347717 93.0668L10.5238 82.6793L16.2409 88.2857L1.8676 102.951C2.1293 103.313 2.42118 103.656 2.75334 103.978C3.22641 104.441 3.72968 104.823 4.25308 105.175L18.566 90.5706L24.2831 96.177L13.9661 106.705C15.9893 106.343 18.1634 105.679 20.4684 104.722L26.6083 98.4618L28.6817 100.495C29.6883 99.881 30.7149 99.2369 31.7617 98.5524L29.0843 95.9354L42.4411 82.3069L47.1013 86.8766C47.9971 86.1217 48.893 85.3467 49.7888 84.5515L44.9171 79.7805L57.3177 67.1284L62.763 72.463C63.5985 71.6376 64.4339 70.8123 65.2794 69.9668L59.7937 64.5919L73.5128 50.601L78.5052 55.4928C79.2601 54.5668 80.005 53.6408 80.7297 52.7148L75.9889 48.0746L90.7548 33.0168L92.8585 35.0802C93.4926 34.0133 94.0965 32.9565 94.6904 31.9097L93.2409 30.4804L98.0119 25.6087C99.4915 22.6093 100.73 19.7708 101.726 17.1639L90.9158 28.1955L85.1987 22.5891L104.625 2.77045C104.464 1.96522 104.182 1.34116 103.759 0.928484C103.457 0.636589 103.045 0.415147 102.531 0.264167L82.8736 20.3144L77.1565 14.708L88.7115 2.91136C86.2153 3.87764 83.4876 5.09554 80.5989 6.53488L74.8314 12.4231L73.0196 10.6516C71.9829 11.2555 70.9361 11.8796 69.8792 12.5338L72.3452 14.9495L57.5794 30.0073L52.446 24.9847C51.5301 25.7295 50.6242 26.4844 49.7083 27.2595L55.0932 32.5337L41.3741 46.5246L35.496 40.7672C34.6706 41.6227 33.8654 42.4884 33.0601 43.3439L38.8981 49.061L26.4975 61.7132L21.3642 56.6805C20.5992 57.6065 19.8645 58.5325 19.1297 59.4586L24.0215 64.2497L10.6647 77.8782L7.98734 75.2612L8.00746 75.2511ZM34.3988 74.4056L40.116 80.012L26.7592 93.6405L21.0421 88.0341L34.3988 74.4056ZM49.2855 59.2271L55.0026 64.8335L42.6021 77.4856L36.885 71.8792L49.2855 59.2271ZM65.4807 42.6997L71.1978 48.3061L57.4787 62.297L51.7616 56.6906L65.4807 42.6997ZM82.7226 25.1155L88.4398 30.7219L73.6739 45.7797L67.9568 40.1733L82.7226 25.1155ZM26.3667 66.5244L32.0838 72.1308L18.7271 85.7593L13.0099 80.1529L26.3667 66.5244ZM41.2433 51.3459L46.9604 56.9523L34.5599 69.6044L28.8428 63.998L41.2433 51.3459ZM57.4384 34.8186L63.1556 40.425L49.4365 54.4158L43.7194 48.8094L57.4384 34.8186ZM74.6804 17.2344L80.3975 22.8408L65.6317 37.8986L59.9145 32.2921L74.6804 17.2344Z" fill="#FFD600"/>
</g>
</svg>
