<svg width="301" height="161" viewBox="0 0 301 161" fill="none" xmlns="http://www.w3.org/2000/svg">
<path id="Vector" d="M110.836 159.45C110.836 159.45 112.829 145.194 121.388 137.325C143.854 125.312 182.979 133.591 210.49 134.652C238.001 135.713 262.059 125.251 283.894 102.055C305.728 78.8686 301.454 60.3575 292.163 56.6132C282.872 52.859 276.075 73.072 260.347 83.4739C238.932 97.64 218.659 95.5276 218.659 95.5276C218.659 95.5276 227.199 86.9378 240.674 74.1432C257.083 58.5555 264.031 46.3716 266.223 30.4334C269.327 7.86769 256.683 -0.29158 246.181 8.118C234.077 17.799 237.19 24.0962 215.766 50.1559C208.978 58.4053 191.979 72.9319 191.979 72.9319C191.979 72.9319 200.659 65.0829 213.884 51.117C227.109 37.1511 231.624 4.92436 221.412 1.76075C211.201 -1.41286 201.49 10.8211 191.038 23.9761C180.586 37.1311 165.308 51.8779 165.308 51.8779C165.308 51.8779 125.323 23.5256 89.8324 33.8573C54.3419 44.1891 30.1043 94.8268 30.1043 94.8268L1.25143 159.47H110.826L110.836 159.45Z" fill="#FAF9F6" stroke="#19292E" stroke-width="2.5" stroke-linecap="round" stroke-linejoin="round"/>
</svg>
