<svg width="31" height="31" viewBox="0 0 31 31" fill="none" xmlns="http://www.w3.org/2000/svg">
<g id="Group">
<path id="Vector" d="M15.4984 1.54082C7.80313 1.54082 1.54095 7.80371 1.54095 15.4998C1.54095 23.1959 7.80313 29.4588 15.4984 29.4588C23.1936 29.4588 29.4558 23.1959 29.4558 15.4998C29.4558 7.80371 23.1936 1.54082 15.4984 1.54082ZM21.5418 16.4491L13.2024 21.9476C12.5368 22.3729 11.7448 22.0956 11.4458 21.3897C11.3349 17.5402 11.4304 13.669 11.3965 9.81018C11.4489 9.38177 11.8803 8.9441 12.3056 8.87321C12.4597 8.84547 12.6138 8.84547 12.7679 8.87321C15.7603 10.6054 18.5771 12.6704 21.5048 14.5289C22.1858 14.9974 22.2074 15.956 21.5418 16.4522V16.4491Z" fill="white"/>
<path id="Vector_2" d="M13.6769 18.8838L18.7187 15.4688L13.6769 12.1185V18.8838Z" fill="white"/>
<path id="Vector_3" d="M15.4983 0C6.9525 0 0 6.95329 0 15.5C0 24.0468 6.9525 31.0001 15.4983 31.0001C24.0441 31.0001 30.9966 24.0468 30.9966 15.5C30.9966 6.95329 24.0441 0 15.4983 0ZM15.4983 30.9107C6.98949 30.9107 0.0893744 24.0098 0.0893744 15.5C0.0893744 6.99027 6.98949 0.0893818 15.4983 0.0893818C24.0071 0.0893818 30.9072 6.99027 30.9072 15.5C30.9072 24.0098 24.0071 30.9107 15.4983 30.9107Z" fill="black"/>
<path id="Vector_4" d="M15.4983 0.0892505C6.98949 0.0892505 0.0893758 6.99014 0.0893758 15.4999C0.0893758 24.0097 6.98949 30.9106 15.4983 30.9106C24.0071 30.9106 30.9072 24.0097 30.9072 15.4999C30.9072 6.99014 24.0071 0.0892505 15.4983 0.0892505ZM15.4983 29.4589C7.80308 29.4589 1.5409 23.196 1.5409 15.4999C1.5409 7.80382 7.80308 1.54093 15.4983 1.54093C23.1935 1.54093 29.4557 7.80382 29.4557 15.4999C29.4557 23.196 23.1935 29.4589 15.4983 29.4589Z" fill="black"/>
<path id="Vector_5" d="M21.5078 14.5262C18.5801 12.6708 15.7634 10.6057 12.771 8.87051C12.6169 8.84277 12.4628 8.84585 12.3087 8.87051C11.8834 8.94139 11.4519 9.37906 11.3996 9.80747C11.4335 13.6663 11.3379 17.5375 11.4489 21.387C11.7447 22.0928 12.5398 22.3702 13.2055 21.9449L21.5448 16.4464C22.2105 15.9532 22.1889 14.9916 21.5078 14.5231V14.5262ZM13.677 18.8843V12.1191L18.7188 15.4724L13.677 18.8843Z" fill="black"/>
</g>
</svg>
