<svg width="31" height="31" viewBox="0 0 31 31" fill="none" xmlns="http://www.w3.org/2000/svg">
<g id="Group">
<path id="Vector" d="M15.4984 1.54082C7.80314 1.54082 1.54095 7.80371 1.54095 15.4998C1.54095 23.1959 7.80314 29.4588 15.4984 29.4588C23.1936 29.4588 29.4558 23.1959 29.4558 15.4998C29.4558 7.80371 23.1936 1.54082 15.4984 1.54082ZM10.7463 20.9059L10.7401 20.9428C10.6877 21.2788 10.4905 21.7319 9.84945 21.9815L9.76624 22.0123H9.18378L9.10058 21.9815C8.589 21.7873 8.26233 21.3774 8.20378 20.8596V20.8319V20.8041C8.21302 19.4449 8.20686 18.061 8.20378 16.7203C8.19453 14.5166 8.18837 12.2389 8.24384 10.0013V9.92114L8.27466 9.84717C8.4873 9.27081 9.03278 8.93177 9.62756 8.99958C10.2223 9.07047 10.6723 9.52354 10.7463 10.1307V10.1893V20.9059ZM23.6035 17.833C23.5788 18.8223 23.5542 19.8425 23.5973 20.8196V20.8689L23.5911 20.9182C23.511 21.4113 23.1874 21.7997 22.6974 21.9846L22.6142 22.0154H22.0318L21.9485 21.9846C21.3075 21.738 21.1103 21.285 21.0579 20.9459L21.0517 20.8904C21.0117 19.9042 21.0363 18.8871 21.0579 17.9039C21.0826 16.8436 21.1103 15.7494 21.0517 14.7108C20.9685 13.1759 19.8622 12.4362 18.802 12.3838C17.745 12.3314 16.577 12.9416 16.3459 14.4241C16.3366 14.4827 16.3335 14.5443 16.3304 14.606V14.6306L16.3181 16.4583C16.3027 18.5634 16.2904 20.5514 16.3089 20.8966V20.9675L16.2966 21.0353C16.1887 21.476 15.8928 21.7904 15.4244 21.9754L15.3381 22.0093H14.7495L14.6632 21.9723C14.0191 21.7103 13.8311 21.2356 13.788 20.8843C13.7048 20.2216 13.7387 10.6239 13.7787 10.177L13.7849 10.1276C13.7911 10.0629 13.8034 10.0013 13.8219 9.93963L13.8342 9.89648C13.8434 9.86566 13.8496 9.84717 13.8558 9.82867C14.0468 9.26773 14.5862 8.92561 15.1964 8.99033C15.2148 8.99033 15.2364 8.99342 15.258 8.99958C15.295 9.00575 15.335 9.01191 15.3782 9.02424L15.4059 9.0304C15.785 9.13211 16.0839 9.38793 16.2288 9.73929C16.2781 9.83176 16.3243 9.93963 16.3243 10.066V10.1338C16.3305 10.1893 16.3335 10.2756 16.3366 10.4266C16.7588 10.1954 17.2057 10.029 17.6618 9.93347C19.0825 9.63758 20.5463 9.97045 21.6835 10.8427C22.8238 11.718 23.5203 13.0526 23.6004 14.5043C23.6589 15.6015 23.6343 16.7357 23.6066 17.8361L23.6035 17.833Z" fill="white"/>
<path id="Vector_2" d="M15.4983 0C6.95251 0 0 6.95329 0 15.5C0 24.0468 6.95251 31.0001 15.4983 31.0001C24.0441 31.0001 30.9966 24.0468 30.9966 15.5C30.9966 6.95329 24.0441 0 15.4983 0ZM15.4983 30.9107C6.98949 30.9107 0.0893745 24.0098 0.0893745 15.5C0.0893745 6.99027 6.98949 0.0893818 15.4983 0.0893818C24.0071 0.0893818 30.9072 6.99027 30.9072 15.5C30.9072 24.0098 24.0071 30.9107 15.4983 30.9107Z" fill="black"/>
<path id="Vector_3" d="M15.4983 0.0892505C6.98949 0.0892505 0.0893758 6.99014 0.0893758 15.4999C0.0893758 24.0097 6.98949 30.9106 15.4983 30.9106C24.0071 30.9106 30.9072 24.0097 30.9072 15.4999C30.9072 6.99014 24.0102 0.0892505 15.4983 0.0892505ZM15.4983 29.4589C7.80309 29.4589 1.5409 23.196 1.5409 15.4999C1.5409 7.80382 7.80309 1.54093 15.4983 1.54093C23.1935 1.54093 29.4557 7.80382 29.4557 15.4999C29.4557 23.196 23.1935 29.4589 15.4983 29.4589Z" fill="black"/>
<path id="Vector_4" d="M21.6804 10.8399C20.5463 9.96764 19.0794 9.63477 17.6586 9.93065C17.2025 10.0262 16.7526 10.1926 16.3335 10.4238C16.3304 10.2728 16.3242 10.1896 16.3212 10.131V10.0632C16.3212 9.93682 16.2749 9.82894 16.2256 9.73648C16.0808 9.3882 15.7818 9.1293 15.4028 9.02759L15.375 9.02142C15.335 9.01218 15.2918 9.00293 15.2549 8.99677C15.2333 8.99369 15.2117 8.9906 15.1932 8.98752C14.583 8.9228 14.0437 9.26491 13.8526 9.82586C13.8465 9.84435 13.8403 9.86285 13.8311 9.89367L13.8187 9.93682C13.8033 9.99846 13.791 10.0632 13.7818 10.1248L13.7756 10.1741C13.7355 10.6211 13.7016 20.2188 13.7848 20.8815C13.828 21.2328 14.0191 21.7075 14.6601 21.9695L14.7464 22.0064H15.335L15.4213 21.9725C15.8928 21.7876 16.1856 21.4702 16.2934 21.0325L16.3119 20.9647V20.8938C16.2903 20.5486 16.3027 18.5606 16.3181 16.4555L16.3304 14.6278V14.6032C16.3335 14.5415 16.3366 14.4799 16.3458 14.4213C16.5769 12.9388 17.7449 12.3316 18.802 12.3809C19.859 12.4333 20.9654 13.1731 21.0517 14.708C21.1103 15.7466 21.0825 16.8408 21.0579 17.901C21.0332 18.8842 21.0086 19.9013 21.0517 20.8876L21.0579 20.9431C21.1103 21.2791 21.3075 21.7321 21.9485 21.9818L22.0317 22.0126H22.6142L22.6974 21.9818C23.1874 21.7969 23.511 21.4085 23.5911 20.9154L23.5972 20.8661V20.8167C23.5541 19.8397 23.5788 18.8195 23.6034 17.8302C23.6281 16.7329 23.6558 15.5987 23.5972 14.4984C23.5171 13.0498 22.8206 11.7152 21.6804 10.8368V10.8399Z" fill="black"/>
<path id="Vector_5" d="M9.62737 8.99981C9.0295 8.932 8.48711 9.27104 8.27447 9.8474L8.24672 9.92137V10.0015C8.18817 12.2391 8.19742 14.5168 8.20358 16.7205C8.20974 18.0613 8.21283 19.4452 8.20358 20.8044V20.8321V20.8599C8.26214 21.3776 8.58881 21.7876 9.10038 21.9817L9.18359 22.0126H9.76605L9.84925 21.9817C10.4903 21.7352 10.6875 21.2821 10.7399 20.9431L10.7461 20.9061V10.1895V10.131C10.6721 9.52377 10.2222 9.0707 9.62737 8.99981Z" fill="black"/>
</g>
</svg>
