<svg width="38" height="41" viewBox="0 0 38 41" fill="none" xmlns="http://www.w3.org/2000/svg">
<path id="Vector" d="M36.9959 17.2369C36.9959 17.2369 25.1347 0.303732 21.3182 1.02685C18.3353 1.58928 18.4458 4.65252 19.5405 7.64544C20.9868 11.6126 25.7373 16.1321 22.1518 17.7792C18.5663 19.4163 7.61908 6.22933 4.13403 10.2668C0.618853 14.3343 14.78 23.9458 14.78 23.9458C14.78 23.9458 11.1142 21.7564 8.54306 19.3359C5.72088 16.6744 4.37508 14.2138 4.37508 14.2138C4.37508 14.2138 -1.37978 19.7276 5.27897 25.2113C11.9277 30.705 12.6709 30.3033 12.6709 30.3033C12.6709 30.3033 11.3251 29.8714 7.82999 27.24C3.38078 23.8856 2.16553 21.0031 2.16553 21.0031C2.16553 21.0031 -1.90203 28.154 5.18859 34.421C16.7887 44.6653 34.9973 36.7812 34.9973 36.7812" stroke="white" stroke-width="2" stroke-linecap="round" stroke-linejoin="round"/>
</svg>
