<svg width="262" height="208" viewBox="0 0 262 208" fill="none" xmlns="http://www.w3.org/2000/svg">
<g id="Layer-3" opacity="0.3">
<path id="Vector" d="M218.574 7.29997L207.93 0.240922L208.051 0.0606902C206.549 -0.0294254 205.077 -0.0294257 203.555 0.13078L204.706 0.891758L197.647 11.5254L188.766 5.63784C188.085 6.10844 187.414 6.58906 186.783 7.11974L196.366 13.4779L189.326 24.0815L179.113 17.3028C178.823 18.0538 178.613 18.8348 178.402 19.6258L188.045 26.024L180.986 36.6576L179.163 35.4461C179.664 37.4386 180.115 39.4812 180.725 41.2435L181.627 39.8817L192.27 46.9408L187.244 54.5205C187.724 55.2515 188.195 55.8923 188.676 56.5631L194.203 48.2325L204.806 55.2715L197.747 65.9051L193.872 63.3318C195.625 65.4045 197.407 67.5272 198.678 69.3095L209.042 76.1883L202.003 86.7919L198.188 84.2586C197.707 84.8494 197.187 85.4302 196.626 86.0209L200.721 88.7344L193.662 99.368L186.233 94.4417C185.472 94.9524 184.811 95.3629 184.1 95.8235L192.37 101.311L185.311 111.944L174.678 104.885L178.282 99.4581C177.381 99.9588 175.979 100.76 175.979 100.76L174.918 100.319L172.745 103.593L162.142 96.5544L163.063 95.1626C161.701 94.5819 162.812 95.0024 160.9 94.2114L160.199 95.2728L155.133 91.9185C151.909 90.6368 148.664 89.3752 145.18 88.1036L146.331 88.8646L139.292 99.4682L128.659 92.4091L134.046 84.2887C133.275 84.0384 132.544 83.768 131.763 83.5177L126.716 91.1275L116.113 84.0884L118.986 79.7529C118.195 79.5326 117.444 79.2823 116.643 79.072L114.17 82.7968L104.077 76.0982C102.045 75.6576 100.032 75.2571 97.9994 74.8566L100.302 76.3886L93.2433 87.0222L82.6097 79.9631L87.2156 73.0242C86.3745 72.9041 85.5334 72.7239 84.6923 72.6137L80.6672 78.6715L70.0636 71.6325L70.2438 71.3621C68.6117 71.292 67.0798 71.3922 65.4677 71.3821L66.8294 72.2833L59.7704 82.9269L49.1367 75.8679L51.65 72.083C50.5786 72.2032 49.5673 72.4235 48.526 72.5837L47.1943 74.5862L45.0415 73.1544C43.9401 73.3747 42.7385 73.4448 41.6672 73.7051L45.9126 76.5187L38.8736 87.1223L28.2399 80.0633L29.6317 77.9706C28.0297 78.7416 26.4677 79.6628 24.8957 80.634L25.0158 80.7141L17.9568 91.3577L14.6525 89.1649C14.1419 89.7357 13.6512 90.3565 13.1506 90.9672L16.6651 93.3002L9.60606 103.934L6.33186 101.761C6.01145 102.462 5.7411 103.233 5.44072 103.964L8.32441 105.876L2.12647 115.208C1.74598 117.031 1.40554 118.913 1.14521 120.886L1.92621 119.704L12.5598 126.763L5.50079 137.397L0.013757 133.752C-0.0162815 134.693 0.013757 135.605 0.00374419 136.536L4.21915 139.329L0.434296 145.027C0.564463 146.238 0.614527 147.48 0.824797 148.651L6.15163 140.621L16.7853 147.68L9.74624 158.284L2.0764 153.197C2.45689 154.459 2.87743 155.69 3.3981 156.862L8.45458 160.216L6.84251 162.639C7.32313 163.25 7.95394 163.781 8.50464 164.351L10.3971 161.498L21.0007 168.537L19.1883 171.26C19.8993 171.521 20.8104 171.661 21.5714 171.881L22.9432 169.818L28.4602 173.483C30.0222 173.673 31.5442 173.743 32.986 173.693L24.2248 167.886L31.2638 157.282L41.8975 164.341L35.8797 173.403C37.0112 173.233 38.0926 172.992 39.1439 172.692L43.8299 165.633L47.6749 168.186C48.3257 167.686 49.0266 167.235 49.6274 166.684L45.1116 163.691L52.1706 153.057L57.107 156.331C57.3473 155.59 57.4975 154.749 57.6977 153.928L53.4523 151.114L59.3198 142.263C59.49 139.489 59.4299 139.159 59.44 137.016L49.1968 130.218L56.2559 119.584L66.8895 126.643L64.6566 130.007L67.28 130.268L68.832 127.935L73.2276 130.848L78.154 131.319L70.1237 125.992L77.1827 115.349L87.8263 122.408L81.6885 131.649L84.1016 131.9C84.1016 131.9 84.0515 132.28 84.0515 132.3L89.7588 123.689L100.362 130.728L93.3034 141.372L83.691 134.994C83.5509 135.815 83.4808 136.165 83.3406 137.557L92.0117 143.304L84.9527 153.938L84.1316 153.397C84.3819 154.849 84.7724 156.301 85.1629 157.833L85.6035 157.162L96.2371 164.221L90.7901 172.432C91.2007 173.163 91.6813 173.894 92.1219 174.625L98.1796 165.503L108.823 172.562L101.784 183.165L94.7252 178.479C96.2271 180.562 97.9393 182.625 99.8317 184.667L100.503 185.108L100.402 185.258C100.953 185.839 101.454 186.43 102.045 187L102.445 186.39L113.049 193.429L111.967 195.061C112.598 195.501 113.229 195.942 113.89 196.382L114.991 194.72L125.625 201.779L125.164 202.48C125.925 202.821 126.466 203.201 127.267 203.522L127.567 203.071L129.48 204.343C131.923 205.244 134.476 205.995 137.13 206.626L128.859 201.139L135.898 190.535L146.532 197.594L140.093 207.296C140.934 207.447 141.765 207.587 142.617 207.707L148.474 198.886L159.078 205.925L158.337 207.046C159.879 206.686 161.401 206.255 162.913 205.674L162.302 205.274L169.361 194.64L174.728 198.205C175.329 197.674 175.909 197.153 176.5 196.583L170.653 192.698L177.712 182.054L185.011 186.9C185.482 186.269 185.882 185.619 186.333 184.978L178.993 180.112L186.032 169.508L193.181 174.254C193.572 173.583 193.982 172.892 194.353 172.231L187.324 167.565L194.383 156.922L200.14 160.747C200.431 160.116 200.891 159.205 201.152 158.624L195.665 154.979L202.724 144.346L209.663 148.952C210.353 148.581 211.134 148.131 211.945 147.68L204.005 142.413L211.044 131.81L221.688 138.869L218.434 143.775C219.996 142.794 221.658 141.682 223.41 140.481L223.63 140.15L223.781 140.25C224.532 139.74 225.112 139.409 225.883 138.849L224.912 138.208L231.971 127.574L236.427 130.528C237.078 129.987 237.688 129.577 238.349 129.006L233.253 125.632L240.312 114.998L247.801 119.964C248.342 119.364 248.923 118.893 249.454 118.262L241.604 113.056L248.643 102.452L256.613 107.739C256.973 107.048 257.384 106.397 257.714 105.676L249.924 100.509L256.983 89.8759L261.499 92.8697C261.629 92.0186 261.729 91.1675 261.819 90.2864L258.275 87.9334L262 82.3262C261.93 81.2147 261.659 80.0032 261.509 78.8617L256.342 86.6517L245.699 79.5927L252.758 68.959L260.848 74.3259C260.798 74.0956 260.818 73.8954 260.768 73.6651C260.578 72.7839 260.318 71.9228 260.107 71.0417L254.049 67.0165L257.614 61.6497C257.334 60.6984 257.003 59.7572 256.703 58.816L252.117 65.7249L241.513 58.6859L248.552 48.0823L254.37 51.9472C253.879 50.6456 253.309 49.3839 252.778 48.0923L249.834 46.1398L251.146 44.1672C250.775 43.3262 250.405 42.4951 250.014 41.664L247.902 44.8481L237.268 37.7891L243.095 28.9978C242.645 28.2769 242.204 27.5359 241.734 26.835L235.315 36.5074L224.682 29.4484L231.741 18.8147L240.232 24.4419C238.82 22.4194 237.288 20.557 235.756 18.6846L233.033 16.8722L233.593 16.0212C233.063 15.4204 232.482 14.8897 231.931 14.309L231.09 15.5806L220.486 8.54157L222.359 5.71795C221.738 5.24734 221.157 4.72667 220.516 4.27609L218.544 7.24991L218.574 7.29997ZM222.779 28.1968L212.176 21.1577L219.235 10.5241L229.838 17.5631L222.779 28.1968ZM210.233 19.8761L199.59 12.817L206.649 2.18341L217.292 9.24247L210.233 19.8761ZM239.611 57.4443L228.977 50.3852L236.016 39.7816L246.65 46.8407L239.611 57.4443ZM227.035 49.0936L216.401 42.0345L223.44 31.4309L234.074 38.49L227.035 49.0936ZM214.449 40.7529L203.845 33.7138L210.884 23.1102L221.488 30.1493L214.449 40.7529ZM201.903 32.4222L191.259 25.3631L198.298 14.7595L208.942 21.8186L201.903 32.4222ZM243.806 78.3411L233.203 71.302L240.262 60.6684L250.865 67.7074L243.806 78.3411ZM231.26 70.0204L220.627 62.9613L227.686 52.3277L238.319 59.3868L231.26 70.0204ZM218.684 61.6697L208.051 54.6106L215.11 43.977L225.743 51.0361L218.684 61.6697ZM206.108 53.329L195.504 46.29L202.563 35.6563L213.167 42.6954L206.108 53.329ZM193.562 44.9983L182.918 37.9393L189.977 27.3056L200.621 34.3647L193.562 44.9983ZM248.042 99.2679L237.398 92.2088L244.457 81.5752L255.101 88.6343L248.042 99.2679ZM235.466 90.9272L224.862 83.8882L231.921 73.2545L242.525 80.2936L235.466 90.9272ZM222.92 82.5965L212.286 75.5375L219.345 64.9038L229.979 71.9629L222.92 82.5965ZM210.333 74.2558L199.7 67.1968L206.759 56.5631L217.392 63.6222L210.333 74.2558ZM239.721 111.814L229.077 104.755L236.116 94.1513L246.76 101.21L239.721 111.814ZM227.135 103.473L216.531 96.4343L223.57 85.8307L234.174 92.8697L227.135 103.473ZM214.589 95.1426L203.955 88.0836L210.994 77.48L221.628 84.539L214.589 95.1426ZM231.37 124.4L220.727 117.341L227.786 106.707L238.429 113.766L231.37 124.4ZM218.794 116.049L208.191 109.01L215.25 98.3768L225.853 105.416L218.794 116.049ZM206.248 107.719L195.615 100.66L202.674 90.026L213.307 97.0851L206.248 107.719ZM223.02 136.976L212.376 129.917L219.435 119.284L230.079 126.343L223.02 136.976ZM210.444 128.626L199.84 121.587L206.899 110.953L217.503 117.992L210.444 128.626ZM197.897 120.305L187.264 113.246L194.323 102.612L204.957 109.671L197.897 120.305ZM202.123 141.172L191.519 134.133L198.558 123.529L209.162 130.568L202.123 141.172ZM189.567 132.851L178.933 125.792L185.972 115.188L196.606 122.247L189.567 132.851ZM176.991 124.5L166.357 117.441L173.396 106.838L184.03 113.897L176.991 124.5ZM164.415 116.16L153.811 109.121L160.85 98.5169L171.454 105.556L164.415 116.16ZM151.868 107.829L141.225 100.77L148.264 90.1662L158.907 97.2253L151.868 107.829ZM193.772 153.758L183.169 146.719L190.228 136.085L200.831 143.124L193.772 153.758ZM181.226 145.427L170.592 138.368L177.652 127.734L188.285 134.793L181.226 145.427ZM168.65 137.076L158.016 130.017L165.075 119.384L175.709 126.443L168.65 137.076ZM156.064 128.736L145.46 121.697L152.519 111.063L163.123 118.102L156.064 128.736ZM143.518 120.405L132.874 113.346L139.933 102.712L150.577 109.771L143.518 120.405ZM130.942 112.064L120.308 105.005L127.367 94.3716L138.001 101.431L130.942 112.064ZM118.366 103.714L107.762 96.6746L114.821 86.0409L125.425 93.08L118.366 103.714ZM105.819 95.3929L95.1758 88.3339L102.235 77.7002L112.878 84.7593L105.819 95.3929ZM185.431 166.334L174.828 159.295L181.887 148.651L192.491 155.69L185.431 166.334ZM172.875 158.003L162.242 150.944L169.301 140.301L179.934 147.36L172.875 158.003ZM160.299 149.663L149.666 142.603L156.725 131.96L167.358 139.019L160.299 149.663ZM147.723 141.312L137.12 134.273L144.179 123.629L154.782 130.668L147.723 141.312ZM135.177 132.991L124.533 125.932L131.592 115.288L142.236 122.347L135.177 132.991ZM122.591 124.64L111.957 117.581L119.016 106.938L129.65 113.997L122.591 124.64ZM110.015 116.29L99.4112 109.251L106.47 98.607L117.074 105.646L110.015 116.29ZM97.4687 107.969L86.8251 100.91L93.8841 90.2664L104.528 97.3254L97.4687 107.969ZM84.8926 99.6183L74.259 92.5593L81.318 81.9156L91.9516 88.9747L84.8926 99.6183ZM72.3165 91.2777L61.7129 84.2386L68.7719 73.595L79.3755 80.634L72.3165 91.2777ZM177.101 178.88L166.497 171.841L173.536 161.237L184.14 168.276L177.101 178.88ZM164.555 170.549L153.921 163.49L160.96 152.887L171.594 159.946L164.555 170.549ZM151.969 162.209L141.335 155.15L148.374 144.546L159.008 151.605L151.969 162.209ZM139.392 153.858L128.789 146.819L135.828 136.215L146.431 143.254L139.392 153.858ZM126.846 145.537L116.203 138.478L123.242 127.875L133.885 134.934L126.846 145.537ZM114.27 137.187L103.637 130.127L110.676 119.524L121.309 126.583L114.27 137.187ZM101.694 128.846L91.0905 121.807L98.1296 111.203L108.733 118.242L101.694 128.846ZM89.148 120.515L78.5044 113.456L85.5434 102.852L96.1871 109.912L89.148 120.515ZM76.5619 112.174L65.9283 105.115L72.9673 94.5118L83.6009 101.571L76.5619 112.174ZM63.9858 103.824L53.3822 96.7847L60.4212 86.1811L71.0248 93.2201L63.9858 103.824ZM51.4397 95.4931L40.8061 88.434L47.8451 77.8304L58.4787 84.8895L51.4397 95.4931ZM168.75 191.456L158.147 184.417L165.206 173.773L175.809 180.812L168.75 191.456ZM156.204 183.135L145.57 176.076L152.629 165.433L163.263 172.492L156.204 183.135ZM143.628 174.785L132.994 167.726L140.053 157.082L150.687 164.141L143.628 174.785ZM131.052 166.444L120.448 159.405L127.507 148.761L138.111 155.8L131.052 166.444ZM118.506 158.113L107.862 151.054L114.921 140.411L125.565 147.47L118.506 158.113ZM105.92 149.763L95.2859 142.704L102.345 132.06L112.979 139.119L105.92 149.763ZM68.2212 124.751L57.5876 117.692L64.6466 107.048L75.2803 114.107L68.2212 124.751ZM55.6451 116.4L45.0415 109.361L52.1005 98.7172L62.7041 105.756L55.6451 116.4ZM43.089 108.079L32.4554 101.02L39.5144 90.3765L50.148 97.4355L43.089 108.079ZM30.5129 99.7285L19.8792 92.6694L26.9383 82.0258L37.5719 89.0848L30.5129 99.7285ZM160.409 204.032L149.806 196.993L156.865 186.36L167.468 193.399L160.409 204.032ZM147.863 195.712L137.23 188.653L144.289 178.019L154.922 185.078L147.863 195.712ZM135.277 187.361L124.644 180.302L131.703 169.668L142.336 176.727L135.277 187.361ZM122.701 179.02L112.097 171.981L119.157 161.348L129.76 168.387L122.701 179.02ZM110.155 170.689L99.5113 163.63L106.57 152.997L117.214 160.056L110.155 170.689ZM97.5789 162.349L86.9452 155.29L94.0043 144.656L104.638 151.715L97.5789 162.349ZM47.2944 128.976L36.6908 121.937L43.7498 111.303L54.3534 118.342L47.2944 128.976ZM34.7483 120.655L24.1147 113.596L31.1737 102.963L41.8073 110.022L34.7483 120.655ZM22.1722 112.305L11.5385 105.246L18.5976 94.6119L29.2312 101.671L22.1722 112.305ZM126.957 199.907L116.323 192.848L123.362 182.244L133.996 189.303L126.957 199.907ZM114.38 191.566L103.777 184.527L110.816 173.924L121.419 180.963L114.38 191.566ZM51.5498 149.873L40.9162 142.814L47.9552 132.21L58.5889 139.269L51.5498 149.873ZM38.9637 141.522L28.3601 134.483L35.3991 123.879L46.0027 130.918L38.9637 141.522ZM26.4176 133.201L15.784 126.142L22.823 115.539L33.4566 122.598L26.4176 133.201ZM13.8415 124.851L3.20785 117.792L10.2469 107.188L20.8805 114.247L13.8415 124.851ZM43.1991 162.449L32.5655 155.39L39.6245 144.756L50.2582 151.815L43.1991 162.449ZM30.623 154.108L20.0194 147.069L27.0785 136.436L37.6821 143.475L30.623 154.108ZM18.0769 145.778L7.44328 138.718L14.5023 128.085L25.136 135.144L18.0769 145.778ZM22.2923 166.654L11.6887 159.615L18.7278 149.012L29.3313 156.051L22.2923 166.654Z" fill="#00B8F1"/>
</g>
</svg>
