<svg width="262" height="209" viewBox="0 0 262 209" fill="none" xmlns="http://www.w3.org/2000/svg">
<g id="Layer-16">
<path id="Vector" d="M84.1496 132.021C84.1496 132.021 74.1676 172.599 116.546 198.244C128.888 205.716 152.683 214.877 171.277 201.255C190.651 187.052 204.043 151.875 204.043 151.875C204.043 151.875 220.797 144.804 240.971 126.93C253.123 116.158 266.316 99.8947 260.644 73.8395C254.593 46.074 240.751 17.8885 219.136 3.55563C203.663 -6.7164 173.617 6.17615 177.808 30.551C182.839 59.8167 201.263 66.128 201.543 76.7301C201.823 87.4222 175.888 100.865 175.888 100.865C175.888 100.865 177.268 101.045 159.324 93.6934C126.338 80.1708 75.908 65.2578 41.0811 73.9495C24.6078 78.0604 3.94377 90.2127 0.733132 123.869C-1.4473 146.784 -0.4471 169.508 27.9585 173.519C41.0711 175.37 50.0329 168.368 55.4739 160.187C60.5349 152.565 59.5948 129.641 59.5948 129.641L84.1496 132.021Z" fill="#FAF9F6"/>
</g>
</svg>
