<svg width="228" height="136" viewBox="0 0 228 136" fill="none" xmlns="http://www.w3.org/2000/svg">
<path id="Vector" d="M194.364 34.2947C177.809 44.1488 170.904 58.6521 170.904 58.6521C170.904 58.6521 163.049 39.2217 155.279 28.6943C150.758 22.5809 144.858 17.4828 138.349 13.5924C136.501 12.4916 134.481 11.658 132.364 11.0167C132.931 8.30199 133.006 4.82846 132.461 3.03291C131.563 0.0510239 106.778 -0.579554 101.338 0.478536C96.4107 1.44044 97.3726 5.02084 97.5863 8.49437C65.4909 10.8457 31.8565 25.8941 15.75 53.9922C-4.06512 88.5672 -2.30163 113.887 5.41494 122.832C21.9489 142.017 48.2302 138.18 63.984 124.467C107.964 140.51 145.371 129.565 147.594 110.702C154.595 114.934 163.797 121.881 174.004 120.363C198.116 116.762 224.482 69.9384 227.368 57.3054C231.782 37.9712 207.521 26.4712 194.375 34.2947H194.364Z" fill="#00243A"/>
</svg>
