<svg width="38" height="38" viewBox="0 0 38 38" fill="none" xmlns="http://www.w3.org/2000/svg">
<path id="Vector" d="M20.7688 29.2464C20.7688 29.2464 35.3756 30.1968 36.4761 24.8644C37.2864 20.9926 33.7548 20.0121 28.9026 19.3818C24.1204 18.7615 16.6569 20.4623 16.6569 20.4623C16.6569 20.4623 22.6397 18.7816 27.0117 19.0617C31.3937 19.3518 36.6862 21.0426 36.6862 21.0426C36.6862 21.0426 39.2474 14.0294 29.733 10.6878C23.9303 8.64687 14.0857 12.3586 14.0857 12.3586C14.0857 12.3586 19.3081 10.1776 24.7306 10.0175C30.6634 9.83742 32.6943 13.269 33.4747 11.108C36.5361 2.65411 16.5569 -4.34913 4.87145 6.66596C-3.53244 14.5796 3.31073 30.637 10.5641 35.1391C17.3372 39.3411 20.7488 29.2564 20.7488 29.2564L20.7688 29.2464Z" stroke="#19292E" stroke-width="2" stroke-linecap="round" stroke-linejoin="round"/>
</svg>
