<svg width="165" height="126" viewBox="0 0 165 126" fill="none" xmlns="http://www.w3.org/2000/svg">
<g id="Layer-32">
<path id="Vector" opacity="0.3" d="M82.7289 4.97474H69.236V0.55052C68.4152 0.630597 67.5944 0.760726 66.7737 0.860821V4.97474H53.3208V3.20305C52.5 3.41325 51.6693 3.54338 50.8585 3.78361V4.97474H47.2851C45.0429 5.70544 42.8408 6.52622 40.6688 7.43709H50.8585V20.9299H37.3656V8.85844C36.5348 9.24882 35.7141 9.63919 34.9033 10.0496V20.9299H21.4104V18.928C19.7288 20.3394 18.0973 21.8008 16.5658 23.3923H18.9481V36.8551H6.95663C6.55625 37.6459 6.24595 38.4967 5.8756 39.3175H18.9481V52.8103H5.49524V40.1583C4.54433 42.3404 3.73356 44.6225 3.03289 47.0048V52.8103H1.49142C1.32126 53.6812 1.25119 54.4319 1.11106 55.2727H3.03289V68.7656H0C0.0300286 69.6364 0.120113 70.4071 0.19018 71.2279H3.03289V82.4886C4.00382 84.3604 5.18494 85.8619 6.45616 87.1431H18.9481V92.7184C19.7789 92.7985 20.6597 92.9786 21.4104 92.9886V87.1431H34.9033V99.1745C36.745 100.456 38.6268 101.767 41.2894 103.098H50.8685V106.942C51.6993 107.222 52.44 107.533 53.3308 107.783V103.088H66.7837V109.745C67.6245 109.785 68.4052 109.695 69.246 109.705V103.088H82.7389V109.244C83.9901 109.124 84.1302 109.064 85.2012 108.934V103.088H98.6941V113.698C99.3848 114.499 100.266 115.35 101.156 116.201V103.088H114.609V116.581H101.537C102.438 117.422 103.509 118.223 104.61 119.043H114.609V124.158C115.41 124.429 116.221 124.699 117.072 124.929V119.043H130.564V126C131.405 125.93 132.216 125.81 133.027 125.69V119.033H146.52V120.615C148.301 119.404 150.003 118.113 151.514 116.581H148.982V103.088H160.283C160.613 102.298 160.833 101.437 161.134 100.626H148.982V87.1331H162.435V96.7422C163.936 91.4472 164.707 85.8619 164.897 80.2065V74.441C164.647 69.7765 163.686 65.1821 162.435 60.6378V68.7555H148.982V55.2627H160.823C160.533 54.4519 160.383 53.6011 160.053 52.8003H148.982V39.3075H152.866C152.315 38.4667 151.675 37.6759 151.094 36.8451H148.982V33.9223C148.131 32.8113 147.421 31.6101 146.52 30.5391V36.8451H133.027V23.3823H139.603C138.772 22.5815 138.042 21.6907 137.181 20.9199H133.027V17.7269C132.216 17.0863 131.405 16.4557 130.564 15.8451V20.9199H117.072V7.65729C114.91 6.6163 112.687 5.79552 110.455 4.96473H101.146V2.04195C100.376 1.86178 99.4848 1.81172 98.6841 1.66158V4.96473H85.1912V0.0400391C84.3804 9.17296e-07 83.5497 0.0200191 82.7289 0V4.96473V4.97474ZM114.609 20.9299H101.156V7.43709H114.609V20.9299ZM98.6841 20.9299H85.1912V7.43709H98.6841V20.9299ZM82.7289 20.9299H69.236V7.43709H82.7289V20.9299ZM66.7737 20.9299H53.3208V7.43709H66.7737V20.9299ZM130.564 36.8451H117.072V23.3823H130.564V36.8451ZM114.609 36.8451H101.156V23.3823H114.609V36.8451ZM98.6841 36.8451H85.1912V23.3823H98.6841V36.8451ZM82.7289 36.8451H69.236V23.3823H82.7289V36.8451ZM66.7737 36.8451H53.3208V23.3823H66.7737V36.8451ZM50.8585 36.8451H37.3656V23.3823H50.8585V36.8451ZM34.9033 36.8451H21.4104V23.3823H34.9033V36.8451ZM146.52 52.8003H133.027V39.3075H146.52V52.8003ZM130.564 52.8003H117.072V39.3075H130.564V52.8003ZM114.609 52.8003H101.156V39.3075H114.609V52.8003ZM98.6841 52.8003H85.1912V39.3075H98.6841V52.8003ZM82.7289 52.8003H69.236V39.3075H82.7289V52.8003ZM66.7737 52.8003H53.3208V39.3075H66.7737V52.8003ZM50.8585 52.8003H37.3656V39.3075H50.8585V52.8003ZM34.9033 52.8003H21.4104V39.3075H34.9033V52.8003ZM146.52 68.7555H133.027V55.2627H146.52V68.7555ZM130.564 68.7555H117.072V55.2627H130.564V68.7555ZM114.609 68.7555H101.156V55.2627H114.609V68.7555ZM98.6841 68.7555H85.1912V55.2627H98.6841V68.7555ZM82.7289 68.7555H69.236V55.2627H82.7289V68.7555ZM66.7737 68.7555H53.3208V55.2627H66.7737V68.7555ZM50.8585 68.7555H37.3656V55.2627H50.8585V68.7555ZM34.9033 68.7555H21.4104V55.2627H34.9033V68.7555ZM18.9481 68.7555H5.49524V55.2627H18.9481V68.7555ZM162.435 84.6807H148.982V71.2279H162.435V84.6807ZM146.52 84.6807H133.027V71.2279H146.52V84.6807ZM130.564 84.6807H117.072V71.2279H130.564V84.6807ZM114.609 84.6807H101.156V71.2279H114.609V84.6807ZM98.6841 84.6807H85.1912V71.2279H98.6841V84.6807ZM82.7289 84.6807H69.236V71.2279H82.7289V84.6807ZM66.7737 84.6807H53.3208V71.2279H66.7737V84.6807ZM50.8585 84.6807H37.3656V71.2279H50.8585V84.6807ZM34.9033 84.6807H21.4104V71.2279H34.9033V84.6807ZM18.9481 84.6807H5.49524V71.2279H18.9481V84.6807ZM146.52 100.636H133.027V87.1431H146.52V100.636ZM130.564 100.636H117.072V87.1431H130.564V100.636ZM114.609 100.636H101.156V87.1431H114.609V100.636ZM98.6841 100.636H85.1912V87.1431H98.6841V100.636ZM82.7289 100.636H69.236V87.1431H82.7289V100.636ZM66.7737 100.636H53.3208V87.1431H66.7737V100.636ZM50.8585 100.636H37.3656V87.1431H50.8585V100.636ZM146.52 116.591H133.027V103.098H146.52V116.591ZM130.564 116.591H117.072V103.098H130.564V116.591Z" fill="white"/>
</g>
</svg>
