<svg xmlns="http://www.w3.org/2000/svg" width="86" height="120" fill="none"><path fill="#FF2A58" d="M51.483 44.419c-9.453-.662-18.635-7.217-21.732-16.69l-19.306-3.258C4.451 23.48-.05 25.775 0 31.96c.04 6.035 4.4 13.532 10.185 14.866l18.714 3.167.411 53.738c.05 6.285 6.987 15.045 13.091 16.078 6.115 1.032 9.132-3.549 9.082-9.844z"/><path fill="#00B8F1" d="M85.985 57.951c-.04-7.488-5.463-15.066-12.851-16.309l-7.267-1.223c-3.208 2.186-6.075 3.539-10.044 3.95v58.168c3.558.852 6.195-1.504 6.726-4.651l6.074-36.808 13.783 2.326c3.89 0 3.588-5.453 3.588-5.453z"/><path fill="#FFD600" d="M55.883.284c-11.016-1.854-21.45 5.563-23.305 16.57-1.855 11.006 5.563 21.44 16.57 23.295 11.015 1.854 21.45-5.563 23.304-16.57C74.307 12.573 66.89 2.14 55.883.284m3.238 30.322c-5.072 5.192-14.064 3.298-16.62-3.478-.661-1.754-1.623-6.726 1.283-6.726l16.88 2.847c2.968 1.022-.17 5.954-1.543 7.357"/></svg>