<svg width="78" height="43" viewBox="0 0 78 43" fill="none" xmlns="http://www.w3.org/2000/svg">
<path id="Vector" d="M37.3629 1.29775C37.3629 1.29775 49.1184 -0.772008 63.8981 6.09036C71.7551 9.73757 78.3663 14.4297 76.7487 17.0621C74.6387 20.4682 67.1735 17.5142 67.1735 17.5142L56.6841 14.0881C56.6841 14.0881 59.9294 15.5148 66.1186 19.5338C71.8054 23.2312 76.2262 27.7827 74.8196 31.9222C73.423 36.0215 65.1942 29.6917 60.9944 27.2502C56.7946 24.8087 51.6503 22.6585 51.6503 22.6585C51.6503 22.6585 56.6539 25.8335 58.7639 27.843C62.18 31.0983 67.8668 38.031 63.3957 40.8945C60.492 42.7533 57.317 39.0659 52.8058 35.2177C45.5214 28.9884 35.2329 24.256 30.9929 24.236C25.6979 24.2058 24.1506 27.2301 17.1476 31.4801C8.23552 36.8756 3.38263 36.2928 1.5942 33.9317C-2.46495 28.5865 15.761 10.6016 15.761 10.6016" stroke="#19292E" stroke-width="2" stroke-linecap="round" stroke-linejoin="round"/>
</svg>
