<svg width="79" height="79" viewBox="0 0 79 79" fill="none" xmlns="http://www.w3.org/2000/svg">
<g id="Group">
<path id="Vector" d="M3.45639 55.637C-5.45371 35.7303 3.45639 12.3665 23.363 3.45639C43.2696 -5.45371 66.6335 3.45639 75.5436 23.363C84.4537 43.2696 75.5436 66.6335 55.637 75.5436C35.7303 84.4537 12.3665 75.5436 3.45639 55.637Z" fill="#19292E"/>
<path id="Vector_2" d="M23.3732 3.46658C20.6014 4.70634 18.0815 6.28878 15.7532 8.04258C11.7417 17.3155 8.74809 29.4712 11.8525 42.534C16.1665 60.6465 27.6569 72.0462 37.081 78.7489C39.7722 78.9202 42.4735 78.7892 45.1848 78.386C40.0343 70.5443 32.7671 57.9049 29.0478 42.8666C25.0867 26.8203 24.9052 12.4976 25.3588 2.80134C24.7036 3.05333 24.0182 3.16419 23.3631 3.45649L23.3732 3.46658ZM32.7973 0.735083C37.9882 8.86908 44.9026 21.317 49.4282 37.1516C53.7421 52.2605 53.6716 67.0569 53.0769 76.3903C53.9235 76.0779 54.8004 75.9065 55.637 75.5235C57.1792 74.8281 58.5298 73.8907 59.9409 73.0339C64.9201 62.5515 69.5666 46.6262 64.1843 28.3423C60.3844 15.4509 51.7867 6.40974 43.7233 0.362154C40.125 -0.0309389 36.4763 0.0799243 32.8074 0.71492L32.7973 0.735083Z" fill="#F2F2F2"/>
</g>
</svg>
