<svg width="158" height="146" viewBox="0 0 158 146" fill="none" xmlns="http://www.w3.org/2000/svg">
<g id="Group">
<path id="Vector" opacity="0.3" d="M99.4188 5.85206C101.215 5.85206 102.801 5.11935 104.026 4.00522C100.272 3.04166 96.5983 2.25875 93.0552 1.65652C94.1191 4.10559 96.5682 5.85206 99.4188 5.85206Z" fill="white"/>
<path id="Vector_2" opacity="0.3" d="M92.5031 47.125C92.5031 50.9492 95.5946 54.0908 99.4187 54.0908C103.243 54.0908 106.334 50.9492 106.334 47.125C106.334 43.3009 103.243 40.2094 99.4187 40.2094C95.5946 40.2094 92.5031 43.3009 92.5031 47.125Z" fill="white"/>
<path id="Vector_3" opacity="0.3" d="M113.119 28.9578C116.943 28.9578 120.035 25.8663 120.035 22.0422C120.035 18.218 116.943 15.1266 113.119 15.1266C109.295 15.1266 106.204 18.218 106.204 22.0422C106.204 25.8663 109.295 28.9578 113.119 28.9578Z" fill="white"/>
<path id="Vector_4" opacity="0.3" d="M126.117 54.0807C129.942 54.0807 133.033 50.9391 133.033 47.115C133.033 43.2908 129.942 40.1994 126.117 40.1994C122.293 40.1994 119.202 43.2908 119.202 47.115C119.202 50.9391 122.293 54.0807 126.117 54.0807Z" fill="white"/>
<path id="Vector_5" opacity="0.3" d="M86.4206 28.9578C90.2447 28.9578 93.3362 25.8663 93.3362 22.0422C93.3362 18.218 90.2447 15.1266 86.4206 15.1266C82.5964 15.1266 79.4548 18.218 79.4548 22.0422C79.4548 25.8663 82.5964 28.9578 86.4206 28.9578Z" fill="white"/>
<path id="Vector_6" opacity="0.3" d="M59.6715 28.9578C63.4956 28.9578 66.6373 25.8663 66.6373 22.0422C66.6373 18.218 63.4956 15.1266 59.6715 15.1266C55.8473 15.1266 52.7559 18.218 52.7559 22.0422C52.7559 25.8663 55.8473 28.9578 59.6715 28.9578Z" fill="white"/>
<path id="Vector_7" opacity="0.3" d="M72.6797 5.85217C76.0521 5.85217 78.7521 3.38303 79.3644 0.18118C78.0997 0.130995 76.7748 -0.009526 75.5402 0.000511156C72.2882 0.0306226 69.1867 0.281546 66.0852 0.69307C66.8782 3.63396 69.4778 5.86221 72.6797 5.86221V5.85217Z" fill="white"/>
<path id="Vector_8" opacity="0.3" d="M139.818 28.9578C139.969 28.9578 140.089 28.8775 140.23 28.8675C138.052 25.7258 135.864 22.6043 133.314 19.9244C133.093 20.5968 132.903 21.2994 132.903 22.0422C132.903 25.8663 135.994 28.9578 139.818 28.9578Z" fill="white"/>
<path id="Vector_9" opacity="0.3" d="M126.117 100.382C129.942 100.382 133.033 97.2907 133.033 93.4665C133.033 89.6423 129.942 86.5509 126.117 86.5509C122.293 86.5509 119.202 89.6423 119.202 93.4665C119.202 97.2907 122.293 100.382 126.117 100.382Z" fill="white"/>
<path id="Vector_10" opacity="0.3" d="M59.6715 63.3552C55.8473 63.3552 52.7559 66.4466 52.7559 70.2708C52.7559 74.0949 55.8473 77.1864 59.6715 77.1864C63.4956 77.1864 66.6373 74.0949 66.6373 70.2708C66.6373 66.4466 63.4956 63.3552 59.6715 63.3552Z" fill="white"/>
<path id="Vector_11" opacity="0.3" d="M45.9708 54.0807C49.795 54.0807 52.8864 50.9391 52.8864 47.115C52.8864 43.2908 49.795 40.1994 45.9708 40.1994C42.1467 40.1994 39.0552 43.2908 39.0552 47.115C39.0552 50.9391 42.1467 54.0807 45.9708 54.0807Z" fill="white"/>
<path id="Vector_12" opacity="0.3" d="M72.6796 54.0807C76.5038 54.0807 79.6454 50.9391 79.6454 47.115C79.6454 43.2908 76.5038 40.1994 72.6796 40.1994C68.8554 40.1994 65.764 43.2908 65.764 47.115C65.764 50.9391 68.8554 54.0807 72.6796 54.0807Z" fill="white"/>
<path id="Vector_13" opacity="0.3" d="M152.636 54.0406C151.291 50.0258 149.745 46.1012 147.928 42.2369C146.674 43.4916 145.901 45.218 145.901 47.125C145.901 50.889 148.902 53.9403 152.636 54.0406Z" fill="white"/>
<path id="Vector_14" opacity="0.3" d="M132.903 70.2708C132.903 74.0949 135.994 77.1864 139.818 77.1864C143.642 77.1864 146.734 74.0949 146.734 70.2708C146.734 66.4466 143.642 63.3552 139.818 63.3552C135.994 63.3552 132.903 66.4466 132.903 70.2708Z" fill="white"/>
<path id="Vector_15" opacity="0.3" d="M86.4206 77.1864C90.2447 77.1864 93.3362 74.0949 93.3362 70.2708C93.3362 66.4466 90.2447 63.3552 86.4206 63.3552C82.5964 63.3552 79.4548 66.4466 79.4548 70.2708C79.4548 74.0949 82.5964 77.1864 86.4206 77.1864Z" fill="white"/>
<path id="Vector_16" opacity="0.3" d="M113.119 77.1864C116.943 77.1864 120.035 74.0949 120.035 70.2708C120.035 66.4466 116.943 63.3552 113.119 63.3552C109.295 63.3552 106.204 66.4466 106.204 70.2708C106.204 74.0949 109.295 77.1864 113.119 77.1864Z" fill="white"/>
<path id="Vector_17" opacity="0.3" d="M99.4187 100.382C103.243 100.382 106.334 97.2907 106.334 93.4665C106.334 89.6423 103.243 86.5509 99.4187 86.5509C95.5946 86.5509 92.5031 89.6423 92.5031 93.4665C92.5031 97.2907 95.5946 100.382 99.4187 100.382Z" fill="white"/>
<path id="Vector_18" opacity="0.3" d="M113.119 109.656C109.295 109.656 106.204 112.748 106.204 116.572C106.204 120.396 109.295 123.488 113.119 123.488C116.943 123.488 120.035 120.396 120.035 116.572C120.035 112.748 116.943 109.656 113.119 109.656Z" fill="white"/>
<path id="Vector_19" opacity="0.3" d="M79.6353 93.4665C79.6353 89.6423 76.4937 86.5509 72.6695 86.5509C68.8454 86.5509 65.7539 89.6423 65.7539 93.4665C65.7539 97.2907 68.8454 100.382 72.6695 100.382C76.4937 100.382 79.6353 97.2907 79.6353 93.4665Z" fill="white"/>
<path id="Vector_20" opacity="0.3" d="M73.322 134.92C74.9882 136.867 76.9554 138.704 79.3644 140.32C78.7521 137.399 76.3532 135.221 73.322 134.92Z" fill="white"/>
<path id="Vector_21" opacity="0.3" d="M99.4187 134.78C95.5946 134.78 92.5031 137.871 92.5031 141.695C92.5031 143.03 92.9548 144.184 93.6072 145.248C94.8819 145.429 95.9459 145.82 97.341 145.891C99.9206 146.021 102.36 146.031 104.718 145.941C105.662 144.756 106.334 143.331 106.334 141.695C106.334 137.871 103.243 134.78 99.4187 134.78Z" fill="white"/>
<path id="Vector_22" opacity="0.3" d="M126.117 134.78C122.293 134.78 119.202 137.871 119.202 141.695C119.202 142.287 119.382 142.809 119.523 143.351C124.15 142.016 128.285 140.28 131.839 138.052C130.614 136.124 128.577 134.78 126.117 134.78Z" fill="white"/>
<path id="Vector_23" opacity="0.3" d="M152.816 86.5509C148.992 86.5509 145.901 89.6423 145.901 93.4665C145.901 97.2906 148.992 100.382 152.816 100.382C154.191 100.382 155.386 99.8702 156.46 99.1776C156.61 98.5754 156.821 97.923 156.962 97.3308C157.564 94.8014 157.745 91.8505 157.935 88.8895C156.671 87.4643 154.874 86.5409 152.816 86.5409V86.5509Z" fill="white"/>
<path id="Vector_24" opacity="0.3" d="M139.818 109.656C135.994 109.656 132.903 112.748 132.903 116.572C132.903 120.396 135.994 123.488 139.818 123.488C143.642 123.488 146.734 120.396 146.734 116.572C146.734 112.748 143.642 109.656 139.818 109.656Z" fill="white"/>
<path id="Vector_25" opacity="0.3" d="M32.9728 28.9578C36.7969 28.9578 39.8884 25.8663 39.8884 22.0422C39.8884 18.218 36.7969 15.1266 32.9728 15.1266C32.5713 15.1266 32.2099 15.2872 31.8185 15.3574C30.052 16.7024 28.2553 17.937 26.5189 19.4626C26.2077 20.2556 26.0572 21.1388 26.0572 22.0422C26.0572 25.8663 29.1486 28.9578 32.9728 28.9578Z" fill="white"/>
<path id="Vector_26" opacity="0.3" d="M6.27383 63.3552C3.98536 63.3552 1.96788 64.4593 0.703202 66.1656C0.703202 66.1656 0.703198 66.1856 0.683124 66.1856C0.100968 69.1466 -0.00943315 71.6157 0.000604013 73.2016C0.000604013 73.2117 0.0005985 73.2217 0.0106357 73.2418C1.12476 75.5804 3.50357 77.1964 6.26379 77.1964C10.0879 77.1964 13.1794 74.105 13.1794 70.2808C13.1794 66.4567 10.0879 63.3652 6.26379 63.3652L6.27383 63.3552Z" fill="white"/>
<path id="Vector_27" opacity="0.3" d="M19.2819 54.0807C23.1061 54.0807 26.1975 50.9391 26.1975 47.115C26.1975 43.2908 23.1061 40.1994 19.2819 40.1994C15.4578 40.1994 12.3663 43.2908 12.3663 47.115C12.3663 50.9391 15.4578 54.0807 19.2819 54.0807Z" fill="white"/>
<path id="Vector_28" opacity="0.3" d="M19.2821 86.5509C15.4579 86.5509 12.3665 89.6423 12.3665 93.4665C12.3665 93.5568 12.3062 93.6974 12.3865 93.7375C17.0638 96.3773 22.6947 97.1501 22.6947 97.1501C22.6947 97.1501 23.6281 98.4249 23.8088 98.6858C25.2241 97.4211 26.1977 95.5241 26.1977 93.4665C26.1977 89.6423 23.1062 86.5509 19.2821 86.5509Z" fill="white"/>
<path id="Vector_29" opacity="0.3" d="M45.9708 86.5509C42.1467 86.5509 39.0552 89.6423 39.0552 93.4665C39.0552 97.2907 42.1467 100.382 45.9708 100.382C49.795 100.382 52.8864 97.2907 52.8864 93.4665C52.8864 89.6423 49.795 86.5509 45.9708 86.5509Z" fill="white"/>
<path id="Vector_30" opacity="0.3" d="M32.9728 63.3552C29.1486 63.3552 26.0572 66.4466 26.0572 70.2708C26.0572 74.0949 29.1486 77.1864 32.9728 77.1864C36.7969 77.1864 39.8884 74.0949 39.8884 70.2708C39.8884 66.4466 36.7969 63.3552 32.9728 63.3552Z" fill="white"/>
</g>
</svg>
