<svg width="51" height="41" viewBox="0 0 51 41" fill="none" xmlns="http://www.w3.org/2000/svg">
<g id="Layer-8">
<g id="Vector">
<path d="M49.8265 28.8796C49.8265 28.8796 43.8264 34.4381 37.7461 35.1004C31.6758 35.7626 23.2477 35.3211 23.2477 35.3211L17.5185 32.1706C17.5185 32.1706 25.8162 35.582 24.4416 38.2107C22.164 42.5653 8.53853 38.4315 8.35792 31.4682C8.19739 24.9665 21.9935 22.8896 21.9935 22.8896C21.9935 22.8896 18.1105 23.5016 14.7392 24.9866C12.2911 26.0702 10.1941 27.3444 9.19071 28.5685C7.92648 30.1037 1.2241 29.0802 3.32111 21.7658C4.53516 17.5317 8.99004 16.1571 8.99004 16.1571C13.7359 14.1102 17.3881 13.8795 17.3881 13.8795C17.3881 13.8795 14.4483 14.1905 9.14054 16.0668C4.41475 17.7424 3.70237 20.4414 3.70237 20.4414C3.70237 20.4414 1.00335 18.6855 1.00335 15.3042C1.00335 8.37106 7.16393 3.13357 15.1606 1.67871C30.4718 -1.11061 45.4819 5.64194 45.4819 5.64194" fill="#FFD600"/>
<path d="M49.8265 28.8796C49.8265 28.8796 43.8264 34.4381 37.7461 35.1004C31.6758 35.7626 23.2477 35.3211 23.2477 35.3211L17.5185 32.1706C17.5185 32.1706 25.8162 35.582 24.4416 38.2107C22.164 42.5653 8.53853 38.4315 8.35792 31.4682C8.19739 24.9665 21.9935 22.8896 21.9935 22.8896C21.9935 22.8896 18.1105 23.5016 14.7392 24.9866C12.2911 26.0702 10.1941 27.3444 9.19071 28.5685C7.92648 30.1037 1.2241 29.0802 3.32111 21.7658C4.53516 17.5317 8.99004 16.1571 8.99004 16.1571C13.7359 14.1102 17.3881 13.8795 17.3881 13.8795C17.3881 13.8795 14.4483 14.1905 9.14054 16.0668C4.41475 17.7424 3.70237 20.4414 3.70237 20.4414C3.70237 20.4414 1.00335 18.6855 1.00335 15.3042C1.00335 8.37106 7.16393 3.13357 15.1606 1.67871C30.4718 -1.11061 45.4819 5.64194 45.4819 5.64194" stroke="#19292E" stroke-width="2" stroke-linecap="round" stroke-linejoin="round"/>
</g>
</g>
</svg>
