<svg width="217" height="125" viewBox="0 0 217 125" fill="none" xmlns="http://www.w3.org/2000/svg">
<g id="Layer-31">
<path id="Vector" opacity="0.3" d="M110.722 0.0100282C109.809 0.0100282 108.896 0.0401302 107.983 0.0501639V5.91988H94.1964V0.692321C93.2934 0.77259 92.3502 0.812724 91.4572 0.903028V5.90985H77.6709V2.90977C76.7177 3.10041 75.8649 3.39139 74.9317 3.59206V5.89982H65.771C63.0017 6.73261 60.3728 7.64569 57.8945 8.63902H58.4062V22.4253H44.6199V15.7027C43.7068 16.3048 42.8138 16.8867 41.8807 17.549V22.4354H35.5394C34.4056 23.3585 33.2918 24.1812 32.158 25.1746H41.8807V38.9609H28.0944V29.0275C27.1813 29.9004 26.2582 30.7332 25.3552 31.6363V38.9609H18.7229C17.9503 39.8739 17.1576 40.7569 16.4151 41.7001H25.3652V55.4864H11.5789V48.3825C10.6257 49.7973 9.70259 51.212 8.8397 52.6669V55.4964H7.2945C6.79282 56.4095 6.251 57.3125 5.79948 58.2356H8.8397V72.0219H0.732461C0.521753 72.935 0.501685 73.8481 0.35118 74.7611H8.82966V88.5475H0C0.180607 89.5308 0.551854 90.3736 0.81273 91.2867H8.81963V103.999C10.5053 105.454 12.3314 106.749 14.3382 107.812H25.3451V111.454C26.2682 111.625 27.1412 111.896 28.0843 112.006V107.812H41.8707V111.404C42.8439 111.113 43.757 110.772 44.6099 110.381V107.812H106.277C107.22 107.009 107.882 106.026 108.635 105.073H44.6099V91.2867H113.983C114.103 90.3335 114.224 89.4405 114.284 88.5475H44.6199V74.7611H58.4062V125L61.1454 124.739V74.7611H74.9317V123.545L77.6709 123.284V74.7611H91.4572V113.22L94.1964 113.01V74.7712H106.147L137.321 72.032H127.257V58.2457H141.044V71.6908L143.783 71.4801V58.2457H157.569V72.032H153.155C153.255 72.2025 154.419 74.2795 154.7 74.7712H157.569V79.8181C158.533 81.5138 159.044 82.4369 160.309 84.6544V74.7611H174.095V88.5475H162.536C163.048 89.4405 163.008 89.3903 163.519 90.3034C163.71 90.6445 163.971 90.9455 164.161 91.2867H174.095V105.073H173.453C174.536 106.367 175.67 107.541 176.834 108.665V107.812H190.62V115.99C191.523 116.1 192.426 116.15 193.36 116.12V107.812H207.146V110.421C208.902 108.866 210.407 107.08 211.681 105.073H209.885V91.2867H216.517C216.658 90.3736 216.818 89.4806 216.909 88.5475H209.885V74.7611H216.267C216.116 73.8481 216.076 72.925 215.885 72.0219H209.895V58.2356H210.969C209.895 56.0081 208.581 53.6904 207.156 51.3023V55.4964H193.37V41.7101H200.644C199.952 40.7971 199.37 39.884 198.627 38.9709H193.36V33.0209C192.436 32.0176 191.594 31.0142 190.62 30.0208V38.9709H176.834V25.1846H185.313C184.269 24.2615 183.276 23.3384 182.192 22.4454H176.844V18.4219C175.951 17.7797 175.028 17.1576 174.105 16.5355V22.4454H160.319V8.90993C157.83 7.79619 155.292 6.80285 152.653 5.90985H143.793V3.34122C143.281 3.23085 142.82 3.02014 142.298 2.90977C141.887 2.8295 141.465 2.80943 141.054 2.7392V5.90985H127.268V0.812728C126.354 0.722424 125.441 0.672257 124.528 0.602021V5.90985H110.742V0L110.722 0.0100282ZM61.1454 8.65909H74.9317V22.4454H61.1454V8.65909ZM77.6709 8.65909H91.4572V22.4454H77.6709V8.65909ZM94.1964 8.65909H107.983V22.4454H94.1964V8.65909ZM110.722 8.65909H124.508V22.4454H110.722V8.65909ZM127.247 8.65909H141.034V22.4454H127.247V8.65909ZM143.773 8.65909H157.559V22.4454H143.773V8.65909ZM44.6199 25.1846H58.4062V38.9709H44.6199V25.1846ZM61.1454 25.1846H74.9317V38.9709H61.1454V25.1846ZM77.6709 25.1846H91.4572V38.9709H77.6709V25.1846ZM94.1964 25.1846H107.983V38.9709H94.1964V25.1846ZM110.722 25.1846H124.508V38.9709H110.722V25.1846ZM127.247 25.1846H141.034V38.9709H127.247V25.1846ZM143.773 25.1846H157.559V38.9709H143.773V25.1846ZM160.309 25.1846H174.095V38.9709H160.309V25.1846ZM28.0843 41.7101H41.8707V55.4964H28.0843V41.7101ZM44.6199 41.7101H58.4062V55.4964H44.6199V41.7101ZM61.1454 41.7101H74.9317V55.4964H61.1454V41.7101ZM77.6709 41.7101H91.4572V55.4964H77.6709V41.7101ZM94.1964 41.7101H107.983V55.4964H94.1964V41.7101ZM110.722 41.7101H124.508V55.4964H110.722V41.7101ZM127.247 41.7101H141.034V55.4964H127.247V41.7101ZM143.773 41.7101H157.559V55.4964H143.773V41.7101ZM160.309 41.7101H174.095V55.4964H160.309V41.7101ZM176.834 41.7101H190.62V55.4964H176.834V41.7101ZM11.5588 58.2356H25.3451V72.0219H11.5588V58.2356ZM28.0843 58.2356H41.8707V72.0219H28.0843V58.2356ZM44.6199 58.2356H58.4062V72.0219H44.6199V58.2356ZM61.1454 58.2356H74.9317V72.0219H61.1454V58.2356ZM77.6709 58.2356H91.4572V72.0219H77.6709V58.2356ZM94.1964 58.2356H107.983V72.0219H94.1964V58.2356ZM110.722 58.2356H124.508V72.0219H110.722V58.2356ZM160.309 58.2356H174.095V72.0219H160.309V58.2356ZM176.834 58.2356H190.62V72.0219H176.834V58.2356ZM193.36 58.2356H207.146V72.0219H193.36V58.2356ZM11.5588 74.7611H25.3451V88.5475H11.5588V74.7611ZM28.0843 74.7611H41.8707V88.5475H28.0843V74.7611ZM176.834 74.7611H190.62V88.5475H176.834V74.7611ZM193.36 74.7611H207.146V88.5475H193.36V74.7611ZM11.5588 91.2967H25.3451V105.083H11.5588V91.2967ZM28.0843 91.2967H41.8707V105.083H28.0843V91.2967ZM176.834 91.2967H190.62V105.083H176.834V91.2967ZM193.36 91.2967H207.146V105.083H193.36V91.2967Z" fill="#00B8F1"/>
</g>
</svg>
