<svg width="95" height="156" viewBox="0 0 95 156" fill="none" xmlns="http://www.w3.org/2000/svg">
<g id="Group">
<path id="Vector" d="M26.113 53.8893C26.113 40.6583 36.8438 29.9275 50.0748 29.9275C63.3058 29.9275 74.0366 40.6583 74.0366 53.8893C74.0366 67.1203 63.3058 77.8511 50.0748 77.8511C36.8438 77.8511 26.113 67.1203 26.113 53.8893Z" stroke="#FFD600" stroke-width="2" stroke-linecap="round" stroke-linejoin="round"/>
<path id="Vector_2" d="M20.6326 103.953C20.6326 89.5321 32.3235 77.8413 46.7446 77.8413C61.1657 77.8413 72.8565 89.5321 72.8565 103.953C72.8565 118.374 61.1657 130.065 46.7446 130.065C32.3235 130.065 20.6326 118.374 20.6326 103.953Z" stroke="#FFD600" stroke-width="2" stroke-linecap="round" stroke-linejoin="round"/>
<path id="Vector_3" d="M60.3756 32.2778C60.3756 32.2778 80.0371 2.03557 87.1576 7.71599C93.4281 12.7264 71.6764 41.3185 71.6764 41.3185" stroke="#FFD600" stroke-width="2" stroke-linecap="round" stroke-linejoin="round"/>
<path id="Vector_4" d="M56.1252 30.8677C56.1252 30.8677 62.7157 1.57548 54.6451 1.00544C48.0146 0.545401 42.8242 31.2577 42.8242 31.2577" stroke="#FFD600" stroke-width="2" stroke-linecap="round" stroke-linejoin="round"/>
<path id="Vector_5" d="M59.0655 127.125C59.0655 127.125 63.9258 153.977 54.8551 154.097C45.7845 154.217 42.8342 130.065 42.8342 130.065" stroke="#FFD600" stroke-width="2" stroke-linecap="round" stroke-linejoin="round"/>
<path id="Vector_6" d="M28.3732 86.5518C28.3732 86.5518 3.37133 75.611 1.16117 84.4117C-1.049 93.2123 20.3526 100.633 20.3526 100.633" stroke="#FFD600" stroke-width="2" stroke-linecap="round" stroke-linejoin="round"/>
<path id="Vector_7" d="M33.4237 44.0387C34.7338 43.8887 35.9339 44.7988 36.0739 46.1189C36.2139 47.439 35.2438 48.6491 33.9337 48.7991C32.6236 48.9491 31.4735 47.989 31.3335 46.6689C31.1935 45.3488 32.1136 44.1987 33.4337 44.0387H33.4237Z" fill="#19292E"/>
<path id="Vector_8" d="M47.5146 47.079C48.8247 46.929 50.0248 47.839 50.1648 49.1591C50.3048 50.4792 49.3347 51.6893 48.0246 51.8393C46.7145 51.9894 45.5644 51.0293 45.4244 49.7092C45.2844 48.3891 46.2045 47.239 47.5246 47.079H47.5146Z" fill="#19292E"/>
<path id="Vector_9" d="M38.1639 51.1191C39.794 50.9091 41.5541 51.6091 42.1042 52.7292C42.6542 53.8493 41.7542 54.9494 40.134 55.1694C38.5139 55.3794 36.7838 54.6293 36.2338 53.5093C35.6937 52.3892 36.5438 51.3391 38.1639 51.1291V51.1191Z" fill="#19292E"/>
<path id="Vector_10" d="M56.5853 58.6996C57.5054 57.2895 57.1154 55.3994 55.7153 54.4893C54.3152 53.5792 52.435 53.9893 51.515 55.3994C50.5949 56.8095 50.9849 58.6996 52.385 59.6097C53.7851 60.5198 55.6653 60.1097 56.5853 58.6996Z" fill="#FF2A58"/>
<path id="Vector_11" d="M39.1641 53.6893L38.224 58.7197" stroke="#19292E" stroke-width="2" stroke-linecap="round" stroke-linejoin="round"/>
<path id="Vector_12" d="M72.3364 102.993C72.3364 102.993 97.9583 93.6023 93.4679 85.7118C88.9776 77.8212 66.996 87.4719 66.996 87.4719" stroke="#FFD600" stroke-width="2" stroke-linecap="round" stroke-linejoin="round"/>
</g>
</svg>
