<svg width="156" height="124" viewBox="0 0 156 124" fill="none" xmlns="http://www.w3.org/2000/svg">
<g id="Layer-5">
<path id="Vector" d="M20.5893 54.4436C33.809 53.8527 39.798 58.9603 39.798 58.9603C39.798 58.9603 39.5276 16.7773 73.0576 4.90962C118.876 -11.3046 143.112 17.208 148.13 24.6491C153.758 33.0016 167.399 79.2306 136.332 100.342C134.009 101.924 87.7696 100.653 87.7696 100.653C87.7696 100.653 80.3986 116.126 51.4253 123.156C33.5687 127.483 11.8863 113.742 3.96448 92.6807C-5.3995 67.7835 9.35252 54.9343 20.5793 54.4436H20.5893Z" fill="#00B8F1"/>
<path id="Vector_2" d="M10.4141 104.599C7.7902 100.993 5.59692 96.9972 3.9745 92.6808C-5.38948 67.7836 9.36254 54.9344 20.5893 54.4437C33.809 53.8528 39.798 58.9604 39.798 58.9604C39.798 58.9604 39.7279 48.635 43.7238 36.7673" stroke="#19292E" stroke-width="2" stroke-linecap="round" stroke-linejoin="round"/>
</g>
</svg>
