<svg width="40" height="41" viewBox="0 0 40 41" fill="none" xmlns="http://www.w3.org/2000/svg">
<g id="Group">
<path id="Vector" d="M38.3917 36.4327C38.3917 36.4327 42.7241 12.0015 27.8366 3.59211C22.4619 0.547152 16.3516 0.0975638 9.68945 2.83598C2.57774 5.75832 -0.589824 12.5124 1.82162 16.1091C2.65949 17.3557 4.63156 17.9177 4.63156 17.9177C4.63156 17.9177 5.28551 14.4538 8.637 12.7372C12.3972 10.806 14.5532 10.2747 14.5532 10.2747C14.5532 10.2747 11.8557 10.8162 8.5246 12.8189C8.5246 12.8189 5.34681 14.3005 4.86657 17.5703C4.04913 23.231 9.13768 23.3128 9.93468 22.0458C10.558 21.0342 11.9885 19.8693 13.7051 18.8169C16.0655 17.3659 18.8958 16.5178 18.8958 16.5178C18.8958 16.5178 8.98441 19.4402 9.60771 24.2937C10.3945 30.4347 15.1867 30.8128 17.9558 29.4333C20.9599 27.9313 23.8311 25.1214 22.4823 23.5376C20.5512 21.2896 16.1472 24.2528 16.1472 24.2528" stroke="#19292E" stroke-width="2" stroke-linecap="round" stroke-linejoin="round"/>
<path id="Vector_2" d="M18.5178 29.4537C18.5178 29.4537 20.2651 36.4122 23.6472 39.9476" stroke="#19292E" stroke-width="2" stroke-linecap="round" stroke-linejoin="round"/>
</g>
</svg>
