<svg width="38" height="54" viewBox="0 0 38 54" fill="none" xmlns="http://www.w3.org/2000/svg">
<g id="Layer-31">
<path id="Vector" d="M33.2493 4.96073C33.2493 4.96073 38.3912 22.9019 35.9661 36.5866C34.4266 45.2704 28.0873 52.6863 23.7404 50.9757C23.4184 50.8449 27.0207 45.6528 27.4635 39.2431C27.9062 32.8334 26.8295 28.8688 26.8295 28.8688C26.8295 28.8688 28.027 32.1693 27.1817 39.6355C26.417 46.498 24.2234 52.3442 19.806 52.9681C15.4289 53.5819 19.1017 43.0768 19.4136 38.1463C19.7255 33.2157 19.0011 27.6614 19.0011 27.6614C19.0011 27.6614 20.4702 33.4774 18.7797 41.8492C17.4615 48.3897 16.1333 50.3821 12.2694 50.8449C7.96268 51.3581 9.3211 44.4956 9.8544 36.6168C10.4179 28.245 9.67327 18.9675 9.67327 18.9675L9.81415 36.3451C9.81415 36.3451 -2.18015 33.9302 1.82466 1.00623" stroke="#00B8F1" stroke-width="2" stroke-linecap="round" stroke-linejoin="round"/>
</g>
</svg>
