<svg width="290" height="170" viewBox="0 0 290 170" fill="none" xmlns="http://www.w3.org/2000/svg">
<g id="xml-version1.0-encodingUTF-8-standaloneno-DOCTYPE-svg-PUBLIC--W3CDTD-SVG-1.1EN-httpwww.w3.orgGraphicsSVG1.1DTDsvg11.dtd----Created-with-Vectornator-httpvectornator.io----svg-height100-stroke-miterlimit10-stylefill-rulenonzeroclip-ruleevenoddstroke-line">
<path id="Vector" opacity="0.3" d="M140.715 0C135.176 0 130.678 4.49797 130.678 10.0478C130.678 15.5976 135.176 20.0956 140.715 20.0956C146.255 20.0956 150.763 15.5976 150.763 10.0478C150.763 4.50799 146.265 0 140.715 0ZM195.022 0.440776C190.594 1.48262 187.218 5.28937 187.218 10.0378C187.218 15.5776 191.716 20.0856 197.256 20.0856C202.795 20.0856 207.293 15.5876 207.293 10.0378C207.293 7.43317 206.242 5.10905 204.609 3.31587C201.373 2.21392 198.207 1.33235 195.012 0.430756L195.022 0.440776ZM92.2395 4.47793C86.2589 6.3212 80.2783 8.47501 74.3278 10.8793C74.7786 16.0084 78.9259 20.0956 84.1752 20.0956C89.715 20.0956 94.1529 15.5976 94.1529 10.0478C94.1529 7.93406 93.3314 6.10081 92.2395 4.47793ZM56.7967 37.4263C51.2569 37.4263 46.7589 41.9243 46.7589 47.4741C46.7589 53.024 51.2569 57.4518 56.7967 57.4518C62.3365 57.4518 66.8445 53.014 66.8445 47.4741C66.8445 41.9343 62.3465 37.4263 56.7967 37.4263ZM113.347 37.4263C107.807 37.4263 103.309 41.9243 103.309 47.4741C103.309 53.024 107.807 57.4518 113.347 57.4518C118.887 57.4518 123.385 53.014 123.385 47.4741C123.385 41.9343 118.887 37.4263 113.347 37.4263ZM169.947 37.4263C164.407 37.4263 159.909 41.9243 159.909 47.4741C159.909 53.024 164.407 57.4518 169.947 57.4518C175.487 57.4518 179.925 53.014 179.925 47.4741C179.925 41.9343 175.487 37.4263 169.947 37.4263ZM226.487 37.4263C220.948 37.4263 216.44 41.9243 216.44 47.4741C216.44 53.024 220.938 57.4518 226.487 57.4518C232.037 57.4518 236.525 53.014 236.525 47.4741C236.525 41.9343 232.027 37.4263 226.487 37.4263ZM273.12 48.1052C273.361 51.6716 275.424 54.6669 278.43 56.2296C278.259 55.8991 278.159 55.5384 277.979 55.2078C276.686 52.7635 274.833 50.4594 273.12 48.1052ZM27.5749 74.7926C22.0351 74.7926 17.5371 79.2905 17.5371 84.8404C17.5371 90.3902 22.0351 94.8882 27.5749 94.8882C33.1147 94.8882 37.6127 90.3902 37.6127 84.8404C37.6127 79.2905 33.1147 74.7926 27.5749 74.7926ZM140.715 74.7926C135.176 74.7926 130.678 79.2905 130.678 84.8404C130.678 90.3902 135.176 94.8882 140.715 94.8882C146.255 94.8882 150.763 90.3902 150.763 84.8404C150.763 79.3006 146.265 74.7926 140.715 74.7926ZM197.256 74.7926C191.716 74.7926 187.218 79.2905 187.218 84.8404C187.218 90.3902 191.716 94.8882 197.256 94.8882C202.795 94.8882 207.293 90.3902 207.293 84.8404C207.293 79.2905 202.795 74.7926 197.256 74.7926ZM253.866 74.7926C248.326 74.7926 243.828 79.2905 243.828 84.8404C243.828 90.3902 248.326 94.8882 253.866 94.8882C259.406 94.8882 263.914 90.3902 263.914 84.8404C263.914 79.2905 259.416 74.7926 253.866 74.7926ZM56.7967 112.219C51.2569 112.219 46.7589 116.717 46.7589 122.267C46.7589 127.817 51.2569 132.315 56.7967 132.315C62.3365 132.315 66.8445 127.817 66.8445 122.267C66.8445 116.717 62.3465 112.219 56.7967 112.219ZM113.347 112.219C107.807 112.219 103.309 116.717 103.309 122.267C103.309 127.817 107.807 132.315 113.347 132.315C118.887 132.315 123.385 127.817 123.385 122.267C123.385 116.727 118.887 112.219 113.347 112.219ZM169.947 112.219C164.407 112.219 159.909 116.717 159.909 122.267C159.909 127.817 164.407 132.315 169.947 132.315C175.487 132.315 179.925 127.817 179.925 122.267C179.925 116.717 175.487 112.219 169.947 112.219ZM226.487 112.219C220.948 112.219 216.44 116.717 216.44 122.267C216.44 127.817 220.938 132.315 226.487 132.315C232.037 132.315 236.525 127.817 236.525 122.267C236.525 116.717 232.027 112.219 226.487 112.219ZM283.028 112.219C277.488 112.219 272.99 116.717 272.99 122.267C272.99 127.817 277.488 132.315 283.028 132.315C283.549 132.315 283.999 132.134 284.5 132.054C287.195 127.035 289.048 121.315 290 115.094C288.187 113.331 285.752 112.219 283.028 112.219ZM0.577043 112.279C-0.0741114 119.281 -0.224373 126.043 0.38671 132.244C5.83637 132.134 10.2342 127.736 10.2342 122.257C10.2342 116.777 5.93654 112.489 0.577043 112.279ZM27.5749 149.645C22.0351 149.645 17.5371 154.143 17.5371 159.693C17.5371 165.243 22.0351 169.741 27.5749 169.741C33.1147 169.741 37.6127 165.243 37.6127 159.693C37.6127 154.143 33.1147 149.645 27.5749 149.645ZM84.1752 149.645C78.6354 149.645 74.1374 154.143 74.1374 159.693C74.1374 162.708 75.5399 165.333 77.6536 167.176C83.6643 162.548 87.2707 156.818 89.3544 151.308C87.8217 150.346 86.1287 149.645 84.1752 149.645ZM253.866 149.645C249.959 149.645 246.633 151.949 244.98 155.205C250.059 155.185 255.299 154.293 260.588 152.33C258.805 150.697 256.481 149.645 253.866 149.645Z" fill="white"/>
</g>
</svg>
