<svg width="44" height="47" viewBox="0 0 44 47" fill="none" xmlns="http://www.w3.org/2000/svg">
<g id="Layer-14">
<g id="Vector">
<path d="M1.01909 33.0714C1.01909 33.0714 0.876803 25.2254 2.63506 17.2777C6.2532 0.894398 18.8049 1.01636 18.8049 1.01636L20.7156 8.34411C14.9632 10.1328 13.6419 13.3343 13.6419 13.3343C21.5388 4.95972 38.9791 4.92923 38.9791 16.739C38.9791 17.0642 28.3686 15.7836 32.4847 16.0682C44.6604 16.9118 41.5301 25.6522 41.5301 25.6522C41.5301 25.6522 27.708 27.0243 33.8263 26.2722C40.0259 25.5201 42.2923 25.5709 42.9224 29.5143C43.5017 33.1731 40.0157 35.0431 30.7569 39.7284C23.0836 43.6108 21.1221 45.9789 21.1221 45.9789" fill="#F2F2F2"/>
<path d="M1.01909 33.0714C1.01909 33.0714 0.876803 25.2254 2.63506 17.2777C6.2532 0.894398 18.8049 1.01636 18.8049 1.01636L20.7156 8.34411C14.9632 10.1328 13.6419 13.3343 13.6419 13.3343C21.5388 4.95972 38.9791 4.92923 38.9791 16.739C38.9791 17.0642 28.3686 15.7836 32.4847 16.0682C44.6604 16.9118 41.5301 25.6522 41.5301 25.6522C41.5301 25.6522 27.708 27.0243 33.8263 26.2722C40.0259 25.5201 42.2923 25.5709 42.9224 29.5143C43.5017 33.1731 40.0157 35.0431 30.7569 39.7284C23.0836 43.6108 21.1221 45.9789 21.1221 45.9789" stroke="#00B8F1" stroke-width="2" stroke-linecap="round" stroke-linejoin="round"/>
</g>
</g>
</svg>
