<svg width="90" height="118" viewBox="0 0 90 118" fill="none" xmlns="http://www.w3.org/2000/svg">
<g id="Group">
<path id="Vector" d="M55.6717 19.8143L54.0981 7.68645C53.8475 5.77205 51.5522 4.66951 49.5176 5.50142L4.34372 23.8035" stroke="#F2F2F2" stroke-width="2" stroke-linecap="round" stroke-linejoin="round"/>
<path id="Vector_2" d="M73.4926 25.1767C73.4224 21.6486 72.1996 20.3155 70.0447 20.3857L11.2796 22.26" stroke="#F2F2F2" stroke-width="2" stroke-linecap="round" stroke-linejoin="round"/>
<path id="Vector_3" d="M48.866 5.46143C46.671 1.39207 45.6386 0.319604 43.1629 1.39207L4.04298 24.1444" stroke="#F2F2F2" stroke-width="2" stroke-linecap="round" stroke-linejoin="round"/>
<path id="Vector_4" d="M78.5644 28.3941C78.2236 25.7581 75.2568 23.964 71.9391 24.3949L5.41623 22.1398C2.0986 22.5707 -0.31695 25.0565 0.0338559 27.7025L10.959 111.746C11.2998 114.382 14.2666 116.176 17.5842 115.745L84.1071 118C87.4247 117.569 89.8403 115.083 89.4895 112.437L78.5644 28.3941Z" fill="#00243A"/>
<path id="Vector_5" d="M9.68608 26.4397L20.6613 110.884" stroke="#F2F2F2" stroke-width="2" stroke-linecap="round" stroke-linejoin="round"/>
</g>
</svg>
