<svg width="49" height="54" viewBox="0 0 49 54" fill="none" xmlns="http://www.w3.org/2000/svg">
<g id="Group">
<path id="Vector" d="M1.03616 42.0575C1.03616 42.0575 0.381367 33.5251 5.31748 22.4844C10.8983 9.99298 11.7143 5.33893 15.1091 4.07972C18.5039 2.82051 21.385 9.56988 19.0076 17.3669C17.4059 22.6052 16.6403 24.6703 16.6403 24.6703C16.6403 24.6703 21.0828 25.4662 23.3192 29.0625C25.5555 32.6487 24.931 35.3182 24.931 35.3182" stroke="#19292E" stroke-width="2" stroke-linecap="round" stroke-linejoin="round"/>
<path id="Vector_2" d="M19.612 15.3118C19.612 15.3118 28.5071 -0.806133 33.8361 1.17838C38.3995 2.88084 32.4258 8.16953 29.5245 13.5287C26.7946 18.5757 24.8806 22.182 24.8806 22.182C24.8806 22.182 26.5024 18.4548 30.1995 13.0452C33.7152 7.89753 39.9911 1.79289 43.3859 4.85529C46.7808 7.92777 40.3135 12.6926 36.1833 18.5454C32.2344 24.1464 30.3103 28.7199 30.3103 28.7199C30.3103 28.7199 32.0127 23.683 36.0624 20.0162C40.1019 16.3494 44.5746 12.199 47.1132 15.0398C49.6518 17.8806 41.21 25.1336 37.7447 31.1275C34.8535 36.1341 31.8818 43.0144 28.2653 47.1144C22.7349 53.3903 14.8976 52.9874 14.8976 52.9874" stroke="#19292E" stroke-width="2" stroke-linecap="round" stroke-linejoin="round"/>
</g>
</svg>
