<svg width="187" height="171" viewBox="0 0 187 171" fill="none" xmlns="http://www.w3.org/2000/svg">
<path id="Vector" d="M128.68 0.0798903C124.585 -0.120874 122.075 0.120036 122.075 0.120036C109.477 1.09374 87.7846 4.32605 75.8793 19.9756C73.8817 22.6157 64.5562 34.3303 60.3803 51.9574C56.3549 56.4244 46.4874 61.5338 40.0027 63.3407C29.0209 66.3923 14.5257 67.8077 4.89907 79.422C-4.69747 90.986 -0.220419 115.74 18.551 120.729C25.8388 122.667 39.8421 122.606 51.8177 117.386C44.9415 124.343 38.3263 133.397 38.3263 142.813C38.3263 165.259 62.5786 173.249 72.6771 170.198C110.933 158.623 133.208 124.443 133.208 124.443C133.208 124.443 167.408 117.397 179.925 88.6571C189.863 65.8402 188.398 46.8078 181.291 32.8446C167.277 5.35999 140.967 0.702256 128.69 0.0999634L128.68 0.0798903Z" fill="#E6E6E6"/>
</svg>
