<svg width="177" height="57" viewBox="0 0 177 57" fill="none" xmlns="http://www.w3.org/2000/svg">
<g id="Group">
<path id="Vector" d="M1.00102 26.507C1.00102 26.507 5.02512 23.4639 4.96506 14.3346C4.92502 7.66781 2.2623 2.39245 1.00102 1.01104" stroke="#19292E" stroke-width="2" stroke-linecap="round" stroke-linejoin="round"/>
<path id="Vector_2" d="M39.7905 30.0205H165.679C171.384 30.0205 175.999 33.7644 175.999 38.3791V47.158C175.999 51.7727 171.374 55.5165 165.679 55.5165H39.7905" stroke="#19292E" stroke-width="2" stroke-linecap="round" stroke-linejoin="round"/>
<path id="Vector_3" d="M39.7907 30.0205L1.01128 1.00102" stroke="#19292E" stroke-width="2" stroke-linecap="round" stroke-linejoin="round"/>
<path id="Vector_4" d="M173.536 32.9335L119.902 1.01104" stroke="#19292E" stroke-width="2" stroke-linecap="round" stroke-linejoin="round"/>
<path id="Vector_5" d="M39.7907 55.5265L1.01128 26.507" stroke="#19292E" stroke-width="2" stroke-linecap="round" stroke-linejoin="round"/>
<path id="Vector_6" d="M119.892 1.01104H1.00102" stroke="#19292E" stroke-width="2" stroke-linecap="round" stroke-linejoin="round"/>
<path id="Vector_7" d="M39.7905 30.0205C39.7905 30.0205 43.244 32.9235 43.244 42.7735C43.244 52.6236 39.7905 55.5265 39.7905 55.5265" stroke="#19292E" stroke-width="2" stroke-linecap="round" stroke-linejoin="round"/>
<path id="Vector_8" d="M28.6691 31.2018L4.13409 12.5628" stroke="#19292E" stroke-width="2" stroke-linecap="round" stroke-linejoin="round"/>
<path id="Vector_9" d="M29.1097 39.9908L4.56471 21.3518" stroke="#19292E" stroke-width="2" stroke-linecap="round" stroke-linejoin="round"/>
</g>
</svg>
