<svg width="55" height="58" viewBox="0 0 55 58" fill="none" xmlns="http://www.w3.org/2000/svg">
<g id="Layer-5">
<path id="Vector" d="M37.9839 1.0071C37.9839 1.0071 3.74074 5.98097 2.60299 10.4615C1.70689 13.9553 5.38192 15.8381 7.85878 16.0797C13.91 16.6738 23.5657 13.4619 22.6998 20.4898C22.4179 22.7955 18.6422 25.6449 12.45 28.4339C6.41897 31.1423 -0.125586 32.6224 1.17326 35.8041C2.26066 38.4521 7.76817 38.5628 13.9503 36.9921C19.8605 35.502 25.2472 32.0183 25.2472 32.0183C25.2472 32.0183 22.0353 35.7436 13.8798 39.6603C9.54023 41.7445 5.1 42.409 4.32472 44.0703C3.40848 46.0337 8.21118 51.2392 18.0582 47.1312C27.8952 43.0232 30.2211 39.1569 30.2211 39.1569C30.2211 39.1569 28.4087 43.3353 23.012 46.9499C18.1287 50.2121 14.7658 51.1888 14.8967 53.3032C15.0477 55.6995 19.7196 59.0926 29.7579 53.0716C51.2342 40.1839 53.9929 17.2376 53.9929 17.2376" stroke="#19292E" stroke-width="2" stroke-linecap="round" stroke-linejoin="round"/>
</g>
</svg>
