<svg width="41" height="40" viewBox="0 0 41 40" fill="none" xmlns="http://www.w3.org/2000/svg">
<path id="Vector" d="M18.5576 31.5165C18.5576 31.5165 2.78025 32.5415 1.58439 26.7833C0.7101 22.5928 4.52883 21.5376 9.76449 20.8643C14.9298 20.201 22.9893 22.03 22.9893 22.03C22.9893 22.03 16.5276 20.2111 11.7944 20.5226C7.06123 20.8341 1.34321 22.6631 1.34321 22.6631C1.34321 22.6631 -1.42033 15.086 8.85001 11.4783C15.1207 9.2775 25.7529 13.2771 25.7529 13.2771C25.7529 13.2771 20.1152 10.9256 14.2565 10.7447C7.85514 10.5538 5.65435 14.2619 4.81022 11.9205C1.50401 2.78568 23.0798 -4.77136 35.7117 7.12696C44.7861 15.6789 37.3999 33.0239 29.5615 37.8877C22.2456 42.43 18.5576 31.5265 18.5576 31.5265V31.5165Z" stroke="#19292E" stroke-width="2" stroke-linecap="round" stroke-linejoin="round"/>
</svg>
