<svg width="159" height="154" viewBox="0 0 159 154" fill="none" xmlns="http://www.w3.org/2000/svg">
<g id="Layer-12">
<path id="Vector" d="M78.4868 0C77.9461 0 77.5056 0.420519 77.5156 0.941161C77.5156 1.4618 77.9562 1.89233 78.4868 1.88232C78.627 1.88232 78.627 1.88232 78.7571 1.88232C81.2502 1.88232 83.7433 1.98245 86.1963 2.20272C86.737 2.25278 87.2176 1.8623 87.2676 1.34165C87.3177 0.821013 86.9172 0.390482 86.3865 0.34042C83.8634 0.120148 81.3103 0 78.7571 0C78.617 0 78.627 0 78.4868 0ZM68.5746 0.620766C65.9513 0.941161 63.3581 1.40173 60.795 1.98245C60.2643 2.10259 59.9439 2.5932 60.0641 3.10383C60.1842 3.61446 60.6949 3.92484 61.2255 3.8147C63.7286 3.25401 66.2617 2.83349 68.8149 2.5131C69.3455 2.44301 69.736 1.97243 69.6659 1.45179C69.5958 0.931149 69.1052 0.560692 68.5646 0.620766H68.5746ZM96.1386 1.83226C95.6079 1.72212 95.0973 2.03251 94.9771 2.54314C94.857 3.05377 95.1874 3.58442 95.708 3.69456C98.2211 4.23522 100.714 4.89604 103.147 5.677C103.658 5.8372 104.199 5.58689 104.369 5.08627C104.539 4.59567 104.269 4.03498 103.758 3.87478C101.255 3.07379 98.7117 2.39295 96.1386 1.84227V1.83226ZM51.2833 4.72583C48.8102 5.60692 46.3672 6.61816 43.9942 7.73955C43.5137 7.96983 43.3034 8.5105 43.5337 8.98108C43.774 9.45166 44.3647 9.6519 44.8453 9.42162C47.1582 8.33027 49.5411 7.35908 51.9541 6.49801C52.4647 6.31779 52.715 5.77713 52.5348 5.28652C52.3446 4.79592 51.7939 4.54561 51.2833 4.72583ZM112.208 7.40914C111.968 7.48924 111.778 7.64943 111.658 7.87972C111.427 8.3503 111.628 8.921 112.118 9.15129C114.441 10.2226 116.694 11.4041 118.887 12.6957C119.347 12.966 119.948 12.8158 120.228 12.3753C120.509 11.9247 120.358 11.344 119.898 11.0737C117.645 9.75203 115.322 8.54053 112.949 7.43918C112.709 7.32904 112.449 7.32904 112.218 7.40914H112.208ZM36.1245 12.3052C35.8842 12.2551 35.6139 12.2852 35.3936 12.4253C33.1809 13.817 31.0483 15.3189 28.9857 16.9109C28.5652 17.2413 28.5252 17.832 28.8656 18.2425C29.206 18.653 29.8168 18.7131 30.2373 18.3927C32.2398 16.8308 34.3023 15.379 36.455 14.0273C36.9055 13.747 37.0557 13.1362 36.7553 12.6957C36.6051 12.4754 36.3548 12.3653 36.1145 12.3152L36.1245 12.3052ZM127.307 16.3502C127.057 16.3802 126.836 16.4703 126.666 16.6706C126.336 17.0811 126.396 17.6718 126.816 18.0022C128.839 19.5441 130.761 21.2062 132.614 22.9283C133.004 23.2887 133.645 23.2787 134.015 22.8982C134.386 22.5178 134.376 21.9371 133.985 21.5666C132.093 19.7944 130.11 18.1023 128.038 16.5204C127.828 16.3602 127.557 16.3101 127.307 16.3402V16.3502ZM140.023 28.2749C139.772 28.2448 139.502 28.3149 139.292 28.4851C138.871 28.8155 138.801 29.4063 139.142 29.8168C140.754 31.7492 142.275 33.7616 143.687 35.8342C143.988 36.2747 144.608 36.4149 145.059 36.1246C145.509 35.8342 145.63 35.2335 145.329 34.7929C143.887 32.6603 142.316 30.6078 140.663 28.6253C140.493 28.4251 140.273 28.2949 140.023 28.2749ZM149.655 42.6226C149.414 42.5425 149.134 42.5325 148.894 42.6526C148.413 42.8829 148.233 43.4536 148.463 43.9242C149.595 46.1569 150.586 48.4397 151.487 50.7726C151.677 51.2632 152.258 51.5135 152.768 51.3333C153.269 51.1531 153.509 50.6124 153.319 50.1218C152.398 47.7289 151.367 45.386 150.205 43.0932C150.085 42.8629 149.895 42.7027 149.655 42.6226ZM155.021 58.6223C154.501 58.7425 154.17 59.2331 154.29 59.7437C154.881 62.1567 155.352 64.6197 155.692 67.0928C155.762 67.6134 156.253 67.9538 156.793 67.8937C157.324 67.8237 157.684 67.3431 157.614 66.8324C157.274 64.2993 156.813 61.7862 156.213 59.3031C156.093 58.7925 155.552 58.5022 155.021 58.6223ZM157.314 75.5131C156.773 75.5131 156.363 75.9337 156.373 76.4543C156.373 76.6345 156.373 76.8047 156.373 76.985C156.373 79.3078 156.253 81.6307 156.032 83.9235C155.982 84.4441 156.383 84.9047 156.914 84.9548C157.454 85.0048 157.935 84.6144 157.985 84.0937C158.205 81.7408 158.325 79.3679 158.325 76.9749C158.325 76.7947 158.325 76.6245 158.325 76.4443C158.325 75.9236 157.855 75.4931 157.324 75.5031L157.314 75.5131ZM155.722 92.454C155.191 92.3439 154.681 92.6543 154.561 93.1649C154.01 95.5979 153.319 98.0109 152.518 100.364C152.348 100.854 152.648 101.385 153.159 101.545C153.67 101.705 154.21 101.455 154.38 100.955C155.201 98.5315 155.892 96.0685 156.453 93.5754C156.563 93.0648 156.243 92.5642 155.722 92.454ZM4.96612 103.167C4.4655 103.357 4.2252 103.888 4.41543 104.379C5.3566 106.762 6.40789 109.095 7.58935 111.377C7.82964 111.848 8.42039 112.028 8.90098 111.788C9.38157 111.558 9.5718 111.017 9.3315 110.546C8.18008 108.324 7.1388 106.021 6.21766 103.698C6.02743 103.207 5.46673 102.977 4.96612 103.167ZM149.504 108.544C149.274 108.624 149.074 108.784 148.954 109.014C147.852 111.267 146.651 113.46 145.329 115.603C145.049 116.053 145.199 116.634 145.67 116.904C146.13 117.175 146.731 117.024 147.011 116.584C148.363 114.401 149.605 112.158 150.736 109.855C150.966 109.385 150.766 108.814 150.275 108.584C150.035 108.474 149.745 108.474 149.514 108.554L149.504 108.544ZM13.5267 118.196C13.2764 118.146 13.0161 118.166 12.7958 118.316C12.3452 118.606 12.2251 119.207 12.5254 119.648C13.9872 121.77 15.5492 123.813 17.2212 125.785C17.5617 126.186 18.1724 126.236 18.5929 125.905C19.0134 125.575 19.0835 124.984 18.7431 124.574C17.1111 122.651 15.5592 120.649 14.1374 118.586C13.9872 118.366 13.777 118.246 13.5267 118.206V118.196ZM140.513 122.952C140.263 122.982 140.043 123.102 139.872 123.302C138.281 125.265 136.588 127.147 134.806 128.939C134.436 129.32 134.446 129.91 134.836 130.271C135.227 130.631 135.838 130.621 136.208 130.241C138.03 128.398 139.762 126.466 141.394 124.454C141.725 124.043 141.665 123.472 141.244 123.152C141.034 122.992 140.764 122.922 140.513 122.942V122.952ZM24.6003 131.182C24.35 131.182 24.1197 131.262 23.9295 131.442C23.5591 131.823 23.5691 132.443 23.9595 132.804C25.8719 134.566 27.8543 136.228 29.9369 137.79C30.3574 138.11 30.9782 138.02 31.3086 137.61C31.639 137.199 31.5789 136.598 31.1584 136.278C29.1259 134.746 27.1635 133.124 25.3012 131.412C25.1009 131.232 24.8506 131.172 24.6003 131.172V131.182ZM128.438 135.077C128.188 135.057 127.918 135.117 127.708 135.287C125.715 136.859 123.663 138.311 121.52 139.682C121.069 139.973 120.949 140.573 121.25 141.014C121.55 141.444 122.141 141.565 122.591 141.274C124.794 139.873 126.917 138.341 128.969 136.729C129.39 136.398 129.43 135.808 129.089 135.397C128.919 135.197 128.699 135.097 128.448 135.077H128.438ZM38.3873 141.454C38.147 141.515 37.9168 141.675 37.7766 141.895C37.4962 142.346 37.6464 142.926 38.117 143.197C40.3798 144.498 42.7127 145.69 45.1056 146.771C45.5962 146.991 46.187 146.801 46.4173 146.33C46.6475 145.86 46.4172 145.279 45.9266 145.059C43.5938 144.008 41.341 142.846 39.1282 141.575C38.898 141.444 38.6376 141.394 38.3973 141.454H38.3873ZM113.921 144.288C113.68 144.208 113.4 144.228 113.16 144.348C110.857 145.449 108.524 146.421 106.111 147.302C105.61 147.482 105.34 148.053 105.53 148.543C105.72 149.034 106.271 149.254 106.782 149.074C109.255 148.173 111.678 147.162 114.041 146.03C114.521 145.8 114.701 145.229 114.471 144.759C114.351 144.528 114.161 144.368 113.921 144.288ZM54.8777 148.483C54.3671 148.323 53.8264 148.603 53.6562 149.104C53.486 149.605 53.7863 150.125 54.297 150.285C56.8001 151.066 59.3432 151.727 61.9164 152.268C62.447 152.378 62.9577 152.068 63.0778 151.557C63.1879 151.046 62.8375 150.546 62.3169 150.436C59.8038 149.905 57.3207 149.254 54.8777 148.483ZM96.8394 150.045C94.3464 150.626 91.8333 151.096 89.2801 151.437C88.7495 151.507 88.349 151.987 88.4291 152.498C88.4991 153.019 88.9898 153.369 89.5304 153.299C92.1537 152.959 94.7468 152.468 97.31 151.877C97.8306 151.757 98.1711 151.267 98.0409 150.756C97.9208 150.245 97.3801 149.925 96.8494 150.045H96.8394ZM71.8987 151.817C71.358 151.767 70.8774 152.158 70.8273 152.668C70.7773 153.189 71.1778 153.66 71.7084 153.7C74.0413 153.9 76.3842 154 78.7471 154C79.0275 154 79.3178 154 79.5982 154C80.1388 154 80.5794 153.549 80.5694 153.029C80.5694 152.508 80.0988 152.108 79.5681 152.118C79.2978 152.118 79.0174 152.118 78.7471 152.118C76.4343 152.118 74.1615 152.017 71.8887 151.827L71.8987 151.817ZM0.0100068 77.4455C0.0100068 77.9862 0.420506 78.4267 0.941148 78.4367C1.46179 78.4367 1.89233 78.0162 1.90234 77.4756C1.90234 77.3354 1.90234 77.3354 1.90234 77.2052C1.94239 74.7122 2.07254 72.2291 2.33286 69.766C2.39294 69.2354 2.01247 68.7448 1.49183 68.6847C0.971188 68.6246 0.530656 69.0151 0.470582 69.5558C0.200248 72.0689 0.0400494 74.612 0 77.1752C0 77.3154 0 77.3053 0 77.4455H0.0100068ZM0.610754 87.3177C0.811001 89.9509 1.1414 92.5642 1.59196 95.1474C1.68207 95.678 2.16267 96.0284 2.6733 95.9283C3.18393 95.8282 3.52434 95.3376 3.43423 94.8069C2.99368 92.2838 2.69332 89.7307 2.50309 87.1575C2.46304 86.6168 2.00247 86.2063 1.48182 86.2564C0.961181 86.2964 0.560682 86.777 0.600732 87.3177H0.610754ZM2.10258 59.8238C1.98244 60.3444 2.28281 60.8651 2.79344 60.9952C3.30407 61.1154 3.83473 60.805 3.95487 60.2844C4.53559 57.7813 5.22645 55.2982 6.03745 52.8752C6.20766 52.3646 5.95734 51.8239 5.46673 51.6437C4.97613 51.4635 4.41544 51.7238 4.24523 52.2344C3.40419 54.7175 2.69332 57.2606 2.09258 59.8238H2.10258ZM7.91976 43.8341C7.99986 44.0744 8.15005 44.2746 8.38033 44.3948C8.85091 44.6351 9.42162 44.4348 9.6519 43.9542C10.7533 41.6514 11.9748 39.4186 13.2964 37.2359C13.5767 36.7754 13.4366 36.1746 12.996 35.8943C12.5555 35.6039 11.9648 35.7541 11.6944 36.2147C10.3427 38.4474 9.09121 40.7503 7.95981 43.1132C7.83967 43.3535 7.83966 43.6038 7.91976 43.8441V43.8341ZM17.0811 28.8756C17.1011 29.1259 17.1912 29.3462 17.3914 29.5164C17.7919 29.8568 18.3927 29.8068 18.7231 29.3862C20.295 27.3938 21.9871 25.4914 23.7393 23.6692C24.1097 23.2887 24.0997 22.6479 23.7393 22.2675C23.3788 21.887 22.7781 21.897 22.4076 22.2775C20.6054 24.1498 18.8833 26.1022 17.2713 28.1447C17.1111 28.355 17.061 28.6253 17.0811 28.8756Z" fill="#00B8F1"/>
</g>
</svg>
