<svg width="54" height="50" viewBox="0 0 54 50" fill="none" xmlns="http://www.w3.org/2000/svg">
<path id="Vector" d="M1.01293 37.1848C1.01293 37.1848 0.628492 20.2091 13.2743 9.81923C32.1723 -5.70987 55.3698 2.67686 52.5574 9.3741C51.2523 12.4698 47.5395 10.6488 37.959 11.1749C32.496 11.4683 24.9287 14.5538 24.9287 14.5538C24.9287 14.5538 36.0166 10.669 41.8944 11.6807C52.608 13.5321 48.8952 20.9476 48.8952 20.9476C48.8952 20.9476 43.594 19.9157 39.2135 20.1484C34.833 20.3709 29.0564 22.809 29.0564 22.809C29.0564 22.809 36.3201 20.1888 41.1053 20.2394C45.9512 20.29 49.492 20.8262 48.7029 24.6908C47.6204 30.002 31.9497 32.5008 31.9497 32.5008C31.9497 32.5008 30.2501 41.3023 25.6673 45.4198C21.0945 49.5373 13.6487 48.9607 13.6487 48.9607" stroke="#19292E" stroke-width="2" stroke-linecap="round" stroke-linejoin="round"/>
</svg>
