<svg width="178" height="136" viewBox="0 0 178 136" fill="none" xmlns="http://www.w3.org/2000/svg">
<g id="Layer-32">
<path id="Vector" opacity="0.3" d="M88.6885 0C87.8044 0.0200925 86.9002 9.20662e-07 86.0362 0.040186V5.35466H71.4692V1.78823C70.6052 1.95902 69.6508 2.00925 68.817 2.20013V5.35466H58.7707C56.3596 6.24878 53.9686 7.1429 51.6278 8.25803V22.574H37.0607V17.0988C36.1565 17.7618 35.2825 18.4449 34.4085 19.1281V22.574H29.9278C28.9935 23.3978 28.2099 24.3722 27.3158 25.2262H34.4085V39.7531H19.8414V32.9417C18.8669 34.097 18.1034 35.393 17.1892 36.5986V39.7531H14.9087C14.2858 40.6472 13.5926 41.5011 12.9999 42.4053H17.1892V56.9724H5.2341C4.88248 57.8364 4.72175 58.7506 4.40027 59.6246H17.1791V74.1917H2.65221V65.4314C1.29597 70.3339 0.261203 75.2968 0 80.33V86.5587C0.210972 92.6668 1.03477 98.6946 2.65221 104.411V94.0331H17.1791V108.6H4.06874C4.38018 109.474 4.63132 110.409 4.98294 111.252H17.1892V125.819H14.4465C16.074 127.477 17.9225 128.874 19.8414 130.18V128.482H34.4085V135.665C35.2825 135.795 36.1565 135.926 37.0607 135.996V128.482H51.6278V134.831C52.552 134.59 53.416 134.288 54.28 133.997V128.472H65.0697C66.2551 127.588 67.4205 126.714 68.395 125.819H54.28V111.252H68.8069V125.408C69.7613 124.493 70.7157 123.579 71.4591 122.705V111.252H86.0262V117.561C87.1815 117.702 87.3322 117.762 88.6784 117.893V111.252H103.246V118.395C104.16 118.375 104.994 118.476 105.898 118.435V111.252H120.425V116.316C121.379 116.034 122.183 115.703 123.077 115.402V111.252H133.414C136.288 109.816 138.317 108.399 140.306 107.023V94.0331H154.873V100.342C155.687 100.332 156.631 100.141 157.526 100.051V94.0331H171.018C172.384 92.6567 173.67 91.0393 174.715 89.0099V76.854H177.789C177.859 75.9699 177.97 75.1361 178 74.2018H174.725V59.6347H176.804C176.654 58.7305 176.573 57.9167 176.392 56.9824H174.735V50.7136C173.981 48.1417 173.107 45.6804 172.083 43.3296V56.9824H157.556V42.4154H171.671C171.269 41.5313 170.947 40.607 170.505 39.7631H157.556V25.2362H160.127C158.48 23.5183 156.722 21.9511 154.903 20.4241V22.584H140.336V10.8399C139.462 10.3979 138.578 9.9659 137.684 9.554V22.584H123.117V8.01692H134.118C131.777 7.04243 129.396 6.15836 126.975 5.36471H123.117V4.07879C122.243 3.82763 121.349 3.68698 120.465 3.45592V5.36471H105.938V0.924255C105.054 0.813746 104.17 0.683147 103.286 0.59273V5.36471H88.7186V0.0100446L88.6885 0ZM54.28 8.01692H68.8069V22.584H54.28V8.01692ZM71.4591 8.01692H86.0262V22.584H71.4591V8.01692ZM88.6885 8.01692H103.256V22.584H88.6885V8.01692ZM105.908 8.01692H120.435V22.584H105.908V8.01692ZM37.0507 25.2362H51.6177V39.7631H37.0507V25.2362ZM54.28 25.2362H68.8069V39.7631H54.28V25.2362ZM71.4591 25.2362H86.0262V39.7631H71.4591V25.2362ZM88.6885 25.2362H103.256V39.7631H88.6885V25.2362ZM105.908 25.2362H120.435V39.7631H105.908V25.2362ZM123.087 25.2362H137.654V39.7631H123.087V25.2362ZM140.316 25.2362H154.883V39.7631H140.316V25.2362ZM19.8313 42.4254H34.3984V56.9925H19.8313V42.4254ZM37.0507 42.4254H51.6177V56.9925H37.0507V42.4254ZM54.28 42.4254H68.8069V56.9925H54.28V42.4254ZM71.4591 42.4254H86.0262V56.9925H71.4591V42.4254ZM88.6885 42.4254H103.256V56.9925H88.6885V42.4254ZM105.908 42.4254H120.435V56.9925H105.908V42.4254ZM123.087 42.4254H137.654V56.9925H123.087V42.4254ZM140.316 42.4254H154.883V56.9925H140.316V42.4254ZM19.8313 59.6447H34.3984V74.2118H19.8313V59.6447ZM37.0507 59.6447H51.6177V74.2118H37.0507V59.6447ZM54.28 59.6447H68.8069V74.2118H54.28V59.6447ZM71.4591 59.6447H86.0262V74.2118H71.4591V59.6447ZM88.6885 59.6447H103.256V74.2118H88.6885V59.6447ZM105.908 59.6447H120.435V74.2118H105.908V59.6447ZM123.087 59.6447H137.654V74.2118H123.087V59.6447ZM140.316 59.6447H154.883V74.2118H140.316V59.6447ZM157.536 59.6447H172.062V74.2118H157.536V59.6447ZM2.65221 76.8741H17.1791V91.401H2.65221V76.8741ZM19.8313 76.8741H34.3984V91.401H19.8313V76.8741ZM37.0507 76.8741H51.6177V91.401H37.0507V76.8741ZM54.28 76.8741H68.8069V91.401H54.28V76.8741ZM71.4591 76.8741H86.0262V91.401H71.4591V76.8741ZM88.6885 76.8741H103.256V91.401H88.6885V76.8741ZM105.908 76.8741H120.435V91.401H105.908V76.8741ZM123.087 76.8741H137.654V91.401H123.087V76.8741ZM140.316 76.8741H154.883V91.401H140.316V76.8741ZM157.536 76.8741H172.062V91.401H157.536V76.8741ZM19.8313 94.0532H34.3984V108.62H19.8313V94.0532ZM37.0507 94.0532H51.6177V108.62H37.0507V94.0532ZM54.28 94.0532H68.8069V108.62H54.28V94.0532ZM71.4591 94.0532H86.0262V108.62H71.4591V94.0532ZM88.6885 94.0532H103.256V108.62H88.6885V94.0532ZM105.908 94.0532H120.435V108.62H105.908V94.0532ZM123.087 94.0532H137.654V108.62H123.087V94.0532ZM19.8313 111.272H34.3984V125.84H19.8313V111.272ZM37.0507 111.272H51.6177V125.84H37.0507V111.272Z" fill="white"/>
</g>
</svg>
