<svg width="165" height="21" viewBox="0 0 165 21" fill="none" xmlns="http://www.w3.org/2000/svg">
<g id="Group">
<path id="Vector" d="M0 0.550416H4.15276V10.0868H12.7785V0.550416H16.9313V20.6938H12.7785V13.7893H4.15276V20.6938H0V0.550416Z" fill="#00243A"/>
<path id="Vector_2" d="M43.9193 0.550416H48.0721V17.0514H57.1981V20.6938H43.9193V0.550416Z" fill="#00243A"/>
<path id="Vector_3" d="M87.7484 11.3274C86.7378 10.3768 85.3468 8.5756 85.3468 8.5756C85.3468 8.5756 85.647 10.7971 85.647 12.248V20.6937H81.7645V0.37012H82.1747L92.3415 9.90648C93.3221 10.8271 94.7131 12.6583 94.7131 12.6583C94.7131 12.6583 94.4429 10.3768 94.4429 8.98588V0.540247H98.3255V20.8638H97.9152L87.7484 11.3274Z" fill="#00243A"/>
<path id="Vector_4" d="M125.143 4.19286H119.4V0.550416H135.05V4.19286H129.306V20.6938H125.153V4.19286H125.143Z" fill="#00243A"/>
<path id="Vector_5" d="M138.602 0.550416H142.755V10.0868H151.381V0.550416H155.534V20.6938H151.381V13.7893H142.755V20.6938H138.602V0.550416Z" fill="#00243A"/>
<path id="Vector_6" d="M160.847 0.550416H165V20.6938H160.847V0.550416Z" fill="#00243A"/>
<path id="Vector_7" d="M30.16 20.944C35.8026 20.944 40.3768 16.3205 40.3768 10.6171C40.3768 4.91371 35.8026 0.290233 30.16 0.290233C24.5175 0.290233 19.9432 4.91371 19.9432 10.6171C19.9432 16.3205 24.5175 20.944 30.16 20.944Z" fill="#00B8F1"/>
<path id="Vector_8" d="M59.3396 20.6938L69.1561 0L78.7626 20.6938H59.3396Z" fill="#FFD600"/>
<path id="Vector_9" d="M101.137 20.6938L110.944 0L120.56 20.6938H101.137Z" fill="#FF2A58"/>
</g>
</svg>
