<svg width="8" height="27" viewBox="0 0 8 27" fill="none" xmlns="http://www.w3.org/2000/svg">
<path id="Vector" d="M0 0.0101486C0.0101542 4.0515 0.0609163 7.7984 0.213229 11.129C0.385849 14.9165 0.680331 18.1556 1.20835 20.7246C1.56374 22.4407 2.01053 23.8623 2.70101 24.9995C3.09702 25.6494 3.58442 26.218 4.23428 26.6344C4.47798 26.7867 4.742 26.9085 5.01616 26.9999C4.96539 26.7156 4.97554 26.4211 5.04662 26.1165L5.23955 25.294C5.35125 24.8371 5.59494 24.4411 5.93003 24.1466C6.32604 23.7912 6.8439 23.578 7.39223 23.5678C6.8439 23.5678 6.32604 23.7912 5.93003 24.1466C5.8691 24.1263 5.79802 24.0857 5.70663 24.0044C5.57463 23.8927 5.40201 23.6897 5.21924 23.3749C4.85369 22.7453 4.48813 21.6994 4.19366 20.3388C4.00073 19.4249 3.82811 18.379 3.68595 17.2011C3.15793 12.8552 3.01578 6.87437 2.99547 0C2.59946 0.355396 2.07144 0.578795 1.50281 0.578795C0.934178 0.578795 0.406161 0.365544 0.0101486 0.0101486H0Z" fill="white"/>
</svg>
