<svg width="42" height="33" viewBox="0 0 42 33" fill="none" xmlns="http://www.w3.org/2000/svg">
<path id="Vector" d="M27.7794 1.91341C35.822 4.93564 42.509 14.6851 40.4808 19.7355C39.4567 22.2658 35.4103 17.8077 31.3137 15.0064C26.8256 11.954 24.0543 11.1307 24.0543 11.1307C24.0543 11.1307 30.139 14.1831 32.7295 17.4161C35.3199 20.6492 37.569 25.1073 35.5609 27.1556C33.5528 29.2038 28.5626 26.1314 25.5705 23.6112C22.5784 21.091 17.8392 18.7415 17.8392 18.7415C17.8392 18.7415 20.6205 20.097 24.5463 23.31C28.0104 26.1415 30.1992 29.6557 27.7895 31.3726C25.3797 33.0996 21.8454 30.9007 17.1564 28.8825C13.6422 27.3664 8.24035 24.9165 2.86861 23.8924C-2.12158 22.9385 3.59154 9.87563 11.8851 4.36332C18.1003 0.236624 24.1548 0.557916 27.7694 1.92344L27.7794 1.91341Z" stroke="white" stroke-width="2" stroke-linecap="round" stroke-linejoin="round"/>
</svg>
