<svg width="10" height="7" viewBox="0 0 10 7" fill="none" xmlns="http://www.w3.org/2000/svg">
<path id="Vector" d="M9.93375 2.71788L9.72796 1.84054C9.60882 1.35312 9.34887 0.93071 9.00226 0.6166C8.86145 0.486623 8.70981 0.378306 8.5365 0.291655C8.03826 0.0208701 7.44254 -0.0766197 6.84681 0.0641884L3.49991 0.865718L1.83187 1.26647C1.6694 1.3098 1.51776 1.35313 1.37695 1.42895C1.0845 1.55893 0.83538 1.75389 0.629583 1.98135C0.423787 2.20881 0.261313 2.46876 0.152999 2.76121C0.0446852 3.05366 -0.00947112 3.35693 0.00136027 3.67104C0.00136027 3.83352 0.0230369 3.98516 0.0663625 4.14763L0.272145 5.02497C0.423785 5.66402 0.824552 6.18392 1.34446 6.50886C1.47444 6.58468 1.61525 6.66051 1.75606 6.71466C2.0485 6.82298 2.35178 6.87713 2.66589 6.8663C2.82836 6.8663 2.98 6.84464 3.14247 6.80132L8.16824 5.59903C8.64482 5.47989 9.06725 5.23076 9.37053 4.88416C9.52217 4.71085 9.65214 4.51589 9.76046 4.31009C9.86877 4.1043 9.93376 3.87684 9.96626 3.64938C10.0204 3.3461 10.0096 3.03199 9.93375 2.70705V2.71788Z" fill="#00243A"/>
</svg>
