<svg width="10" height="7" viewBox="0 0 10 7" fill="none" xmlns="http://www.w3.org/2000/svg">
<path id="Vector" d="M0.272169 1.84153L0.0663485 2.71896C-0.0094793 3.03311 -0.0203105 3.35809 0.0338522 3.6614C0.0771823 3.88889 0.14218 4.11637 0.239673 4.32219C0.337166 4.52801 0.467157 4.72299 0.629645 4.89631C0.943789 5.24295 1.35543 5.49211 1.83206 5.61126L6.25174 6.66201L6.84753 6.80283C7.01002 6.84616 7.17251 6.85699 7.32416 6.86783C7.32416 6.86783 7.34583 6.86783 7.35666 6.86783C7.65997 6.86783 7.96327 6.8245 8.24492 6.71617C8.38574 6.66201 8.52657 6.59701 8.65656 6.51035C9.17652 6.18537 9.57732 5.66542 9.72897 5.0263L9.78314 4.82048L9.94564 4.14886C9.97813 4.00804 9.98895 3.86721 9.99979 3.73722C9.99979 3.71556 9.99979 3.6939 9.99979 3.67223C9.99979 3.35809 9.95646 3.04395 9.84813 2.7623C9.68564 2.33983 9.41483 1.98236 9.05736 1.70072C8.92737 1.59239 8.77572 1.50573 8.62406 1.4299C8.48324 1.36491 8.33159 1.31074 8.1691 1.26741L6.49005 0.866607L3.1428 0.0649926C2.94782 0.0216624 2.75282 0 2.55784 0C1.97288 0 1.42042 0.238324 0.997948 0.617463C0.651306 0.931606 0.380501 1.35406 0.261343 1.84153H0.272169Z" fill="#00243A"/>
</svg>
