<svg width="25" height="34" viewBox="0 0 25 34" fill="none" xmlns="http://www.w3.org/2000/svg">
<path id="Vector" d="M16.6376 23.186L8.02503 23.7249L7.97419 22.8606C7.88267 21.3964 7.97419 20.1965 8.24873 19.261C8.52328 18.3255 8.97068 17.4612 9.58078 16.6681C10.1909 15.875 11.5839 14.4514 13.7599 12.4076C14.9191 11.3297 15.4784 10.3841 15.4275 9.55029C15.3767 8.71649 15.092 8.08606 14.5734 7.65899C14.0548 7.23192 13.2922 7.04889 12.2957 7.1099C11.228 7.18108 10.3536 7.58781 9.7028 8.34027C9.3164 8.77751 9.03169 9.39777 8.83849 10.1909C8.57412 11.3094 7.54712 12.0822 6.40827 12.011L2.2291 11.7568C0.795368 11.6653 -0.251966 10.3231 0.053083 8.91986C0.500488 6.8557 1.40546 5.07624 2.76802 3.5815C4.68983 1.48683 7.77082 0.297144 12.0008 0.0429362C15.2954 -0.16043 17.99 0.358154 20.105 1.60886C22.9724 3.29679 24.4977 5.68634 24.6909 8.78767C24.7722 10.0689 24.4875 11.3297 23.8571 12.5703C23.2165 13.8108 21.8641 15.3564 19.7796 17.2172C18.3255 18.5187 17.4307 19.5559 17.0748 20.3084C16.7189 21.0608 16.5766 22.037 16.6477 23.2063L16.6376 23.186ZM10.5874 25.8602L14.37 25.6264C15.875 25.5349 17.1663 26.6737 17.2578 28.1786L17.4307 30.8732C17.5222 32.3781 16.3834 33.6695 14.8785 33.761L11.0959 33.9949C9.59095 34.0864 8.29957 32.9476 8.20806 31.4426L8.0352 28.748C7.94368 27.2431 9.08253 25.9518 10.5874 25.8602Z" fill="#E6E6E6"/>
</svg>
