<svg width="34" height="42" viewBox="0 0 34 42" fill="none" xmlns="http://www.w3.org/2000/svg">
<g id="Group">
<path id="Vector" d="M20.7172 18.4474C10.3811 5.60897 5.29476 -0.662144 1.80172 1.41121C-2.39605 5.68047 11.6987 18.1614 11.6987 18.1614C11.6987 18.1614 6.62252 14.648 4.56959 18.2738C3.23162 20.9702 7.52131 24.3406 7.52131 24.3406C7.52131 24.3406 6.49996 23.6257 5.31518 23.3601C3.6708 22.9822 2.21026 24.2896 2.29197 25.9646C2.62901 32.6647 14.4155 40.9785 14.4155 40.9785" stroke="white" stroke-width="2" stroke-linecap="round" stroke-linejoin="round"/>
<path id="Vector_2" d="M17.2548 13.596C17.2548 13.596 20.0125 6.35456 25.6197 13.4019C31.2372 20.439 31.4108 27.0472 31.4108 27.0472L32.8101 29.6312" stroke="white" stroke-width="2" stroke-linecap="round" stroke-linejoin="round"/>
</g>
</svg>
