<svg width="73" height="60" viewBox="0 0 73 60" fill="none" xmlns="http://www.w3.org/2000/svg">
<path id="Vector" d="M54.2342 45.9751L62.3567 43.9495C69.4162 42.1947 73.5076 34.1825 71.482 26.07L68.1928 12.8634C66.1672 4.75098 58.8069 -0.413321 51.7473 1.35157L10.6435 11.5899C3.58392 13.3448 -0.507395 21.357 1.51821 29.4694L4.80732 42.676C6.83293 50.7885 14.7148 55.8224 21.7743 54.0575L36.6355 50.3573L39.9145 49.545C41.1179 52.1823 44.4471 57.2664 52.5896 58.6202C57.774 59.4825 71.2814 56.2737 71.2814 56.2737C71.2814 56.2737 64.633 56.2937 59.2882 52.7138C55.9289 50.4576 54.6854 47.7099 54.2342 45.9852V45.9751Z" stroke="#19292E" stroke-width="2" stroke-linecap="round" stroke-linejoin="round"/>
</svg>
