<svg width="36" height="28" viewBox="0 0 36 28" fill="none" xmlns="http://www.w3.org/2000/svg">
<path id="Vector" d="M6.00846 1.70159C6.00846 1.70159 11.4009 0.297938 16.9853 1.48953C24.2257 3.04467 28.4872 6.00344 32.7992 11.9816C37.1111 17.9598 31.9913 21.888 31.9913 21.888C31.9913 21.888 30.8704 18.0709 27.235 14.7586C23.5996 11.4464 24.0339 11.81 24.0339 11.81C24.0339 11.81 28.4367 14.7889 29.4768 16.748C30.5069 18.7071 33.3748 22.403 30.8704 24.3722C29.0527 25.8062 26.3565 22.4333 24.5085 20.4743C22.6605 18.5152 19.4493 15.8089 19.4493 15.8089C19.4493 15.8089 21.4487 17.0207 24.4984 20.4945C26.7907 23.0998 28.154 24.9882 26.2454 26.7049C24.5388 28.2499 18.2476 23.0998 14.2789 21.3023C10.3103 19.4947 4.75628 19.3635 1.00983 13.7589" stroke="#19292E" stroke-width="2" stroke-linecap="round" stroke-linejoin="round"/>
</svg>
