<svg width="300" height="186" viewBox="0 0 300 186" fill="none" xmlns="http://www.w3.org/2000/svg">
<path id="Vector" d="M296.797 78.0384C281.651 1.41608 227.798 1.08509 198.309 0.0720139C120.513 -2.58605 89.9702 69.2217 89.9702 69.2217L26.578 56.7539C17.2698 56.0417 8.36278 60.6657 3.59834 68.68C1.57219 72.0904 0.468848 75.7515 0.107753 79.4226C-1.1962 92.7129 9.5564 100.817 20.3391 108.701C33.4388 118.28 83.29 158.924 113.161 118.331L115.899 148.241C115.899 149.365 98.2554 150.378 99.3788 150.378C108.928 150.388 167.746 150.348 172.4 150.378C176.091 183.809 198.78 196.076 252.684 175.915C284.299 164.089 309.055 140.036 296.807 78.0384H296.797Z" fill="#E6E6E6"/>
</svg>
