<svg width="385" height="266" viewBox="0 0 385 266" fill="none" xmlns="http://www.w3.org/2000/svg">
<g id="Group">
<g id="Vector">
<path d="M1.02989 94.4898C2.21001 201.601 87.4789 264.407 192.51 264.407C297.541 264.407 382.81 201.611 383.99 94.4898" fill="#FAF9F6"/>
<path d="M1.02989 94.4898C2.21001 201.601 87.4789 264.407 192.51 264.407C297.541 264.407 382.81 201.611 383.99 94.4898" stroke="#FF2A58" stroke-width="2" stroke-linecap="round" stroke-linejoin="round"/>
</g>
<path id="Vector_2" d="M192.5 187.98C298.262 187.98 384 146.123 384 94.4898C384 42.8569 298.262 1.0001 192.5 1.0001C86.7375 1.0001 1.0001 42.8569 1.0001 94.4898C1.0001 146.123 86.7375 187.98 192.5 187.98Z" fill="#FAF9F6" stroke="#FF2A58" stroke-width="2" stroke-linecap="round" stroke-linejoin="round"/>
<path id="Vector_3" d="M192.5 175.228C291.137 175.228 371.098 139.08 371.098 94.4898C371.098 49.8992 291.137 13.7514 192.5 13.7514C93.8627 13.7514 13.9013 49.8992 13.9013 94.4898C13.9013 139.08 93.8627 175.228 192.5 175.228Z" fill="#FAF9F6" stroke="#FF2A58" stroke-width="2" stroke-linecap="round" stroke-linejoin="round"/>
</g>
</svg>
