<svg width="13" height="88" viewBox="0 0 13 88" fill="none" xmlns="http://www.w3.org/2000/svg">
<g id="Group">
<path id="Vector" d="M0.171836 87.99V84.5517C0.171836 81.0729 1.98201 78.9897 4.98546 78.9897C7.98892 78.9897 9.77885 81.0932 9.77885 84.5517V85.4315H12.6205V88.0001H0.171836V87.99ZM7.52375 84.6225C7.52375 82.5393 6.68438 81.619 4.97534 81.619C3.2663 81.619 2.41684 82.5696 2.41684 84.6225V85.4315H7.52375V84.6225Z" fill="#00B8F1"/>
<path id="Vector_2" d="M6.39117 77.4022C2.71017 77.4022 0 74.5505 0 70.9605C0 67.3705 2.71017 64.5187 6.39117 64.5187C10.0722 64.5187 12.7824 67.3705 12.7824 70.9605C12.7824 74.5505 10.0722 77.4022 6.39117 77.4022ZM6.39117 67.148C4.06526 67.148 2.29556 68.6851 2.29556 70.9605C2.29556 73.2358 4.07537 74.773 6.39117 74.773C8.70696 74.773 10.4868 73.2358 10.4868 70.9605C10.4868 68.6851 8.70696 67.148 6.39117 67.148Z" fill="#00B8F1"/>
<path id="Vector_3" d="M12.6104 53.142V56.105L9.46536 58.1579C9.50581 58.4006 9.51591 58.6534 9.51591 58.886V59.7658H12.6104V62.3344H0.161713V58.8961C0.161713 55.4173 1.83032 53.3341 4.86412 53.3341C6.80575 53.3341 8.02935 54.1937 8.72712 55.7308L12.6104 53.1521V53.142ZM7.29115 58.9568C7.29115 56.8736 6.63381 55.9533 4.87421 55.9533C3.11461 55.9533 2.41684 56.9039 2.41684 58.9568V59.7658H7.28102V58.9568H7.29115Z" fill="#00B8F1"/>
<path id="Vector_4" d="M12.6104 41.8966V44.8596L9.46536 46.9125C9.50581 47.1552 9.51591 47.408 9.51591 47.6406V48.5204H12.6104V51.089H0.161713V47.6507C0.161713 44.172 1.83032 42.0888 4.86412 42.0888C6.80575 42.0888 8.02935 42.9483 8.72712 44.4854L12.6104 41.9067V41.8966ZM7.29115 47.7114C7.29115 45.6282 6.63381 44.7079 4.87421 44.7079C3.11461 44.7079 2.41684 45.6585 2.41684 47.7114V48.5204H7.28102V47.7114H7.29115Z" fill="#00B8F1"/>
<path id="Vector_5" d="M0.171836 39.7832V37.2146H12.6205V39.7832H0.171836Z" fill="#00B8F1"/>
<path id="Vector_6" d="M0.171836 34.5852V30.7626C0.171836 26.94 2.72022 24.2096 6.39111 24.2096C10.062 24.2096 12.6104 26.9198 12.6104 30.7626V34.5852H0.161713H0.171836ZM10.3654 30.8839C10.3654 28.1232 8.71701 26.8591 6.39111 26.8591C4.0652 26.8591 2.41684 28.1232 2.41684 30.8839V32.0166H10.3654V30.8839Z" fill="#00B8F1"/>
<path id="Vector_7" d="M6.3912 22.4602C2.7102 22.4602 0.020245 19.8613 0.020245 16.1095C0.020245 14.0769 0.56634 12.6105 1.73941 11.5891L3.45854 13.3285C2.82144 13.9555 2.32593 14.6634 2.32593 16.1095C2.32593 18.3646 4.06529 19.831 6.3912 19.831C8.71711 19.831 10.4868 18.3242 10.4868 15.7151C10.4868 14.9061 10.3452 13.9252 10.0318 13.278H8.20137V16.2814H5.94624V10.9318H11.3262C11.9127 11.6498 12.7723 13.4398 12.7723 15.7151C12.7723 19.7804 10.0621 22.4704 6.38111 22.4704L6.3912 22.4602Z" fill="#00B8F1"/>
<path id="Vector_8" d="M0.171836 8.50472V0.262923H2.42697V5.93612H6.38101V0.940468H8.57544V5.93612H10.3654V0H12.6205V8.49461H0.171836V8.50472Z" fill="#00B8F1"/>
</g>
</svg>
