<svg width="78" height="106" viewBox="0 0 78 106" fill="none" xmlns="http://www.w3.org/2000/svg">
<path id="Vector" d="M76.6924 53.0575C76.6924 53.0575 71.5809 3.40321 61.5881 4.4135C51.5952 5.42379 57.2268 37.353 56.9467 39.3135C56.6666 41.2641 54.1759 23.1389 51.6952 15.0766C47.434 1.19257 41.6023 -1.88832 37.6612 3.50323C33.72 8.89478 41.1922 40.6839 41.1922 40.6839C41.1922 40.6839 27.7183 25.1695 15.8749 31.0312C3.70138 37.0629 -3.11057 44.505 3.7014 49.1164C9.53307 53.0675 17.8054 43.0546 23.0269 45.7154C28.2484 48.3662 44.4731 68.2619 37.311 76.8644C35.0604 79.5651 27.3982 85.5168 23.9072 89.8481C19.596 95.1796 16.245 103.742 23.9072 104.812C39.6917 107.023 64.5389 88.9478 64.5389 88.9478" stroke="#19292E" stroke-width="2" stroke-linecap="round" stroke-linejoin="round"/>
</svg>
