<svg width="86" height="61" viewBox="0 0 86 61" fill="none" xmlns="http://www.w3.org/2000/svg">
<path id="Vector" d="M86 31.1365C86 28.1204 83.9188 25.5969 81.1038 24.9233C81.4456 24.1391 81.6467 23.2644 81.6467 22.3495C81.6467 18.8106 78.7813 15.9453 75.2424 15.9453C75.1519 15.9453 75.0615 15.9453 74.971 15.9553C75.1519 15.3722 75.2424 14.7489 75.2424 14.1054C75.2424 10.5665 72.3771 7.70119 68.8382 7.70119C68.5969 7.70119 68.3657 7.71124 68.1344 7.7414C67.3603 5.07715 64.9072 3.13678 61.9916 3.13678C60.4131 3.13678 58.9654 3.70984 57.8494 4.66495C56.7636 2.66425 54.6523 1.29694 52.2092 1.29694C50.7615 1.29694 49.4344 1.77952 48.3586 2.59387C47.1924 1.02548 45.3324 0 43.2212 0C41.2808 0 39.5415 0.864624 38.3652 2.23194C37.4 1.63876 36.264 1.29694 35.0475 1.29694C33.0669 1.29694 31.3074 2.19172 30.1312 3.59925C29.3872 3.29764 28.5829 3.12672 27.7283 3.12672C24.1894 3.12672 21.3241 5.99205 21.3241 9.53097C21.3241 10.104 21.4045 10.657 21.5452 11.1898C16.267 13.9546 11.5116 17.9259 7.71124 23.0734C3.35796 28.975 0.834463 35.6507 0 42.437L0.0703838 43.6233L14.8394 36.3645L10.2448 29.4274L12.5773 27.0446L18.3582 34.6453L20.2181 33.7304L14.2563 24.7222L16.5887 22.3395L23.8777 31.9308L42.8592 22.6109L69.0091 30.5132L79.6862 60.3528C82.1393 56.0397 82.823 50.5906 82.1695 44.88C84.1601 43.7942 85.5073 41.6829 85.5073 39.26C85.5073 37.8424 85.0448 36.5354 84.2607 35.4697C85.3062 34.3336 85.9597 32.8155 85.9597 31.1365H86Z" fill="#19292E"/>
</svg>
