<svg width="84" height="60" viewBox="0 0 84 60" fill="none" xmlns="http://www.w3.org/2000/svg">
<g id="Group">
<path id="Vector" d="M83.0338 13.3722C82.4837 6.27104 76.7228 0.610102 69.6516 0L13.0722 0.0300038C6.31106 0.770127 1.04017 5.96099 0 12.6521V47.3479C0.670112 53.939 6.95113 59.68 13.5322 60H69.4916C76.5227 59.55 82.5837 53.699 83.0338 46.6178C83.7139 35.796 82.4937 24.2541 83.0338 13.3622V13.3722ZM77.0328 45.9777C76.7028 49.7583 74.0524 52.8388 70.3917 53.759C51.2286 54.169 31.9453 54.109 12.7721 53.789C9.09147 52.9088 6.41108 49.8883 6.01101 46.1277V13.8623C6.45109 9.65163 9.84166 6.31106 14.0824 6.04102L68.5214 5.98101C73.1322 6.28106 76.5427 9.37157 77.0328 14.0123V45.9677V45.9777Z" fill="#FAF9F6"/>
<path id="Vector_2" d="M57.4596 27.4345C49.7383 22.5437 42.307 17.0928 34.4257 12.532C34.0156 12.452 33.6156 12.462 33.2055 12.532C32.0854 12.7221 30.9451 13.8723 30.8151 15.0024C30.9051 25.1741 30.6551 35.3859 30.9452 45.5276C31.7253 47.3879 33.8156 48.118 35.5759 46.9978L57.5596 32.5054C59.3099 31.2052 59.2599 28.6747 57.4596 27.4345ZM36.8161 38.9265V21.0935L50.1083 29.9349L36.8161 38.9364V38.9265Z" fill="#FAF9F6"/>
</g>
</svg>
