<svg width="144" height="19" viewBox="0 0 144 19" fill="none" xmlns="http://www.w3.org/2000/svg">
<g id="holanathi 03">
<path id="Vector" d="M0 0.470607H3.62302V8.79754H11.1493V0.470607H14.7723V18.0452H11.1493V12.0202H3.62302V18.0452H0V0.470607Z" fill="#00243A"/>
<path id="Vector_2" d="M38.332 0.470607H41.955V14.8726H49.9216V18.0552H38.332V0.480615V0.470607Z" fill="#00243A"/>
<path id="Vector_3" d="M76.5838 9.87805C75.7031 9.04736 74.4921 7.47605 74.4921 7.47605C74.4921 7.47605 74.7523 9.41766 74.7523 10.6787V18.0448H71.3695V0.320091H71.7298L80.5972 8.64702C81.4479 9.44769 82.6689 11.049 82.6689 11.049C82.6689 11.049 82.4387 9.05736 82.4387 7.84636V0.470216H85.8215V18.205H85.4612L76.5938 9.87805H76.5838Z" fill="#00243A"/>
<path id="Vector_4" d="M109.211 3.65326H104.197V0.470607H117.848V3.65326H112.834V18.0552H109.211V3.65326Z" fill="#00243A"/>
<path id="Vector_5" d="M120.961 0.470607H124.584V8.79754H132.11V0.470607H135.733V18.0452H132.11V12.0202H124.584V18.0452H120.961V0.470607Z" fill="#00243A"/>
<path id="Vector_6" d="M140.377 0.470607H144V18.0452H140.377V0.470607Z" fill="#00243A"/>
<path id="Vector_7" d="M26.3218 18.2652C31.2468 18.2652 35.2392 14.2324 35.2392 9.25771C35.2392 4.283 31.2468 0.250208 26.3218 0.250208C21.3968 0.250208 17.4044 4.283 17.4044 9.25771C17.4044 14.2324 21.3968 18.2652 26.3218 18.2652Z" fill="#00B8F1"/>
<path id="Vector_8" d="M51.7931 18.055L60.3502 0L68.7372 18.055H51.7931Z" fill="#FFD600"/>
<path id="Vector_9" d="M88.2634 18.055L96.8305 0L105.218 18.055H88.2634Z" fill="#FF2A58"/>
</g>
</svg>
