<svg width="261" height="434" viewBox="0 0 261 434" fill="none" xmlns="http://www.w3.org/2000/svg">
<g id="Group">
<path id="Vector" d="M114.144 90.5428C115.757 92.4162 117.881 94.6302 120.676 97.1447C127.047 102.885 137.636 107.593 144.238 110.178C144.358 110.228 144.489 110.128 144.499 109.998C144.609 108.295 144.709 106.732 144.779 105.349C144.779 105.299 144.779 105.269 144.739 105.229C140.401 101.172 120.776 82.6487 113.212 72.1097C105.028 60.6992 118.161 28.0806 123.301 16.3996C123.571 15.7785 124.493 15.9689 124.523 16.6501C124.713 21.5389 124.833 31.9175 122.75 37.4074C117.711 50.6512 115.557 62.3923 119.363 67.7018C124.964 75.5058 138.277 88.6094 145.641 95.652C145.911 94.4799 146.272 92.7368 146.642 90.5629C146.653 90.4928 146.642 90.4126 146.582 90.3725C142.705 87.1768 132.577 77.6898 132.908 65.9186C133.178 56.4115 129.041 45.7123 127.668 42.4464C127.528 42.1158 127.909 41.7752 128.219 41.9555C134.982 45.6021 139.57 52.3542 140.291 60.0481C140.461 61.9014 140.542 63.925 140.471 66.139C140.311 71.8693 144.078 77.1989 147.434 80.7953C147.534 80.9055 147.724 80.8354 147.734 80.6851C148.035 74.9548 147.734 68.5834 145.911 63.0134C141.433 49.2687 144.959 12.6429 146.182 1.09213C146.292 0.0302201 147.754 -0.190176 148.195 0.78157C150.279 5.43994 151.241 10.5391 150.98 15.6683C150.329 28.3711 149.788 50.4809 153.114 60.6592C157.442 73.953 154.587 90.3425 153.194 96.6438C153.164 96.774 153.314 96.8542 153.435 96.7941C159.786 93.3579 164.224 88.8197 166.598 83.2197C172.639 68.9741 164.585 50.9617 161.549 44.1795C161.169 43.328 160.848 42.6167 160.638 42.0958C157.702 34.9329 165.026 10.7695 168.311 0.711444C168.602 -0.17014 169.814 -0.250284 170.245 0.571192C171.848 3.65674 172.228 7.27323 171.277 10.6794C167.58 24.0233 166.448 36.2453 167.64 39.2206C167.831 39.6915 168.111 40.3126 168.452 41.074C170.956 46.664 176.496 59.0563 176.346 72.0997C176.346 72.28 176.576 72.3502 176.686 72.2099C182.727 64.1655 181.245 54.9188 178.961 45.9728C176.276 35.4438 182.036 25.3557 184.31 21.9095C184.621 21.4387 185.362 21.609 185.442 22.16C186.063 26.3175 185.963 30.545 185.492 34.7326C185.232 37.0668 185.302 40.2024 186.294 44.0994C188.588 53.1256 193.306 71.7691 174.052 84.8226C173.881 85.2634 173.751 85.7142 173.571 86.155C169.944 94.7103 162.832 101.222 152.483 105.6C152.423 105.62 152.393 105.67 152.383 105.73C152.303 107.153 152.213 108.756 152.102 110.509C163.212 105.78 182.777 97.0445 188.327 92.7468C191.663 90.1622 194.589 83.2698 195.38 72.1899C195.841 65.7683 199.588 49.8998 201.401 54.1274C201.401 54.1274 201.972 91.745 192.966 98.7175C184.44 105.329 151.862 118.824 150.479 119.395L149.197 119.926L147.875 119.505C147.013 119.224 126.576 112.582 115.637 102.735C106.57 94.5701 99.7683 82.5184 97.5743 78.381C97.364 77.9903 97.8248 77.5796 98.1854 77.83C101.572 80.0841 110.407 86.1349 114.174 90.5228L114.144 90.5428Z" fill="#FF2A58"/>
<path id="Vector_2" d="M193.917 210.298C196.572 206.331 199.087 202.123 201.381 197.776C209.856 181.737 229.251 157.714 229.251 157.714C229.251 157.714 194.138 182.188 171.096 203.416C189.66 177.249 220.585 152.043 204.456 126.427C204.456 126.427 205.368 135.083 196.723 145.411C183.399 161.35 165.657 181.586 156.18 198.837C156.871 172.49 158.624 145.442 156.781 119.295C156.049 108.886 144.869 104.758 143.256 116.64C141.103 132.498 140.211 148.848 139.76 165.257C138.207 163.664 136.564 162.152 134.881 160.719C100.81 131.767 46.5827 129.954 10.6482 156.572C27.5686 157.463 44.4389 159.246 61.1589 161.931C72.9301 163.825 84.8415 166.229 95.3203 171.919C113.363 181.717 124.683 199.739 133.809 217.481C135.492 220.747 136.785 225.365 138.528 228.501C137.987 252.223 137.536 275.956 137.155 299.689C133.569 281.155 128.74 263.043 121.437 246.193C111.79 231.907 74.8035 222.069 59.6562 231.176C-6.82321 271.137 -0.682178 321.298 0.870612 333.029C1.97259 341.384 4.06635 348.416 6.13006 353.866C23.7016 317.33 46.3724 283.93 93.9479 263.123L136.424 346.152L136.164 434H159.355C159.355 434 155.148 258.034 155.388 242.075L159.476 237.908C164.124 239.831 170.325 239.741 173.912 239.04C193.066 235.333 221.407 208.535 242.244 189.941C252.302 180.975 260.978 181.607 260.978 181.607C237.866 168.072 216.258 191.334 193.887 210.298H193.917Z" fill="#E6E6E6"/>
</g>
</svg>
