<svg width="710" height="158" viewBox="0 0 710 158" fill="none" xmlns="http://www.w3.org/2000/svg">
<g id="Group">
<path id="Vector" d="M60.4118 5.28719C54.4708 1.77986 47.5725 0.00830078 39.8958 0.00830078C32.219 0.00830078 25.1776 1.78881 19.2097 5.28719C13.233 8.79451 8.49094 13.7155 5.09993 19.9159C1.71787 26.0985 0 33.31 0 41.3446C0 49.3792 1.70892 56.9844 5.09098 63.2743C8.48199 69.591 13.224 74.5836 19.2008 78.1267C25.1776 81.6698 32.1385 83.4682 39.8958 83.4682C47.653 83.4682 54.4798 81.6698 60.4208 78.1267C66.3617 74.5836 71.068 69.5821 74.4232 63.2654C77.7605 56.9754 79.4516 49.594 79.4516 41.3446C79.4516 33.0952 77.7605 26.0985 74.4143 19.9159C71.0591 13.7155 66.3528 8.79451 60.4118 5.28719ZM39.8958 4.30298C46.7673 4.30298 52.923 5.89559 58.184 9.02713C63.4449 12.1587 67.6144 16.5428 70.567 22.0633C73.5374 27.6016 75.0406 34.0884 75.0406 41.3535C75.0406 48.6187 73.5374 55.3918 70.567 61.0375C67.6054 66.6653 63.436 71.121 58.184 74.2884C52.923 77.4557 46.7673 79.102 39.8958 79.1736C33.0243 79.102 26.8328 77.4557 21.4913 74.2794C16.1587 71.1121 11.9356 66.6474 8.9383 61.0196C5.93203 55.3739 4.41099 48.7529 4.41099 41.3356C4.41099 33.9184 5.93203 27.5837 8.9383 22.0543C11.9267 16.5428 16.1498 12.1497 21.4913 9.01819C26.8328 5.8777 33.0243 4.29404 39.9047 4.29404L39.8958 4.30298Z" fill="#00243A"/>
<path id="Vector_2" d="M134.486 52.1351C134.486 45.5231 132.545 40.3695 128.706 36.8085C124.895 33.2743 119.893 31.4849 113.836 31.4849C109.264 31.4849 105.3 32.5764 102.043 34.7148C100.111 35.9853 98.4645 37.4348 97.1403 39.0363V33.3906H85.4194V37.6853H90.7698C91.7093 37.6853 92.2103 37.8643 92.3714 38.0343C92.4787 38.1506 92.7293 38.5442 92.7293 39.6448V75.2906C92.7293 76.3911 92.4787 76.7848 92.3714 76.9011C92.2193 77.0711 91.7182 77.2501 90.7698 77.2501H85.4194V81.5447H103.215V77.2501H97.1403V51.4551C97.1403 48.3236 97.8739 45.5678 99.3234 43.2594C100.773 40.9511 102.795 39.1258 105.318 37.8374C107.877 36.5401 110.74 35.8869 113.836 35.8869C118.605 35.8869 122.559 37.2737 125.575 40.0205C128.563 42.7316 130.075 46.8115 130.075 52.1262V75.2906C130.075 76.3911 129.825 76.7848 129.717 76.9011C129.565 77.0711 129.064 77.2501 128.116 77.2501H122.765V81.5447H140.561V77.2501H134.486V52.1262V52.1351Z" fill="#00243A"/>
<path id="Vector_3" d="M181.343 34.169C177.988 32.3169 174.069 31.3774 169.685 31.3774C165.3 31.3774 161.015 32.5137 157.463 34.7685C153.92 37.0142 151.11 40.1368 149.106 44.0646C147.12 47.9656 146.073 52.4929 145.992 57.5392C145.992 62.5854 147.021 67.1038 149.052 70.969C151.092 74.8521 153.946 77.9479 157.525 80.1489C161.113 82.3589 165.202 83.4773 169.685 83.4773C174.167 83.4773 178.256 82.6989 181.549 81.1778C184.886 79.63 187.427 77.581 189.118 75.0848L189.744 74.1632L186.264 71.4343L185.557 72.5348C184.34 74.4316 182.39 76.0063 179.759 77.2142C177.075 78.4489 173.675 79.111 169.702 79.1826C165.971 79.111 162.572 78.1 159.583 76.1674C156.595 74.2348 154.251 71.6132 152.631 68.3654C151.003 65.1175 150.251 61.485 150.394 57.5929L150.457 56.2597L192.25 56.3761V53.2714C192.25 49.0304 191.265 45.2099 189.324 41.9263C187.382 38.6426 184.698 36.039 181.334 34.1779L181.343 34.169ZM150.967 51.9651C151.897 47.402 153.937 43.6173 157.06 40.6915C160.46 37.5063 164.71 35.8511 169.694 35.7884C173.29 35.7884 176.484 36.5489 179.178 38.0521C181.862 39.5552 184.009 41.6399 185.539 44.2525C186.89 46.552 187.624 49.1735 187.731 52.0724L150.976 51.9651H150.967Z" fill="#00243A"/>
<path id="Vector_4" d="M264.391 18.6282C264.391 20.3729 265.322 21.5897 266.932 21.9744C268.543 22.3592 269.867 21.8223 270.645 20.4892C271.191 19.6213 271.316 18.494 271.021 17.134C270.762 15.935 270.091 14.4856 268.945 12.6872C266.351 8.67883 262.423 5.52045 257.278 3.30154C252.205 1.10946 246.595 0 240.609 0C235.375 0 230.302 1.01103 225.524 3.01522C220.755 5.01046 216.461 7.88253 212.775 11.533C209.079 15.1924 206.118 19.5945 203.97 24.6228C201.814 29.6601 200.723 35.279 200.723 41.3452C200.723 49.3799 202.432 56.6629 205.814 62.9886C209.196 69.3322 213.947 74.3874 219.914 78.0111C225.891 81.6347 232.852 83.4689 240.618 83.4689C246.604 83.4689 252.16 82.3594 257.135 80.1584C262.11 77.9663 266.431 74.8169 269.974 70.8085L270.78 69.9048L267.389 67.006L266.61 67.8917C263.505 71.4259 259.703 74.2353 255.31 76.2574C250.917 78.2705 245.987 79.2458 240.627 79.1831C233.756 79.1116 227.564 77.4295 222.223 74.1816C216.881 70.9338 212.658 66.4333 209.661 60.8055C206.655 55.1598 205.134 48.6104 205.134 41.3452C205.134 35.9143 206.109 30.868 208.024 26.3496C209.938 21.8313 212.596 17.8945 215.915 14.6466C219.243 11.3898 223.073 8.83093 227.305 7.01464C231.528 5.21624 236.002 4.29468 240.618 4.29468C245.835 4.29468 250.711 5.22519 255.122 7.06832C259.452 8.87567 262.763 11.4346 264.964 14.7093C265.456 15.3893 265.501 15.6577 265.501 15.6398C265.429 15.9172 265.304 16.1766 265.107 16.4093C264.633 16.9998 264.391 17.7424 264.391 18.6192V18.6282Z" fill="#00243A"/>
<path id="Vector_5" d="M327.729 52.1351C327.729 45.5231 325.787 40.3695 321.949 36.8085C318.137 33.2743 313.136 31.4849 307.079 31.4849C303.07 31.4849 299.259 32.4601 295.76 34.3838C293.604 35.5738 291.806 36.9964 290.383 38.6337V1.90527H278.662V6.19996H284.013C284.952 6.19996 285.453 6.3789 285.614 6.5489C285.721 6.66521 285.972 7.05889 285.972 8.15941V75.2996C285.972 76.4001 285.721 76.7938 285.614 76.9101C285.462 77.0801 284.961 77.259 284.013 77.259H278.662V81.5537H296.458V77.259H290.383V51.5715C290.383 48.3683 291.117 45.5768 292.566 43.2595C294.016 40.9421 296.02 39.1169 298.516 37.8374C301.03 36.549 303.92 35.8869 307.087 35.8869C311.856 35.8869 315.811 37.2738 318.826 40.0206C321.815 42.7316 323.327 46.8115 323.327 52.1262V75.2906C323.327 76.3911 323.076 76.7848 322.969 76.9011C322.817 77.0711 322.316 77.2501 321.367 77.2501H316.017V81.5447H333.813V77.2501H327.738V52.1262L327.729 52.1351Z" fill="#00243A"/>
<path id="Vector_6" d="M353.882 33.4087H342.161V37.7034H347.511C348.451 37.7034 348.952 37.8823 349.113 38.0523C349.22 38.1686 349.471 38.5623 349.471 39.6628V75.3087C349.471 76.4092 349.22 76.8028 349.113 76.9191C348.961 77.0891 348.46 77.2681 347.511 77.2681H339.682V81.5628H362.319V77.2681H353.882V33.4087Z" fill="#00243A"/>
<path id="Vector_7" d="M351.341 19.3702C352.808 19.3702 354.034 18.8423 354.982 17.7955C355.895 16.7844 356.36 15.5139 356.36 14.0197C356.36 12.5256 355.886 11.3624 354.937 10.4229C353.998 9.48348 352.781 9.00928 351.341 9.00928C349.9 9.00928 348.567 9.47454 347.556 10.3872C346.509 11.3356 345.981 12.5524 345.981 14.0287C345.981 15.505 346.5 16.8381 347.511 17.8492C348.531 18.8602 349.811 19.3791 351.332 19.3791L351.341 19.3702Z" fill="#00243A"/>
<path id="Vector_8" d="M383.739 1.91455H372.018V6.20923H377.368C378.308 6.20923 378.809 6.38818 378.97 6.55818C379.077 6.67449 379.328 7.06816 379.328 8.16867V75.3088C379.328 76.4093 379.077 76.803 378.97 76.9193C378.818 77.0893 378.317 77.2683 377.368 77.2683H368.072V81.563H394.305V77.2683H383.73V1.92349L383.739 1.91455Z" fill="#00243A"/>
<path id="Vector_9" d="M449.644 77.2593C448.705 77.2593 448.195 77.0804 448.042 76.9104C447.935 76.7941 447.685 76.4004 447.685 75.2999V1.91455H435.964V6.20923H441.314C442.254 6.20923 442.764 6.38818 442.916 6.55818C443.023 6.67449 443.274 7.06816 443.274 8.16867V41.9088C441.565 39.3588 439.39 37.2025 436.805 35.4667C432.868 32.8362 428.18 31.4942 422.865 31.4942C418.096 31.4942 413.783 32.6126 410.052 34.8046C406.312 37.0057 403.36 40.1193 401.275 44.0471C399.208 47.9481 398.153 52.4933 398.153 57.5396C398.153 62.5858 399.199 67.1311 401.275 71.0321C403.36 74.9599 406.304 78.0735 410.052 80.2746C413.783 82.4756 418.096 83.585 422.865 83.585C428.18 83.585 432.868 82.2519 436.805 79.6125C439.399 77.8767 441.565 75.7204 443.274 73.1704V81.563H454.994V77.2683H449.644V77.2593ZM422.874 79.1741C418.91 79.1025 415.376 78.1362 412.352 76.3109C409.328 74.4857 406.912 71.9268 405.194 68.7236C403.458 65.5026 402.581 61.7448 402.581 57.5396C402.581 53.3344 403.458 49.5676 405.194 46.3555C406.921 43.1524 409.337 40.5756 412.361 38.7056C415.376 36.8446 418.919 35.9051 422.874 35.9051C426.829 35.9051 430.479 36.8446 433.503 38.7056C436.536 40.5756 438.943 43.1435 440.67 46.3555C442.406 49.5765 443.283 53.3433 443.283 57.5396C443.283 61.7358 442.406 65.5026 440.67 68.7236C438.943 71.9268 436.536 74.4767 433.512 76.3109C430.488 78.1362 426.909 79.1025 422.874 79.1741Z" fill="#00243A"/>
<path id="Vector_10" d="M191.865 99.7349C199.112 99.7349 202.467 102.759 202.467 107.224C202.467 110.624 200.875 112.708 197.511 113.889V113.97C201.322 114.829 203.201 117.084 203.201 120.761C203.201 125.709 199.273 128.867 192.554 128.867H180.475V99.7349H191.856H191.865ZM187.445 111.527H191.131C194.281 111.527 195.632 110.507 195.632 108.333C195.632 106.159 194.325 105.22 191.373 105.22H187.445V111.518V111.527ZM187.445 123.347H191.292C194.612 123.347 195.918 122.327 195.918 120.117C195.918 117.781 194.567 116.717 191.167 116.717H187.445V123.347Z" fill="#00243A"/>
<path id="Vector_11" d="M225.158 128.876H218.071V117.871L208.086 99.7437H215.951L218.492 105.023C219.637 107.394 220.702 109.89 221.605 112.35H221.686C222.545 109.899 223.61 107.402 224.755 105.023L227.296 99.7437H235.161L225.175 117.871V128.876H225.158Z" fill="#00243A"/>
<path id="Vector_12" d="M257.028 101.229H268.417V127.409H292.092V101.229H303.482V156.523H292.092V137.573H268.417V156.523H257.028V101.229Z" fill="#00243A"/>
<path id="Vector_13" d="M377.619 101.229H389.009V146.52H414.061V156.523H377.619V101.229Z" fill="#00243A"/>
<path id="Vector_14" d="M497.932 130.827C495.168 128.223 491.347 123.266 491.347 123.266C491.347 123.266 492.161 129.368 492.161 133.35V156.523H481.505V100.746H482.641L510.539 126.926C513.223 129.449 517.044 134.486 517.044 134.486C517.044 134.486 516.31 128.223 516.31 124.403V101.229H526.966V157.006H525.83L497.923 130.827H497.932Z" fill="#00243A"/>
<path id="Vector_15" d="M600.584 111.232H584.801V101.229H627.757V111.232H611.974V156.523H600.584V111.232Z" fill="#00243A"/>
<path id="Vector_16" d="M637.545 101.229H648.935V127.409H672.609V101.229H683.999V156.523H672.609V137.573H648.935V156.523H637.545V101.229Z" fill="#00243A"/>
<path id="Vector_17" d="M698.61 101.229H710V156.523H698.61V101.229Z" fill="#00243A"/>
<path id="Vector_18" d="M339.843 157.203C355.335 157.203 367.893 144.52 367.893 128.876C367.893 113.231 355.335 100.549 339.843 100.549C324.352 100.549 311.794 113.231 311.794 128.876C311.794 144.52 324.352 157.203 339.843 157.203Z" fill="#00B8F1"/>
<path id="Vector_19" d="M419.939 156.523L446.888 99.7349L473.265 156.523H419.939Z" fill="#FFD600"/>
<path id="Vector_20" d="M534.679 156.523L561.619 99.7349L587.995 156.523H534.679Z" fill="#FF2A58"/>
</g>
</svg>
