<svg width="30" height="30" viewBox="0 0 30 30" fill="none" xmlns="http://www.w3.org/2000/svg">
<path id="Vector" d="M15 0C6.72897 0 0 6.72897 0 15C0 23.271 6.72897 30 15 30C23.271 30 30 23.271 30 15C30 6.72897 23.271 0 15 0ZM15.9574 28.4699C15.9574 26.5102 15.9574 23.0414 15.9694 20.9654C15.9753 20.1064 15.9783 19.2235 15.9843 18.3615H19.5993C19.8171 18.3615 20.1392 18.1497 20.1422 18.1467C20.6433 17.8037 20.855 17.2012 20.685 16.6136C20.518 16.041 20.0259 15.6592 19.4174 15.6383H15.9932C15.9992 13.8696 15.9932 12.7868 15.9813 12.2708C16.0022 12.1456 16.0261 12.0471 16.0678 11.9606C16.3959 11.2895 17.24 11.2776 18.4838 11.3372C18.961 11.3611 19.4084 11.382 19.8081 11.3253C20.3868 11.2478 20.9057 10.6632 20.9415 10.0547C20.9833 9.33585 20.4225 8.67668 19.7186 8.61404C18.9103 8.54245 17.3563 8.54842 16.5838 8.62597C14.7435 8.81388 13.1567 10.5916 13.1865 12.4319C13.1865 12.4975 13.1955 14.2006 13.1925 15.6472H10.0517L9.98906 15.6681C9.54464 15.7964 9.18672 16.1245 9.0346 16.551C8.88546 16.9656 8.9481 17.416 9.20461 17.7858C9.26725 17.8753 9.69676 18.3615 10.1084 18.3615H13.1806V28.3804C6.58878 27.4886 1.49135 21.8304 1.49135 14.997C1.49135 7.54922 7.5522 1.48837 15 1.48837C22.4478 1.48837 28.5086 7.54922 28.5086 14.997C28.5086 22.4448 22.9608 27.9747 15.9574 28.4669V28.4699Z" fill="black"/>
</svg>
