<svg width="31" height="31" viewBox="0 0 31 31" fill="none" xmlns="http://www.w3.org/2000/svg">
<g id="Group">
<path id="Vector" d="M15.4983 0C6.95251 0 0 6.95329 0 15.5C0 24.0468 6.95251 31.0001 15.4983 31.0001C24.0441 31.0001 30.9966 24.0468 30.9966 15.5C30.9966 6.95329 24.041 0 15.4983 0ZM15.4983 29.459C7.80309 29.459 1.54089 23.1961 1.54089 15.5C1.54089 7.80396 7.80309 1.54107 15.4983 1.54107C23.1935 1.54107 29.4557 7.80396 29.4557 15.5C29.4557 23.1961 23.1935 29.459 15.4983 29.459Z" fill="black"/>
<path id="Vector_2" d="M22.6543 9.25289C23.4814 9.25289 24.152 8.58225 24.152 7.75498C24.152 6.9277 23.4814 6.25706 22.6543 6.25706C21.8271 6.25706 21.1565 6.9277 21.1565 7.75498C21.1565 8.58225 21.8271 9.25289 22.6543 9.25289Z" fill="black"/>
<path id="Vector_3" d="M15.4984 8.68237C11.7787 8.68237 8.76159 11.6998 8.76159 15.4199C8.76159 19.14 11.7787 22.1574 15.4984 22.1574C19.2181 22.1574 22.2352 19.14 22.2352 15.4199C22.2352 11.6998 19.2181 8.68237 15.4984 8.68237ZM15.4984 19.8058C13.0761 19.8058 11.113 17.8425 11.113 15.4199C11.113 12.9974 13.0761 11.034 15.4984 11.034C17.9207 11.034 19.8838 12.9974 19.8838 15.4199C19.8838 17.8425 17.9207 19.8058 15.4984 19.8058Z" fill="black"/>
</g>
</svg>
