<svg width="91" height="90" viewBox="0 0 91 90" fill="none" xmlns="http://www.w3.org/2000/svg">
<path id="Vector" d="M12.2514 77.2386C12.2514 70.9779 15.1517 67.7275 32.5236 52.6459L32.3036 51.9458C3.5704 50.5656 0 47.7853 0 38.0342C0 29.4433 6.02067 24.1127 11.5813 24.1127C17.602 24.1127 21.6124 27.363 36.9841 37.3442L37.6542 36.8841C34.0938 22.2725 32.7536 17.1619 32.7536 12.0613C32.7536 4.87054 37.8742 0 45.005 0C52.1358 0 57.4864 4.87054 57.4864 12.0613C57.4864 17.1619 56.1462 22.5025 52.3658 36.8841L53.0359 37.3442C68.1876 27.133 72.198 24.1127 78.2087 24.1127C83.7793 24.1127 90.02 29.6833 90.02 38.0342C90.02 47.7753 86.6796 50.0956 57.7164 51.9558L57.4964 52.6559C74.6483 67.5075 77.9887 70.7479 77.9887 77.0086C77.9887 83.2693 71.3079 90 64.6172 90C57.9264 90 55.9262 88.3698 45.4551 61.9369H44.565C34.0938 88.3798 32.9837 90 25.4028 90C22.9526 90 20.2823 89.0699 17.832 87.2197C14.2616 84.4294 12.2614 80.959 12.2614 77.2486L12.2514 77.2386Z" fill="#FF3A74"/>
</svg>
