<svg width="39" height="38" viewBox="0 0 39 38" fill="none" xmlns="http://www.w3.org/2000/svg">
<g id="Layer-6">
<path id="Vector" d="M18.9709 36.9974C18.9709 36.9974 19.4151 31.8159 24.0209 28.1974C28.617 24.5887 30.8185 25.1966 34.0339 24.6369C37.9252 23.9615 37.5003 20.0439 35.7913 18.8957C35.2312 18.5194 33.4449 17.5448 30.0268 17.5834C22.9008 17.6606 17.0977 19.4457 17.0977 19.4457C17.0977 19.4457 21.4138 18.3553 26.5604 17.6992C31.7069 17.0431 36.0616 18.8667 36.0616 18.8667C36.0616 18.8667 40.2619 14.5922 35.9747 11.6395C32.7014 9.38166 27.9411 8.94745 23.2388 9.27552C18.5268 9.60359 15.7266 10.3562 15.7266 10.3562C15.7266 10.3562 18.4109 9.4492 23.5864 9.12113C32.8559 8.53253 36.612 11.958 36.612 11.958C36.612 11.958 37.79 7.78955 33.4063 4.08429C29.824 1.06412 20.0813 0.0123678 13.2161 2.06763C5.61701 4.34482 -2.86074 15.2676 2.90375 26.3351C7.74128 35.6272 18.9806 36.9878 18.9806 36.9878L18.9709 36.9974Z" fill="#FAF9F6" stroke="#00243A" stroke-width="2" stroke-linecap="round" stroke-linejoin="round"/>
</g>
</svg>
