<svg width="61" height="37" viewBox="0 0 61 37" fill="none" xmlns="http://www.w3.org/2000/svg">
<g id="Layer-19">
<path id="Vector" d="M1.01319 8.15137C1.01319 8.15137 5.76503 26.4495 16.363 28.3644C25.3803 29.9957 31.6317 27.3715 31.6317 27.3715C31.6317 27.3715 36.6774 29.7829 40.4667 32.2146C44.256 34.6462 47.7819 36.8955 49.6968 35.2237C51.6118 33.552 47.022 25.8011 42.5235 23.41C38.0249 21.0188 35.2184 19.7726 35.2184 19.7726C35.2184 19.7726 40.6187 21.9814 43.0503 23.491C50.7201 28.2327 50.7303 30.097 54.4993 31.5053C57.7719 32.7313 59.6767 29.5904 56.475 24.1597C54.2156 20.3197 51.3078 17.8374 45.9176 15.3045C41.49 13.2274 38.6328 11.7887 38.6328 11.7887C38.6328 11.7887 42.9085 9.51918 49.251 11.2619C53.9117 12.5486 57.6807 17.0674 59.3221 15.3247C60.9736 13.5821 59.8591 8.54651 52.4223 4.55455C44.9754 0.572724 38.4606 -0.0149224 32.4524 2.60923" stroke="#19292E" stroke-width="2" stroke-linecap="round" stroke-linejoin="round"/>
</g>
</svg>
