<svg width="108" height="118" viewBox="0 0 108 118" fill="none" xmlns="http://www.w3.org/2000/svg">
<g id="Layer-10">
<path id="Vector" d="M94.6928 0.00963141L89.2196 29.7547L28.8212 27.954L33.7067 1.09775L24.0514 3.85174C24.0514 3.85174 19.985 26.1148 16.3715 37.7374C12.758 49.3601 10.5899 45.9609 9.60708 50.3326C3.3726 78.0459 0 107.56 0 107.56C0 107.56 36.7516 117.18 63.8095 117.18C83.1007 117.18 92.8716 113.405 92.8716 113.405C92.8716 113.405 89.4701 107.387 90.3662 86.6738C91.2528 65.9611 108 65.6433 108 65.6433C108 65.6433 100.426 50.66 100.841 34.7235C101.255 18.7869 105.273 1.32886 105.273 1.32886L94.6928 0V0.00963141Z" fill="#00243A"/>
</g>
</svg>
