<svg width="48" height="40" viewBox="0 0 48 40" fill="none" xmlns="http://www.w3.org/2000/svg">
<g id="Vector">
<path d="M1.01346 31.0914C1.01346 31.0914 5.13824 12.2309 15.9519 5.57246C31.8328 -4.1973 49.1528 4.04214 46.4671 8.92702C45.2307 11.187 40.7715 8.85607 33.4036 8.48109C29.2079 8.26827 26.3196 10.4269 26.3196 10.4269C26.3196 10.4269 31.9645 7.94396 36.363 9.18038C44.3997 11.4505 40.9742 16.8117 40.9742 16.8117C40.9742 16.8117 37.0116 15.6057 33.6469 15.4233C30.2822 15.251 28.2249 16.8523 28.2249 16.8523C28.2249 16.8523 31.4375 15.2307 35.086 15.6463C38.7851 16.0719 41.4404 16.7712 40.5283 19.6494C39.2817 23.6222 27.1101 24.2708 27.1101 24.2708C27.1101 24.2708 25.2757 30.3617 23.1576 32.6116C18.1612 37.9221 14.0466 38.9862 14.0466 38.9862" fill="#E6E6E6"/>
<path d="M1.01346 31.0914C1.01346 31.0914 5.13824 12.2309 15.9519 5.57246C31.8328 -4.1973 49.1528 4.04214 46.4671 8.92702C45.2307 11.187 40.7715 8.85607 33.4036 8.48109C29.2079 8.26827 26.3196 10.4269 26.3196 10.4269C26.3196 10.4269 31.9645 7.94396 36.363 9.18038C44.3997 11.4505 40.9742 16.8117 40.9742 16.8117C40.9742 16.8117 37.0116 15.6057 33.6469 15.4233C30.2822 15.251 28.2249 16.8523 28.2249 16.8523C28.2249 16.8523 31.4375 15.2307 35.086 15.6463C38.7851 16.0719 41.4404 16.7712 40.5283 19.6494C39.2817 23.6222 27.1101 24.2708 27.1101 24.2708C27.1101 24.2708 25.2757 30.3617 23.1576 32.6116C18.1612 37.9221 14.0466 38.9862 14.0466 38.9862" stroke="white" stroke-width="2" stroke-linecap="round" stroke-linejoin="round"/>
</g>
</svg>
