<svg width="190" height="132" viewBox="0 0 190 132" fill="none" xmlns="http://www.w3.org/2000/svg">
<g id="Layer-7">
<path id="Vector" d="M77.085 110.645C77.085 110.645 81.096 115.066 93.3492 114.496C103.852 114.006 107.493 108.915 107.493 108.915C107.493 108.915 105.402 123.959 120.726 128.52C144.122 135.482 178.971 129.32 187.523 97.662C196.086 66.0038 181.072 39.8771 163.517 23.1528C147.503 7.89889 123.477 -3.91415 86.8575 1.21717C47.8075 6.68858 26.9021 24.3931 12.5684 46.8489C-1.76525 69.3147 -5.97633 104.754 11.3481 118.667C28.6726 132.571 52.6387 127.69 59.1804 124.829C74.4243 118.177 77.085 110.645 77.085 110.645Z" fill="#E6E6E6"/>
<path id="Vector_2" d="M74.654 7.93898C74.654 7.93898 76.3944 16.8113 82.9461 17.1914C89.4978 17.5715 91.1582 5.97848 91.1582 5.97848C91.1582 5.97848 93.9989 15.3109 100.421 15.4309C106.852 15.5609 107.482 5.61839 107.482 5.61839" stroke="white" stroke-width="2" stroke-linecap="round" stroke-linejoin="round"/>
</g>
</svg>
