<svg width="56" height="40" viewBox="0 0 56 40" fill="none" xmlns="http://www.w3.org/2000/svg">
<g id="Group">
<g id="Vector">
<path d="M1.00779 10.2494C1.00779 10.2494 12.7869 -1.25307 29.5033 1.40708C37.0156 2.59882 42.6126 6.53585 48.55 13.1437C54.6364 19.9217 57.3817 30.7219 52.4445 32.733C47.5072 34.7441 44.6875 27.8809 42.8041 23.9652C40.5483 19.2726 38.4627 17.368 38.4627 17.368C38.4627 17.368 40.8356 19.7834 42.8573 24.1141C42.8573 24.1141 44.9854 27.7639 43.3148 31.4881C41.1654 36.2763 35.0045 34.4036 35.0684 32.5628C35.1216 31.0944 34.4618 28.9237 33.4404 26.6679C32.0358 23.5608 29.7268 20.7411 29.7268 20.7411C29.7268 20.7411 37.8349 30.5517 33.8553 35.0739C28.8117 40.7986 23.6616 37.8831 21.7889 34.5632C19.7565 30.9667 18.7669 26.1039 21.2356 25.4336C24.7576 24.4653 27.2049 30.5198 27.2049 30.5198" fill="#FF2A58"/>
<path d="M1.00779 10.2494C1.00779 10.2494 12.7869 -1.25307 29.5033 1.40708C37.0156 2.59882 42.6125 6.53585 48.55 13.1437C54.6364 19.9217 57.3817 30.7219 52.4445 32.733C47.5072 34.7441 44.6875 27.8809 42.8041 23.9652C40.5483 19.2726 38.4627 17.368 38.4627 17.368C38.4627 17.368 40.8356 19.7834 42.8573 24.1141C42.8573 24.1141 44.9854 27.7639 43.3148 31.4881C41.1654 36.2763 35.0045 34.4036 35.0684 32.5628C35.1216 31.0944 34.4618 28.9237 33.4404 26.6679C32.0358 23.5608 29.7268 20.7411 29.7268 20.7411C29.7268 20.7411 37.8349 30.5517 33.8553 35.0739C28.8117 40.7986 23.6616 37.8831 21.7889 34.5632C19.7565 30.9667 18.7669 26.1039 21.2356 25.4336C24.7576 24.4653 27.2049 30.5198 27.2049 30.5198" stroke="#00243A" stroke-width="2" stroke-linecap="round" stroke-linejoin="round"/>
</g>
<path id="Vector_2" d="M19.4165 27.9873C19.4165 27.9873 14.1494 30.1792 9.57398 29.2429C6.55205 28.6257 2.33838 26.04 2.33838 26.04" stroke="#00243A" stroke-width="2" stroke-linecap="round" stroke-linejoin="round"/>
</g>
</svg>
