<svg width="52" height="56" viewBox="0 0 52 56" fill="none" xmlns="http://www.w3.org/2000/svg">
<g id="Layer-17">
<path id="Vector" d="M39.4756 54.9908C39.4756 54.9908 26.1481 50.2591 18.3291 46.5161C10.5102 42.7731 -0.537262 35.055 1.18795 32.9262C5.30426 27.8414 22.9902 36.3868 22.9902 36.3868C22.9902 36.3868 24.0496 32.5832 26.8241 30.0408C29.5985 27.4984 34.0982 26.2171 34.0982 26.2171" stroke="#19292E" stroke-width="2" stroke-linecap="round" stroke-linejoin="round"/>
<path id="Vector_2" d="M18.1882 34.2682C18.1882 34.2682 2.0458 18.2469 3.92235 12.9199C5.7989 7.59291 22.7787 25.289 22.7787 25.289C22.7787 25.289 9.59235 6.55375 13.3858 3.59767C17.1793 0.641604 29.2154 20.1436 29.2154 20.1436C29.2154 20.1436 19.0659 2.68967 24.3626 1.09561C28.3982 -0.11507 35.9549 11.7798 41.756 21.2433C44.8735 26.3281 50.6949 37.6076 50.6949 37.6076" stroke="#19292E" stroke-width="2" stroke-linecap="round" stroke-linejoin="round"/>
</g>
</svg>
