<svg width="58" height="35" viewBox="0 0 58 35" fill="none" xmlns="http://www.w3.org/2000/svg">
<path id="Vector" d="M56.9937 14.8589C53.8065 6.12685 41.1257 -0.0301068 29.8592 1.15094C11.6275 3.05805 -2.28359 14.9944 1.68824 19.9606C3.59666 22.3421 9.87411 17.6179 15.115 15.1977C19.9587 12.9518 22.1093 12.7872 22.1093 12.7872C22.1093 12.7872 14.8147 14.4039 11.0269 18.8473C4.12947 26.9695 13.0806 29.3897 13.0806 29.3897C13.0806 29.3897 14.0784 27.1437 17.4593 24.5203C20.8403 21.8968 25.7324 20.4156 25.7324 20.4156C25.7324 20.4156 19.7165 22.4679 16.2 25.5367C12.6253 28.6443 11.8407 30.8612 14.6306 33.0974C18.4668 36.1759 31.4964 26.6984 31.4964 26.6984C31.4964 26.6984 40.3991 35.8661 51.995 31.8873" stroke="white" stroke-width="2" stroke-linecap="round" stroke-linejoin="round"/>
</svg>
