<svg width="100" height="87" viewBox="0 0 100 87" fill="none" xmlns="http://www.w3.org/2000/svg">
<g id="Group">
<path id="Vector" d="M49.4723 0C33.1512 0 19.9308 13.8151 19.9308 30.8689C19.9308 47.9226 33.1618 61.7377 49.4723 61.7377C65.7828 61.7377 79.0138 47.9226 79.0138 30.8689C79.0138 13.8151 65.7828 0 49.4723 0ZM49.4723 58.2123C35.0095 58.2123 23.2969 45.9688 23.2969 30.8689C23.2969 15.7689 35.0201 3.52543 49.4723 3.52543C63.9245 3.52543 75.6476 15.7689 75.6476 30.8689C75.6476 45.9688 63.9245 58.2123 49.4723 58.2123Z" fill="#00243A"/>
<path id="Vector_2" d="M99.7743 50.6942L95.9409 21.1634H4.25814L0 50.6942H3.06883L1.53972 83.2833C1.44415 85.3009 2.98388 86.9999 4.92712 86.9999H94.3905C96.3019 86.9999 97.8417 85.3434 97.7779 83.3471L96.7479 50.7049H99.7849L99.7743 50.6942Z" fill="white"/>
<path id="Vector_3" d="M8.08112 50.6941H91.683" stroke="#00243A" stroke-width="2" stroke-linecap="round" stroke-linejoin="round"/>
<path id="Vector_4" d="M24.1148 43.3886H18.4232V60.1026H24.1148V43.3886Z" fill="#00243A"/>
<path id="Vector_5" d="M80.5226 43.3886H74.8309V60.1026H80.5226V43.3886Z" fill="#00243A"/>
</g>
</svg>
