<svg width="51" height="41" viewBox="0 0 51 41" fill="none" xmlns="http://www.w3.org/2000/svg">
<g id="Vector">
<path d="M7.89413 39.3C21.1977 41.9068 25.3234 26.5781 25.3234 26.5781C25.3234 26.5781 27.661 25.8133 33.3595 27.009C37.8299 27.9462 42.0849 29.7343 43.4745 27.8492C44.8641 25.9749 42.3865 22.0323 37.7437 20.3195C33.1009 18.6067 28.7705 18.122 28.7705 18.122C28.7705 18.122 35.6862 19.1992 38.2392 20.3303C46.2968 23.8851 51.769 21.6337 47.5356 16.9047C45.3165 14.4271 43.4422 13.2961 39.9628 11.6802C36.2033 9.93515 30.3325 9.60123 30.3325 9.60123C30.3325 9.60123 33.5534 9.34269 39.5857 10.5923C43.97 11.4971 47.8264 12.7036 49.1083 11.0555C50.8534 8.80408 50.8642 4.83994 40.8676 2.12536C32.8424 -0.0613795 21.6717 0.832708 14.1097 6.0141C4.81331 12.3804 1.01074 23.842 1.01074 23.842" fill="#00243A"/>
<path d="M7.89413 39.3C21.1977 41.9068 25.3234 26.5781 25.3234 26.5781C25.3234 26.5781 27.661 25.8133 33.3595 27.009C37.8299 27.9462 42.0849 29.7343 43.4745 27.8492C44.8641 25.9749 42.3865 22.0323 37.7437 20.3195C33.1009 18.6067 28.7705 18.122 28.7705 18.122C28.7705 18.122 35.6862 19.1992 38.2392 20.3303C46.2968 23.8851 51.769 21.6337 47.5356 16.9047C45.3165 14.4271 43.4422 13.2961 39.9628 11.6802C36.2033 9.93515 30.3325 9.60123 30.3325 9.60123C30.3325 9.60123 33.5534 9.34269 39.5857 10.5923C43.97 11.4971 47.8264 12.7036 49.1083 11.0555C50.8534 8.80408 50.8642 4.83994 40.8676 2.12536C32.8424 -0.0613796 21.6717 0.832708 14.1097 6.0141C4.81331 12.3804 1.01074 23.842 1.01074 23.842" stroke="white" stroke-width="2" stroke-linecap="round" stroke-linejoin="round"/>
</g>
</svg>
