<svg width="47" height="55" viewBox="0 0 47 55" fill="none" xmlns="http://www.w3.org/2000/svg">
<g id="Group">
<path id="Vector" d="M18.5025 53.9837C18.5025 53.9837 27.8684 51.0061 31.9071 47.2705C37.126 42.4523 47.8778 35.3494 45.3442 26.6764C44.3155 23.1467 39.573 22.8976 39.573 22.8976C40.8615 20.0066 39.1183 15.4915 35.4369 15.5782C31.8854 15.6648 27.7926 20.7104 27.7926 20.7104C27.7926 20.7104 43.5251 5.51931 38.1222 1.58889C32.7192 -2.34153 20.8629 15.3075 20.8521 15.3183C16.9867 16.0546 11.1939 16.9966 9.15831 19.4761C5.88837 26.0484 1.01595 44.1306 1.01595 44.1306" stroke="#00243A" stroke-width="2" stroke-linecap="round" stroke-linejoin="round"/>
<path id="Vector_2" d="M9.1584 19.4763C13.6843 15.6 24.4794 14.4198 26.7099 15.9789C31.8206 19.5412 14.3232 27.4995 14.3232 27.4995" stroke="#00243A" stroke-width="2" stroke-linecap="round" stroke-linejoin="round"/>
<path id="Vector_3" d="M39.5729 22.8977C39.5729 22.8977 29.8389 37.2334 25.7028 34.8189C21.5666 32.4043 25.3346 24.8467 27.7817 20.5156" stroke="#00243A" stroke-width="2" stroke-linecap="round" stroke-linejoin="round"/>
<path id="Vector_4" d="M34.2572 29.6973C34.2572 29.6973 30.3484 37.3958 32.763 39.6804C35.1667 41.965 41.6957 31.7654 41.6957 31.7654" stroke="#00243A" stroke-width="2" stroke-linecap="round" stroke-linejoin="round"/>
</g>
</svg>
