<svg width="50" height="47" viewBox="0 0 50 47" fill="none" xmlns="http://www.w3.org/2000/svg">
<path id="Vector" d="M48.9909 34.5275C48.9909 34.5275 49.3438 18.7991 37.6281 9.17044C20.1152 -5.21702 -1.38034 2.54636 1.23098 8.75706C2.43077 11.6204 5.87892 9.94679 14.7614 10.4207C19.8228 10.6929 26.8401 13.5563 26.8401 13.5563C26.8401 13.5563 16.5662 9.95687 11.1217 10.8945C1.19065 12.6085 4.62872 19.4746 4.62872 19.4746C4.62872 19.4746 9.53881 18.5167 13.602 18.7285C17.6652 18.9402 23.0189 21.1886 23.0189 21.1886C23.0189 21.1886 16.2839 18.7688 11.8577 18.8091C7.37111 18.8495 4.09436 19.3536 4.82029 22.9328C5.81843 27.853 20.347 30.1719 20.347 30.1719C20.347 30.1719 21.9199 38.3285 26.1645 42.1396C30.4092 45.9507 37.3055 45.4264 37.3055 45.4264" stroke="#19292E" stroke-width="2" stroke-linecap="round" stroke-linejoin="round"/>
</svg>
