<svg width="528" height="509" viewBox="0 0 528 509" fill="none" xmlns="http://www.w3.org/2000/svg">
<g clip-path="url(#clip0_38_25)">
<path d="M13.27 385.25C13.27 361.52 127.9 342.28 269.31 342.28C410.72 342.28 525.35 361.52 525.35 385.25C525.35 408.98 410.72 428.22 269.31 428.22C127.9 428.22 13.27 408.98 13.27 385.25Z" fill="#F2F2F2"/>
<path d="M227.15 236.23L42.54 309.48L90.72 408.04L264.16 319.11L423.33 412.41L484.22 322.87L316.95 228.89L227.15 236.22V236.23Z" fill="#FFD600"/>
<path d="M469.76 311.1L405.73 408.04" stroke="#FF3A74" stroke-width="2" stroke-linecap="round" stroke-linejoin="round"/>
<path d="M60.53 298.83L109.71 404.08" stroke="#FF3A74" stroke-width="2" stroke-linecap="round" stroke-linejoin="round"/>
<path d="M216.14 240.55C216.14 240.55 217.32 263.44 198.94 275.04C182.61 285.35 140.36 287.82 127.65 254.37C114.94 220.92 133.32 150.6 174.12 128.19C214.92 105.77 260 97.9799 295.55 101.81C331.95 105.74 385.01 130.19 401.39 161.3C417.78 192.41 419.23 229.1 401.39 247.05C383.84 264.7 361.4 263.33 348.02 256.64C334.64 249.95 319.34 234.5 319.34 234.5C319.34 234.5 306.58 252.36 272.08 254.7C232.2 257.41 216.14 240.55 216.14 240.55Z" fill="#00B8F1"/>
<path opacity="0.3" d="M264.34 106.16C258.81 106.16 254.32 110.65 254.32 116.19C254.32 121.73 258.81 126.22 264.34 126.22C269.87 126.22 274.37 121.73 274.37 116.19C274.37 110.66 269.88 106.16 264.34 106.16ZM318.55 106.6C314.13 107.64 310.76 111.44 310.76 116.18C310.76 121.71 315.25 126.21 320.78 126.21C326.31 126.21 330.8 121.72 330.8 116.18C330.8 113.58 329.75 111.26 328.12 109.47C324.89 108.37 321.73 107.49 318.54 106.59L318.55 106.6ZM215.95 110.63C209.98 112.47 204.01 114.62 198.07 117.02C198.52 122.14 202.66 126.22 207.9 126.22C213.43 126.22 217.86 121.73 217.86 116.19C217.86 114.08 217.04 112.25 215.95 110.63ZM180.57 143.52C175.04 143.52 170.55 148.01 170.55 153.55C170.55 159.09 175.04 163.51 180.57 163.51C186.1 163.51 190.6 159.08 190.6 153.55C190.6 148.02 186.11 143.52 180.57 143.52ZM237.02 143.52C231.49 143.52 227 148.01 227 153.55C227 159.09 231.49 163.51 237.02 163.51C242.55 163.51 247.04 159.08 247.04 153.55C247.04 148.02 242.55 143.52 237.02 143.52ZM293.52 143.52C287.99 143.52 283.5 148.01 283.5 153.55C283.5 159.09 287.99 163.51 293.52 163.51C299.05 163.51 303.48 159.08 303.48 153.55C303.48 148.02 299.05 143.52 293.52 143.52ZM349.96 143.52C344.43 143.52 339.93 148.01 339.93 153.55C339.93 159.09 344.42 163.51 349.96 163.51C355.5 163.51 359.98 159.08 359.98 153.55C359.98 148.02 355.49 143.52 349.96 143.52ZM396.51 154.18C396.75 157.74 398.81 160.73 401.81 162.29C401.64 161.96 401.54 161.6 401.36 161.27C400.07 158.83 398.22 156.53 396.51 154.18ZM151.4 180.82C145.87 180.82 141.38 185.31 141.38 190.85C141.38 196.39 145.87 200.88 151.4 200.88C156.93 200.88 161.42 196.39 161.42 190.85C161.42 185.31 156.93 180.82 151.4 180.82ZM264.34 180.82C258.81 180.82 254.32 185.31 254.32 190.85C254.32 196.39 258.81 200.88 264.34 200.88C269.87 200.88 274.37 196.39 274.37 190.85C274.37 185.32 269.88 180.82 264.34 180.82ZM320.78 180.82C315.25 180.82 310.76 185.31 310.76 190.85C310.76 196.39 315.25 200.88 320.78 200.88C326.31 200.88 330.8 196.39 330.8 190.85C330.8 185.31 326.31 180.82 320.78 180.82ZM377.29 180.82C371.76 180.82 367.27 185.31 367.27 190.85C367.27 196.39 371.76 200.88 377.29 200.88C382.82 200.88 387.32 196.39 387.32 190.85C387.32 185.31 382.83 180.82 377.29 180.82ZM180.57 218.18C175.04 218.18 170.55 222.67 170.55 228.21C170.55 233.75 175.04 238.24 180.57 238.24C186.1 238.24 190.6 233.75 190.6 228.21C190.6 222.67 186.11 218.18 180.57 218.18ZM237.02 218.18C231.49 218.18 227 222.67 227 228.21C227 233.75 231.49 238.24 237.02 238.24C242.55 238.24 247.04 233.75 247.04 228.21C247.04 222.68 242.55 218.18 237.02 218.18ZM293.52 218.18C287.99 218.18 283.5 222.67 283.5 228.21C283.5 233.75 287.99 238.24 293.52 238.24C299.05 238.24 303.48 233.75 303.48 228.21C303.48 222.67 299.05 218.18 293.52 218.18ZM349.96 218.18C344.43 218.18 339.93 222.67 339.93 228.21C339.93 233.75 344.42 238.24 349.96 238.24C355.5 238.24 359.98 233.75 359.98 228.21C359.98 222.67 355.49 218.18 349.96 218.18ZM406.4 218.18C400.87 218.18 396.38 222.67 396.38 228.21C396.38 233.75 400.87 238.24 406.4 238.24C406.92 238.24 407.37 238.06 407.87 237.98C410.56 232.97 412.41 227.26 413.36 221.05C411.55 219.29 409.12 218.18 406.4 218.18ZM124.45 218.24C123.8 225.23 123.65 231.98 124.26 238.17C129.7 238.06 134.09 233.67 134.09 228.2C134.09 222.73 129.8 218.45 124.45 218.24ZM151.4 255.54C145.87 255.54 141.38 260.03 141.38 265.57C141.38 271.11 145.87 275.6 151.4 275.6C156.93 275.6 161.42 271.11 161.42 265.57C161.42 260.03 156.93 255.54 151.4 255.54ZM207.9 255.54C202.37 255.54 197.88 260.03 197.88 265.57C197.88 268.58 199.28 271.2 201.39 273.04C207.39 268.42 210.99 262.7 213.07 257.2C211.54 256.24 209.85 255.54 207.9 255.54ZM377.29 255.54C373.39 255.54 370.07 257.84 368.42 261.09C373.49 261.07 378.72 260.18 384 258.22C382.22 256.59 379.9 255.54 377.29 255.54Z" fill="white"/>
<path d="M265.25 119.73C265.25 116.64 267.75 114.13 270.84 114.13C273.93 114.13 276.43 116.64 276.43 119.73C276.43 122.82 273.93 125.33 270.84 125.33C267.75 125.33 265.25 122.82 265.25 119.73Z" fill="white"/>
<path d="M265.4 139.2C265.4 136.11 267.9 133.6 270.99 133.6C274.08 133.6 276.58 136.11 276.58 139.2C276.58 142.29 274.08 144.8 270.99 144.8C267.9 144.8 265.4 142.3 265.4 139.2Z" fill="white"/>
<path d="M303.76 71.4501C317.15 53.3001 313.29 27.7401 295.15 14.3501C277.01 0.960105 251.45 4.8201 238.07 22.9601C224.68 41.1101 228.54 66.6701 246.68 80.0601C264.82 93.4501 290.38 89.5901 303.76 71.4501Z" stroke="#19292E" stroke-width="2" stroke-linecap="round" stroke-linejoin="round"/>
<path d="M266.62 56.17C267.99 54.61 267.84 52.24 266.28 50.87C264.73 49.5 262.35 49.65 260.98 51.21C259.61 52.77 259.76 55.14 261.32 56.51C262.87 57.88 265.25 57.73 266.62 56.17Z" fill="#19292E"/>
<path d="M290.01 63.4901C291.38 61.9301 291.23 59.5601 289.67 58.1901C288.12 56.8201 285.74 56.9701 284.37 58.5301C283 60.0901 283.15 62.4601 284.71 63.8301C286.26 65.2001 288.64 65.0501 290.01 63.4901Z" fill="#19292E"/>
<path d="M277.7 58.28L276.7 75.47L269.05 70.65" stroke="#19292E" stroke-width="2" stroke-linecap="round" stroke-linejoin="round"/>
<path d="M255.2 65.8201C255.2 65.8201 255.13 70.8001 257.28 73.2101C259.43 75.6201 263.8 75.4701 263.8 75.4701" stroke="#19292E" stroke-width="2" stroke-linecap="round" stroke-linejoin="round"/>
<path d="M442.25 402.49C449.43 407.1 469.88 420.41 469.88 420.41C469.88 420.41 525.25 345.35 526.17 334.85C526.79 327.77 511.27 334.75 496.59 341.7C482.64 348.32 469.29 358.07 469.29 358.07" stroke="#19292E" stroke-width="2" stroke-linecap="round" stroke-linejoin="round"/>
<path d="M483.2 363.14L479.27 341.76" stroke="#FF3A74" stroke-width="2" stroke-linecap="round" stroke-linejoin="round"/>
<path d="M490.66 358.5L486.73 337.12" stroke="#FF3A74" stroke-width="2" stroke-linecap="round" stroke-linejoin="round"/>
<path d="M75.37 398.26C67.64 401.89 45.63 412.41 45.63 412.41C45.63 412.41 0.540017 330.76 1.00002 320.23C1.31002 313.13 15.79 322.08 29.43 330.89C42.4 339.27 54.36 350.69 54.36 350.69" stroke="#19292E" stroke-width="2" stroke-linecap="round" stroke-linejoin="round"/>
<path d="M39.91 353.9L46.6 333.22" stroke="#FF3A74" stroke-width="2" stroke-linecap="round" stroke-linejoin="round"/>
<path d="M33.12 348.32L39.81 327.64" stroke="#FF3A74" stroke-width="2" stroke-linecap="round" stroke-linejoin="round"/>
<path d="M433.14 507.57L187.08 508.14L137.72 457L138.46 367.22L113.83 336.49L148.21 308.92L126.72 300.01H369.9L401.97 308.92L425.51 320.43L470.74 363.21L440.59 346.75L469.9 397.75L433.56 397.18L433.14 507.57Z" fill="#F2F2F2"/>
<path d="M218 419.35H411.35V471.4H218V419.35Z" stroke="#FF2A58" stroke-width="2" stroke-linejoin="round"/>
<path d="M148.21 308.92L187.09 346.76L153.06 385.57L113.84 336.49L148.22 308.92H148.21Z" stroke="#19292E" stroke-width="2" stroke-linecap="round" stroke-linejoin="round"/>
<path d="M187.08 346.75L214.68 397.75H469.89L440.57 346.75H187.07H187.08Z" stroke="#19292E" stroke-width="2" stroke-linejoin="round"/>
<path d="M440.84 346.75L401.96 308.91L425.51 320.42L470.74 363.2L440.84 346.75Z" stroke="#19292E" stroke-width="2" stroke-linecap="round" stroke-linejoin="round"/>
<path d="M401.97 308.92L369.9 300.02H126.72L148.47 308.92H401.97Z" stroke="#19292E" stroke-width="2" stroke-linejoin="round"/>
<path d="M138.46 367.22L137.72 456.42L187.08 507.57H433.14L433.56 397.18" stroke="#19292E" stroke-width="2" stroke-linejoin="round"/>
<path d="M187.08 346.75V507.57" stroke="#19292E" stroke-width="2" stroke-linejoin="round"/>
<path d="M232.24 435.46H236.39V444.99H245.01V435.46H249.16V455.59H245.01V448.69H236.39V455.59H232.24V435.46Z" fill="#00243A"/>
<path d="M276.13 435.46H280.28V451.95H289.4V455.59H276.13V435.46Z" fill="#00243A"/>
<path d="M319.93 446.23C318.92 445.28 317.53 443.48 317.53 443.48C317.53 443.48 317.83 445.7 317.83 447.15V455.59H313.95V435.28H314.36L324.52 444.81C325.5 445.73 326.89 447.56 326.89 447.56C326.89 447.56 326.62 445.28 326.62 443.89V435.45H330.5V455.76H330.09L319.93 446.23Z" fill="#00243A"/>
<path d="M357.3 439.1H351.56V435.46H367.2V439.1H361.46V455.59H357.31V439.1H357.3Z" fill="#00243A"/>
<path d="M370.75 435.46H374.9V444.99H383.52V435.46H387.67V455.59H383.52V448.69H374.9V455.59H370.75V435.46Z" fill="#00243A"/>
<path d="M392.98 435.46H397.13V455.59H392.98V435.46Z" fill="#00243A"/>
<path d="M262.38 455.84C268.019 455.84 272.59 451.22 272.59 445.52C272.59 439.82 268.019 435.2 262.38 435.2C256.741 435.2 252.17 439.82 252.17 445.52C252.17 451.22 256.741 455.84 262.38 455.84Z" fill="#00B8F1"/>
<path d="M291.54 455.59L301.35 434.91L310.95 455.59H291.54Z" fill="#FFD600"/>
<path d="M333.31 455.59L343.11 434.91L352.72 455.59H333.31Z" fill="#FF2A58"/>
<path d="M148.21 308.92H401.97L440.59 346.75H187.08L148.21 308.92Z" fill="#00243A"/>
<path d="M332.31 154.91C333.95 154.91 335.27 156.24 335.27 157.88V174.76L344.33 279.92C344.74 284.65 341.01 288.72 336.26 288.72H233.02C230.05 288.72 227.72 286.18 227.98 283.22L237.51 174.76V157.88C237.51 156.24 238.84 154.91 240.47 154.91H332.3H332.31Z" fill="#F2F2F2" stroke="#00243A" stroke-width="2" stroke-miterlimit="10"/>
<path d="M333.37 174.76H240.51" stroke="#00243A" stroke-width="2" stroke-linecap="round" stroke-linejoin="round"/>
<path d="M299.37 272.39V268.99C299.37 265.55 301.16 263.49 304.13 263.49C307.1 263.49 308.87 265.57 308.87 268.99V269.86H311.68V272.4H299.37V272.39ZM306.64 269.06C306.64 267 305.81 266.09 304.12 266.09C302.43 266.09 301.59 267.03 301.59 269.06V269.86H306.64V269.06Z" fill="#00B8F1"/>
<path d="M305.52 261.92C301.88 261.92 299.2 259.1 299.2 255.55C299.2 252 301.88 249.18 305.52 249.18C309.16 249.18 311.84 252 311.84 255.55C311.84 259.1 309.16 261.92 305.52 261.92ZM305.52 251.78C303.22 251.78 301.47 253.3 301.47 255.55C301.47 257.8 303.23 259.32 305.52 259.32C307.81 259.32 309.57 257.8 309.57 255.55C309.57 253.3 307.81 251.78 305.52 251.78Z" fill="#00B8F1"/>
<path d="M311.67 237.93V240.86L308.56 242.89C308.6 243.13 308.61 243.38 308.61 243.61V244.48H311.67V247.02H299.36V243.62C299.36 240.18 301.01 238.12 304.01 238.12C305.93 238.12 307.14 238.97 307.83 240.49L311.67 237.94V237.93ZM306.41 243.68C306.41 241.62 305.76 240.71 304.02 240.71C302.28 240.71 301.59 241.65 301.59 243.68V244.48H306.4V243.68H306.41Z" fill="#00B8F1"/>
<path d="M311.67 226.81V229.74L308.56 231.77C308.6 232.01 308.61 232.26 308.61 232.49V233.36H311.67V235.9H299.36V232.5C299.36 229.06 301.01 227 304.01 227C305.93 227 307.14 227.85 307.83 229.37L311.67 226.82V226.81ZM306.41 232.56C306.41 230.5 305.76 229.59 304.02 229.59C302.28 229.59 301.59 230.53 301.59 232.56V233.36H306.4V232.56H306.41Z" fill="#00B8F1"/>
<path d="M299.37 224.72V222.18H311.68V224.72H299.37Z" fill="#00B8F1"/>
<path d="M299.37 219.58V215.8C299.37 212.02 301.89 209.32 305.52 209.32C309.15 209.32 311.67 212 311.67 215.8V219.58H299.36H299.37ZM309.45 215.92C309.45 213.19 307.82 211.94 305.52 211.94C303.22 211.94 301.59 213.19 301.59 215.92V217.04H309.45V215.92Z" fill="#00B8F1"/>
<path d="M305.52 207.59C301.88 207.59 299.22 205.02 299.22 201.31C299.22 199.3 299.76 197.85 300.92 196.84L302.62 198.56C301.99 199.18 301.5 199.88 301.5 201.31C301.5 203.54 303.22 204.99 305.52 204.99C307.82 204.99 309.57 203.5 309.57 200.92C309.57 200.12 309.43 199.15 309.12 198.51H307.31V201.48H305.08V196.19H310.4C310.98 196.9 311.83 198.67 311.83 200.92C311.83 204.94 309.15 207.6 305.51 207.6L305.52 207.59Z" fill="#00B8F1"/>
<path d="M299.37 193.79V185.64H301.6V191.25H305.51V186.31H307.68V191.25H309.45V185.38H311.68V193.78H299.37V193.79Z" fill="#00B8F1"/>
<path d="M286.3 216H260.49V241.82H286.3V216Z" fill="#00243A" stroke="#00243A" stroke-linecap="round" stroke-linejoin="round"/>
<path d="M273.435 238.778C278.886 238.757 283.288 234.322 283.267 228.871C283.246 223.42 278.81 219.018 273.359 219.039C267.908 219.059 263.506 223.495 263.527 228.946C263.548 234.397 267.984 238.799 273.435 238.778Z" fill="#F2F2F2" stroke="#00243A" stroke-linecap="round" stroke-linejoin="round"/>
<path d="M273.417 234.248C276.367 234.237 278.748 231.837 278.737 228.888C278.726 225.939 276.326 223.557 273.376 223.568C270.427 223.58 268.046 225.98 268.057 228.929C268.068 231.878 270.468 234.26 273.417 234.248Z" fill="#00243A"/>
<path d="M268.345 199.698C271.951 199.684 274.864 196.75 274.85 193.143C274.836 189.537 271.901 186.624 268.295 186.638C264.688 186.652 261.776 189.587 261.79 193.193C261.804 196.8 264.738 199.712 268.345 199.698Z" fill="#00243A"/>
<path d="M278.514 209.849C282.12 209.835 285.032 206.9 285.019 203.294C285.005 199.688 282.07 196.775 278.464 196.789C274.857 196.803 271.945 199.738 271.959 203.344C271.973 206.951 274.907 209.863 278.514 209.849Z" fill="#00243A"/>
<path d="M286.3 185.39H260.49V211.21H286.3V185.39Z" stroke="#00243A" stroke-linecap="round" stroke-linejoin="round"/>
<path d="M273.438 268.318C278.298 268.299 282.223 264.344 282.204 259.484C282.186 254.624 278.231 250.7 273.371 250.718C268.511 250.737 264.586 254.692 264.605 259.552C264.623 264.412 268.578 268.337 273.438 268.318Z" fill="#00243A" stroke="#00243A" stroke-miterlimit="10"/>
<path d="M286.3 246.61H260.49V272.43H286.3V246.61Z" stroke="#00243A" stroke-linecap="round" stroke-linejoin="round"/>
<path d="M273.4 268.33C278.26 268.33 282.2 264.39 282.2 259.53C282.2 254.67 278.26 250.73 273.4 250.73V268.34V268.33Z" fill="#F2F2F2" stroke="#00243A" stroke-linecap="round" stroke-linejoin="round"/>
<path d="M395.39 157.39C395.39 157.39 390.28 107.75 380.29 108.76C370.3 109.77 375.93 141.69 375.65 143.65C375.37 145.6 372.88 127.48 370.4 119.42C366.14 105.54 360.31 102.46 356.37 107.85C352.43 113.24 359.9 145.02 359.9 145.02C359.9 145.02 346.43 129.51 334.59 135.37C322.42 141.4 315.61 148.84 322.42 153.45C328.25 157.4 336.52 147.39 341.74 150.05C346.96 152.7 363.18 172.59 356.02 181.19C353.77 183.89 346.11 189.84 342.62 194.17C338.31 199.5 334.96 208.06 342.62 209.13C358.4 211.34 383.24 193.27 383.24 193.27" stroke="#19292E" stroke-width="2" stroke-linecap="round" stroke-linejoin="round"/>
<path d="M315.91 30.97C315.91 27.97 313.84 25.46 311.04 24.79C311.38 24.01 311.58 23.14 311.58 22.23C311.58 18.71 308.73 15.86 305.21 15.86C305.12 15.86 305.03 15.86 304.94 15.87C305.12 15.29 305.21 14.67 305.21 14.03C305.21 10.51 302.36 7.66 298.84 7.66C298.6 7.66 298.37 7.67 298.14 7.7C297.37 5.05 294.93 3.12 292.03 3.12C290.46 3.12 289.02 3.69 287.91 4.64C286.83 2.65 284.73 1.29 282.3 1.29C280.86 1.29 279.54 1.77 278.47 2.58C277.31 1.02 275.46 0 273.36 0C271.43 0 269.7 0.86 268.53 2.22C267.57 1.63 266.44 1.29 265.23 1.29C263.26 1.29 261.51 2.18 260.34 3.58C259.6 3.28 258.8 3.11 257.95 3.11C254.43 3.11 251.58 5.96 251.58 9.48C251.58 10.05 251.66 10.6 251.8 11.13C246.55 13.88 241.82 17.83 238.04 22.95C233.71 28.82 231.2 35.46 230.37 42.21L230.44 43.39L245.13 36.17L240.56 29.27L242.88 26.9L248.63 34.46L250.48 33.55L244.55 24.59L246.87 22.22L254.12 31.76L273 22.49L299.01 30.35L309.63 60.03C312.07 55.74 312.75 50.32 312.1 44.64C314.08 43.56 315.42 41.46 315.42 39.05C315.42 37.64 314.96 36.34 314.18 35.28C315.22 34.15 315.87 32.64 315.87 30.97H315.91Z" fill="#19292E"/>
<path d="M174.26 209.85C174.26 209.85 174.15 198 187.36 175.63C206.9 142.54 242.67 137.66 243.07 149.08C243.25 154.34 236.76 154.21 223.44 161.28C215.84 165.31 207.1 174.7 207.1 174.7C207.1 174.7 220.35 161.84 229.39 159.42C245.89 154.99 245.49 168.01 245.49 168.01C245.49 168.01 237.25 170.04 231.16 173.25C225.06 176.46 218.43 183.74 218.43 183.74C218.43 183.74 227.06 175.22 233.91 172.13C240.85 169 246.25 167.44 247.68 173.47C249.64 181.76 228.94 195.67 228.94 195.67C228.94 195.67 228.3 209.63 222.46 218.44C216.62 227.25 205.6 230.9 205.6 230.9" fill="#00B8F1"/>
<path d="M174.26 209.85C174.26 209.85 174.15 198 187.36 175.63C206.9 142.54 242.67 137.66 243.07 149.08C243.25 154.34 236.76 154.21 223.44 161.28C215.84 165.31 207.1 174.7 207.1 174.7C207.1 174.7 220.35 161.84 229.39 159.42C245.89 154.99 245.49 168.01 245.49 168.01C245.49 168.01 237.25 170.04 231.16 173.25C225.06 176.46 218.43 183.74 218.43 183.74C218.43 183.74 227.06 175.22 233.91 172.13C240.85 169 246.25 167.44 247.68 173.47C249.64 181.76 228.94 195.67 228.94 195.67C228.94 195.67 228.3 209.63 222.46 218.44C216.62 227.25 205.6 230.9 205.6 230.9" stroke="#19292E" stroke-width="2" stroke-linecap="round" stroke-linejoin="round"/>
<path opacity="0.3" d="M207.9 180.82C202.37 180.82 197.88 185.31 197.88 190.85C197.88 196.39 202.37 200.88 207.9 200.88C213.43 200.88 217.86 196.39 217.86 190.85C217.86 185.31 213.43 180.82 207.9 180.82Z" fill="white"/>
</g>
<defs>
<clipPath id="clip0_38_25">
<rect width="527.19" height="508.57" fill="white"/>
</clipPath>
</defs>
</svg>
